<?xml version="1.0" encoding="utf-8"?>
<!-- Generator: Adobe Illustrator 21.0.2, SVG Export Plug-In . SVG Version: 6.00 Build 0)  -->
<svg version="1.1" id="Layer_1" xmlns="http://www.w3.org/2000/svg" xmlns:xlink="http://www.w3.org/1999/xlink" x="0px" y="0px"
	 viewBox="0 0 12 9.4" style="enable-background:new 0 0 12 9.4;" xml:space="preserve">
<g>
	<path d="M8.8,1.7c0.4,0.5,0.6,1.1,0.6,1.7c0,0.6-0.2,1.2-0.6,1.7c-0.4,0.5-1,0.9-1.7,1.2C6.4,6.7,5.6,6.9,4.7,6.9
		c-0.4,0-0.8,0-1.2-0.1C3,7.1,2.4,7.4,1.7,7.6c-0.2,0-0.4,0.1-0.6,0.1h0c0,0-0.1,0-0.1-0.1S0.9,7.6,0.9,7.5c0,0,0,0,0,0s0,0,0,0
		c0,0,0,0,0,0c0,0,0,0,0,0s0,0,0,0s0,0,0,0c0,0,0,0,0,0c0,0,0,0,0,0c0,0,0.1-0.1,0.2-0.2C1.2,7,1.3,6.9,1.3,6.9s0.1-0.1,0.2-0.2
		c0.1-0.1,0.1-0.2,0.2-0.3c0-0.1,0.1-0.2,0.1-0.3c-0.6-0.3-1-0.7-1.3-1.2C0.2,4.5,0,4,0,3.4c0-0.6,0.2-1.2,0.6-1.7s1-0.9,1.7-1.2
		C3.1,0.2,3.9,0,4.7,0c0.9,0,1.6,0.2,2.4,0.5C7.8,0.8,8.4,1.2,8.8,1.7z M12,5.1c0,0.5-0.2,1-0.5,1.5c-0.3,0.5-0.8,0.9-1.3,1.2
		c0,0.1,0.1,0.2,0.1,0.3s0.1,0.2,0.2,0.3c0.1,0.1,0.1,0.1,0.2,0.2c0,0,0.1,0.1,0.2,0.2C10.9,8.9,11,8.9,11,8.9c0,0,0,0,0,0
		c0,0,0,0,0,0c0,0,0,0,0,0s0,0,0,0c0,0,0,0,0,0c0,0,0,0,0,0c0,0,0,0,0,0c0,0,0,0,0,0c0,0.1,0,0.1-0.1,0.1c0,0-0.1,0.1-0.1,0
		c-0.2,0-0.4-0.1-0.6-0.1C9.6,9.1,9,8.9,8.5,8.5C8.1,8.5,7.7,8.6,7.3,8.6C6.1,8.6,5,8.3,4.1,7.7c0.3,0,0.5,0,0.6,0
		c0.7,0,1.4-0.1,2.1-0.3C7.4,7.2,8,6.9,8.6,6.5c0.6-0.4,1-0.9,1.3-1.4c0.3-0.5,0.4-1.1,0.4-1.7c0-0.3-0.1-0.7-0.2-1
		c0.6,0.3,1,0.7,1.4,1.2C11.8,4.1,12,4.6,12,5.1z"/>
</g>
</svg>
