<svg xmlns="http://www.w3.org/2000/svg" viewBox="0 0 184 184"><defs><style>.cls-1{fill:#00a0ad;}</style></defs><title>icon_lick</title><g id="Layer_2" data-name="Layer 2"><g id="Layer_3" data-name="Layer 3"><path class="cls-1" d="M122.13,47.5H104.87c-3.05,0-4.92,4.48-4.92,6.93v6.15A4.93,4.93,0,0,0,104,65.41V89.5c0,8.79-1.07,11.59-2,12.39-.43.38-1,.36-2.11.22a13.1,13.1,0,0,0-2.47-.07c-1.46.09-2.4.09-3.2-.66-1-1-2.24-3.63-2.24-10.89,0-26-15.49-27.17-28.58-27.44a4.92,4.92,0,0,0-4.84-4.11H52.43a4.93,4.93,0,0,0-4.93,4.92V81.13a4.93,4.93,0,0,0,4.93,4.92h6.15a4.93,4.93,0,0,0,4.83-4c2.92.09,6,.35,7.51,1.19,1,.59,2.09,1.19,2.09,7.25,0,19.26,7.65,25.59,15,28.5-3.48,5.57-6.51,11.43-6.51,14.92,0,8.22,7.63,14.91,17,14.91s17-6.69,17-14.91c0-3.49-2.81-9.38-6-15a19,19,0,0,0,6.37-4.9c4.84-5.68,7.14-10.8,7.14-24.54V65.41a4.93,4.93,0,0,0,4.05-4.84V54.43C127.05,52,125.18,47.5,122.13,47.5ZM58.57,83.05H52.43a1.93,1.93,0,0,1-1.93-1.92V63.87a1.93,1.93,0,0,1,1.93-1.92h6.15a1.93,1.93,0,0,1,1.93,1.92V81.13A1.93,1.93,0,0,1,58.57,83.05ZM76,90.5c0-5.9-.87-8.3-3.6-9.86-2-1.15-5.38-1.47-8.9-1.58v-13C76.29,66.33,89,67.44,89,90.5c0,6.88,1,11,3.19,13.08a6.21,6.21,0,0,0,4.9,1.5c-1.32,1.83-4.26,6-6.85,10.46l-.59.89C82.71,113.84,76,108.37,76,90.5Zm22.5,55.33c-7.72,0-14-5.34-14-11.91,0-2.87,3-8.4,6.43-13.9l.21.07.6-1.09c.29-.53.59-1.07.9-1.6,2.32-3.5,4.7-6.8,6.48-9.18.77,1.12,1.67,2.45,2.61,3.9,1.27,2.12,2.65,4.55,3.84,6.93l.58,1.17.48-.16c3.18,5.48,5.86,11,5.86,13.87C112.5,140.48,106.22,145.83,98.5,145.83ZM120,89.5c0,12.87-2,17.37-6.43,22.59a16,16,0,0,1-5.62,4.24c-1.3-2.16-2.6-4.2-3.75-6-1.34-2.23-2.54-4.09-3.26-5.18a4.51,4.51,0,0,0,3.08-1.07c2.09-1.85,3-6.23,3-14.63V66h13Zm4.05-28.93a1.93,1.93,0,0,1-1.92,1.93H104.87a1.93,1.93,0,0,1-1.92-1.93V54.43c0-1.6,1.35-3.93,1.92-3.93h17.25c.57,0,1.92,2.32,1.92,3.93Zm-15.26,73.8a.5.5,0,1,1,1,.28c-1.35,4.6-6.13,7.67-11.34,7.67a13.31,13.31,0,0,1-2.86-.31.5.5,0,1,1,.21-1C101.5,142.3,107.34,139.31,108.79,134.37ZM92,184a92,92,0,1,1,92-92A92.1,92.1,0,0,1,92,184ZM92,4a88,88,0,1,0,88,88A88.1,88.1,0,0,0,92,4Z"/></g></g></svg>