<svg xmlns="http://www.w3.org/2000/svg" viewBox="0 0 952.8 192.7"><defs><style>.cls-1{fill:#9e9e9e;}</style></defs><title>icon_partners_ecobee</title><g id="Layer_2" data-name="Layer 2"><g id="Logomark"><path class="cls-1" d="M302.7,139.4c14.7,0,25-6,33.7-15.1l9.9,8.9c-10.7,12-23.7,20-44,20-29.3,0-53.3-22.5-53.3-55.8,0-31,21.7-55.8,51.2-55.8,31.6,0,49.8,25.2,49.8,56.6,0,1.4,0,3.1-.2,5.6H265.1C267.3,126.4,283.9,139.4,302.7,139.4Zm31.1-48.3c-1.9-19.4-13-35.9-34.1-35.9-18.4,0-32.4,15.3-34.7,35.9Z"/><path class="cls-1" d="M366.7,97.9v-.4c0-30.2,23.5-55.8,54.7-55.8,20.2,0,32.8,8.5,42.7,19L453.6,71.9c-8.5-8.9-18-16.1-32.4-16.1-21.7,0-38.2,18.4-38.2,41.3v.4c0,23.1,16.9,41.5,39.2,41.5,13.6,0,24.2-6.8,32.6-15.9l10.1,9.5c-10.7,12-23.5,20.6-43.5,20.6C390.2,153.2,366.7,127.8,366.7,97.9Z"/><path class="cls-1" d="M477.5,97.9v-.4c0-30.2,23.5-55.8,55.8-55.8,32,0,55.6,25.2,55.6,55.3v.4a55.42,55.42,0,0,1-56,55.8C500.8,153.2,477.5,128.1,477.5,97.9Zm95,0v-.4c0-22.9-17.1-41.7-39.6-41.7-23.1,0-39,18.8-39,41.3v.4c0,22.9,16.9,41.5,39.4,41.5C556.4,139,572.5,120.4,572.5,97.9Z"/><path class="cls-1" d="M624.1,130.3v20.4H608.2V0h15.9V65.5c8.7-12.8,21.3-23.7,40.9-23.7,25.6,0,51,20.2,51,55.3v.4c0,34.9-25.2,55.6-51,55.6C645.2,153,632.4,142.3,624.1,130.3Zm75.6-32.6v-.4c0-25.2-17.3-41.3-37.6-41.3-19.8,0-38.6,16.7-38.6,41.1v.4c0,24.8,18.8,41.3,38.6,41.3C682.7,138.8,699.7,123.5,699.7,97.7Z"/><path class="cls-1" d="M787.8,139.4c14.7,0,25-6,33.7-15.1l9.9,8.9c-10.7,12-23.7,20-44,20-29.3,0-53.3-22.5-53.3-55.8,0-31,21.7-55.8,51.2-55.8,31.6,0,49.8,25.2,49.8,56.6,0,1.4,0,3.1-.2,5.6H750.2C752.4,126.4,769,139.4,787.8,139.4Zm31.1-48.3c-1.9-19.4-13-35.9-34.1-35.9-18.4,0-32.4,15.3-34.7,35.9Z"/><path class="cls-1" d="M905.5,139.4c14.7,0,25-6,33.7-15.1l9.9,8.9c-10.7,12-23.7,20-44,20-29.3,0-53.3-22.5-53.3-55.8,0-31,21.7-55.8,51.2-55.8,31.6,0,49.8,25.2,49.8,56.6,0,1.4,0,3.1-.2,5.6H867.9C870.2,126.4,886.7,139.4,905.5,139.4Zm31.2-48.3c-1.9-19.4-13-35.9-34.1-35.9-18.4,0-32.4,15.3-34.7,35.9Z"/><path class="cls-1" d="M76.4,180.8a33.7,33.7,0,0,1-17-5.8L55,181.5l4.4-6.5a32.68,32.68,0,0,1-11.7-13.7c-1.4-2.1-1.7,0-1.7,0-4.8,18.5,3.4,26.6,4.1,27.2h0v.1h0c.8.4,11.3,5.1,26.8-6.1C77,182.4,78.9,181.3,76.4,180.8ZM114.9,160s-17.1.7-36.7-12.6S53,117.8,53,117.8c-.4-1.3-.9-.5-.9-.5-5.3,7.7-6.9,12.2-3.9,24.5,2.9,11.9,17.2,22,18.2,22.7h0c1,.7,15.7,10.3,27.8,8.6,12.5-1.8,16.1-4.8,21.4-12.6C115.7,160.6,116.3,159.9,114.9,160Zm86.4-26.9c-3.2-26.7-17.5-48-23.1-54.1,0,0-.5-.2-.1-1.3s1.4-4.3,1.4-4.3,0-.3.6-.5a21.6,21.6,0,0,0,12.4-9.1c5.1-7.5,8.5-23.2-9.1-35.2,0,0-.1-.1-.2-.8s-3-13.6-10.7-18.8h0c-7.8-5.3-20.7-3.2-21.4-3s-.9.1-.9.1C132.7-5.8,119.3,3,114.1,10.5a21.81,21.81,0,0,0-3.9,14.9c0,.7-.3.8-.3.8s-2.6,2.1-3.5,2.9-1.2.4-1.2.4c-7.7-2.9-32.8-8.4-58.8-1.6S10.1,44.3,4.5,52.7-4.4,77.8,13.4,90s43.2,11,43.2,11c.8-.1.9.5.9.5,6.2,21.9,26.6,34.7,28,35.6s20.8,15.3,43.4,13a.73.73,0,0,1,.8.6s8.2,24,26.1,36.1,32.3,3,38-5.3C199.3,172.8,204.5,159.7,201.3,133.1ZM179.4,40.6a11.66,11.66,0,1,1-16.2,3.1A11.71,11.71,0,0,1,179.4,40.6ZM140.6,14.2a11.66,11.66,0,1,1-16.2,3.1A11.71,11.71,0,0,1,140.6,14.2ZM17.2,67.7s-3.7-21,43-27.8c51.3-7.5,53.7,17.5,53.7,17.5s3.6,19-40.5,27.4S15.7,70,17.2,67.7Zm83.9,46.4h0c-.1-.1-.2-.1-.2-.2h-.1C88,105.4,83.4,97.7,83.4,97.7c10.9-1.6,23.7-8.3,23.7-8.3l7.1,5h0l.1.1h.1l7.2,4.8s-1.6,14.4.9,25.1C122.5,124.4,113.7,122.9,101.1,114.1Zm73.5,60.4c-1.6,2.3-27.9-1.8-36.2-45.6S149,81.5,149,81.5s23.9-6.9,35.6,43.2C195.3,170.3,174.6,174.5,174.6,174.5Z"/></g></g></svg>