<svg xmlns="http://www.w3.org/2000/svg" viewBox="0 0 44.89 32.12"><defs><style>.cls-1{fill:#969696;}.cls-2{fill:#00a1ae;}.cls-3{fill:#fff;}</style></defs><title>icon_cart</title><g id="Layer_2" data-name="Layer 2"><g id="Layer_1-2" data-name="Layer 1"><path class="cls-1" d="M34.14,10.47a.75.75,0,0,0-.92.51L30,21.46a3.4,3.4,0,0,1-3,2.1H11.4l-4-12.73-.67-2.1A3.77,3.77,0,0,0,5.56,7a3.48,3.48,0,0,0-2.21-.67H.75a.75.75,0,1,0,0,1.5H3.34a2.06,2.06,0,0,1,1.28.34,1.89,1.89,0,0,1,.6.86s4.65,14.7,4.65,14.7c.28.93.67,1.36,1.31,1.36H27a4.67,4.67,0,0,0,4.46-3.15l3.23-10.53A.76.76,0,0,0,34.14,10.47Z"/><path class="cls-1" d="M12.83,26.87a2.62,2.62,0,1,0,2.62,2.62A2.66,2.66,0,0,0,12.83,26.87Zm0,3.75a1.12,1.12,0,1,1,1.12-1.12A1.1,1.1,0,0,1,12.83,30.62Z"/><path class="cls-1" d="M27.75,26.87a2.62,2.62,0,1,0,2.62,2.62A2.66,2.66,0,0,0,27.75,26.87Zm0,3.75a1.12,1.12,0,1,1,1.12-1.12A1.1,1.1,0,0,1,27.75,30.62Z"/><circle id="Circle_cart_count_copy" data-name="Circle cart count copy" class="cls-2" cx="36.39" cy="8.5" r="8.5"/><path id="_1_copy" data-name=" 1 copy" class="cls-3" d="M37.68,4.22h-.19L34.17,5.45v1.2l2.09-.71v6.85h1.42V4.22Z"/></g></g></svg>