<svg xmlns="http://www.w3.org/2000/svg" viewBox="0 0 184 184"><defs><style>.cls-1{fill:#00a0ad;}</style></defs><title>icon_lamp</title><g id="Layer_2" data-name="Layer 2"><g id="круги"><path class="cls-1" d="M92.58,45a4.17,4.17,0,0,0-.66,0,34.46,34.46,0,0,0-33.7,34.29c0,10.67,7.74,20.56,11.9,25.88.66.85,1.25,1.59,1.7,2.21,2.88,3.94,1.92,11.16,1.91,11.24l0,.23a4.68,4.68,0,0,0,1.66,3.56v10.8a15.48,15.48,0,0,0,6.27,12.43v0h0a15.4,15.4,0,0,0,9.21,3.06h2.74a15.52,15.52,0,0,0,15.51-15.51v-10.8a4.68,4.68,0,0,0,1.66-3.56l0-.23c-.28-2-.49-7.95,1.91-11.23.45-.62,1-1.37,1.7-2.21,4.16-5.32,11.9-15.21,11.9-25.88A34.46,34.46,0,0,0,92.58,45ZM80,138.79l25.76-10.3v4.74a12.18,12.18,0,0,1-.22,2.29l-21.25,8A12.26,12.26,0,0,1,80,138.79Zm25.76-11.49L79.59,137.78a12.11,12.11,0,0,1-.89-4.56v-2.06l19-7.41h8.1Zm-11.15-3.54-16,6.22v-6.22Zm-1,21.66H90.88a12.09,12.09,0,0,1-5.28-1.22l19.66-7.37A12.21,12.21,0,0,1,93.62,145.41Zm18.15-42.27c-.69.88-1.29,1.66-1.77,2.3-3.46,4.74-2.68,12.33-2.54,13.51a1.39,1.39,0,0,1-1.39,1.3h-13v-26A.54.54,0,0,0,93,94l6.77-5.42a.55.55,0,1,0-.69-.86L92.53,93,86,87.73a.55.55,0,0,0-.69.86L92,94a.54.54,0,0,0-.06.24v26H78.42A1.39,1.39,0,0,1,77,119c.15-1.18.92-8.77-2.54-13.51-.47-.65-1.08-1.42-1.77-2.3-4.19-5.35-11.19-14.31-11.19-23.83A31.12,31.12,0,0,1,92,48.33h.5a31.12,31.12,0,0,1,30.46,31C123,88.83,116,97.79,111.77,103.14Zm3.91-26.45a.55.55,0,0,1-.55.56h0a.55.55,0,0,1-.55-.55A20.08,20.08,0,0,0,94.2,56.93a.53.53,0,0,1-.56-.55.55.55,0,0,1,.55-.56h.31A21.21,21.21,0,0,1,115.68,76.69ZM92,184a92,92,0,1,1,92-92A92.1,92.1,0,0,1,92,184ZM92,4a88,88,0,1,0,88,88A88.1,88.1,0,0,0,92,4Z"/></g></g></svg>