<svg xmlns="http://www.w3.org/2000/svg" viewBox="0 0 184 184"><defs><style>.cls-1{fill:#00a0ad;}</style></defs><title>icon_lock</title><g id="Layer_2" data-name="Layer 2"><g id="круги"><path class="cls-1" d="M119.37,84.77V70.1c0-15.77-11.05-28.6-24.64-28.6H89.27c-13.58,0-24.64,12.83-24.64,28.6V84.77a7.21,7.21,0,0,0-3.13,5.94v40.06A7.23,7.23,0,0,0,68.72,138h46.56a7.23,7.23,0,0,0,7.22-7.22V90.72A7.21,7.21,0,0,0,119.37,84.77ZM67.63,70.1c0-14.12,9.71-25.6,21.64-25.6h5.46c11.93,0,21.64,11.49,21.64,25.6V83.39h-42V70.31c0-10.2,7-18.49,15.71-18.49h3.83c8.66,0,15.71,8.29,15.71,18.49V79.5h1V70.31c0-10.75-7.5-19.49-16.71-19.49H90.08c-9.21,0-16.71,8.74-16.71,19.49V83.39H67.63Zm51.87,60.68a4.22,4.22,0,0,1-4.22,4.22H68.72a4.22,4.22,0,0,1-4.22-4.22V90.72a4.22,4.22,0,0,1,4.22-4.22h46.56a4.22,4.22,0,0,1,4.22,4.22ZM95.59,111.09v-8.32A1.78,1.78,0,0,0,93.82,101H90.18a1.78,1.78,0,0,0-1.77,1.77v8.32a6.48,6.48,0,1,0,7.18,0ZM92,122a5.48,5.48,0,0,1-2.83-10.17l.24-.15v-8.87a.77.77,0,0,1,.77-.77h3.63a.77.77,0,0,1,.77.77v8.88l.24.15A5.48,5.48,0,0,1,92,122Zm0,62a92,92,0,1,1,92-92A92.1,92.1,0,0,1,92,184ZM92,4a88,88,0,1,0,88,88A88.1,88.1,0,0,0,92,4Z"/></g></g></svg>