<svg xmlns="http://www.w3.org/2000/svg" viewBox="0 0 164.63 164.63"><defs><style>.cls-1{fill:#8b8b8b;}</style></defs><title>icon_economy</title><g id="Layer_2" data-name="Layer 2"><g id="Layer_1-2" data-name="Layer 1"><path class="cls-1" d="M82.31,164.63a82.31,82.31,0,1,1,82.31-82.31A82.41,82.41,0,0,1,82.31,164.63ZM82.31,1a81.31,81.31,0,1,0,81.31,81.31A81.41,81.41,0,0,0,82.31,1Zm17,70.4a1.25,1.25,0,0,0,.39-1.72c-4-6.26-16.87-9.86-24.25-6.76a1.25,1.25,0,0,0,1,2.31c6.21-2.61,17.89.59,21.17,5.79a1.25,1.25,0,0,0,1.72.39ZM51,71.53m54.29,50.28H95.93a2.25,2.25,0,0,1-2.24-2c-.31-1.13-1.38-5-1.77-6.5a44.83,44.83,0,0,1-19.87.56c-.34,1.28-1.06,4-1.55,5.93a2.25,2.25,0,0,1-2.24,2.06H58.93a2.25,2.25,0,0,1-2.25-2.25v-.31l.14-.27c1.47-2.8,3.69-7.08,4.57-8.83a32.75,32.75,0,0,1-14-13.86.63.63,0,0,0-.13-.19l-5.92,0a2.25,2.25,0,0,1-2.25-2.25v-14a2.25,2.25,0,0,1,2.25-2.25l4.85.07a32.22,32.22,0,0,1,4.29-7.84l2,1.51a29.81,29.81,0,0,0-4,7.31l0,.11a1.78,1.78,0,0,1-2,1.41l-4.91-.07V93.63h5.65a2.49,2.49,0,0,1,2.34,1.46,30.35,30.35,0,0,0,13.61,13.16,1.68,1.68,0,0,1,.94,2c-.11.34-1.67,3.4-4.64,9.08H68l0-.06c.39-1.52,1.69-6.51,1.83-6.92A1.75,1.75,0,0,1,72,111.27a42.14,42.14,0,0,0,8.73.91,41.62,41.62,0,0,0,11.17-1.51l.1,0a1.92,1.92,0,0,1,1.39.29,2,2,0,0,1,.81,1.29c.09.48,1.21,4.55,1.89,7l0,.08h8.61l-4.25-9.23a2.63,2.63,0,0,1-.39-2,2.43,2.43,0,0,1,1.25-1.49c8.24-5.09,12.92-12.65,12.92-20.8,0-10.44-7.78-19.85-19.87-24.1a13.52,13.52,0,0,1-14.75-2.26A39.2,39.2,0,0,0,60.4,64.85l-1.29-2.14a41.8,41.8,0,0,1,21-5.79h.52l.37.36a11,11,0,0,0,12.74,2l.47-.24.5.17c13.4,4.52,22.06,15,22.06,26.64,0,9-5.12,17.37-14,22.89l-.11.07h0l.05.09.07.13,4.68,10.18a2,2,0,0,1-.16,1.87A2.29,2.29,0,0,1,105.26,121.81ZM71.44,113.7h0ZM54.36,81.37a1.25,1.25,0,0,0,.6-1.66c-2.84-6.08-2.31-12.8-1.57-16.82,6.35.46,11.88,5,14.16,8.18a1.25,1.25,0,1,0,2-1.47c-2.69-3.72-9.5-9.25-17.2-9.25h-1l-.21,1c-.88,4.13-1.86,12.14,1.55,19.43a1.25,1.25,0,0,0,1.66.6Zm4.5-27.61C64.62,55.33,69,58.31,70,59.9l2.16-1.26c-1.66-2.83-7.71-6.16-13.77-7.58l-1-.23-.43.93a37.3,37.3,0,0,0-1.87,9.94l2.5.12A41.57,41.57,0,0,1,58.86,53.76Zm60.37,32.55a8.28,8.28,0,0,1-4.34-1.21,1.25,1.25,0,0,1,1.3-2.13,6.34,6.34,0,0,0,6.73-.25c-2.65-1.41-4.53-3.85-4.62-6.11a6.44,6.44,0,0,1,5.31-6.78c2.06-.26,4.77.75,5.6,4.47a9.34,9.34,0,0,1-1.43,7.14h0c1.95,0,4.43-.73,7.12-3.3a1.25,1.25,0,1,1,1.73,1.81c-3.35,3.21-7.23,4.53-10.88,3.8-.26.23-.54.45-.83.65A9.81,9.81,0,0,1,119.23,86.31Zm5-14-.34,0a3.92,3.92,0,0,0-3.13,4.21c0,1.32,1.62,3.36,4.06,4.35l.17.07a7.05,7.05,0,0,0,1.74-6.1C126.41,73.2,125.51,72.29,124.28,72.29ZM88.76,62.84a13.57,13.57,0,1,1,13.57-13.57A13.58,13.58,0,0,1,88.76,62.84Zm0-24.63A11.07,11.07,0,1,0,99.83,49.27,11.08,11.08,0,0,0,88.76,38.21ZM59,120.14,56.82,119c1.59-3,4.62-8.82,4.91-9.41l-.29-.78,1.69-.56a1.81,1.81,0,0,1,.85,2.43C63.7,111.25,59.23,119.78,59,120.14Zm2.7-10.57a.71.71,0,0,0,.29.89l0,0Z"/></g></g></svg>