<svg xmlns="http://www.w3.org/2000/svg" viewBox="0 0 184 184"><defs><style>.cls-1{fill:#00a0ad;}</style></defs><title>icon_plug</title><g id="Layer_2" data-name="Layer 2"><g id="круги"><path class="cls-1" d="M124.25,73H117.5V51.5a4,4,0,0,0-8,0V73H78V51a4,4,0,0,0-8,0V73H62.25a5.5,5.5,0,0,0,0,11h1.48v19A27,27,0,0,0,86,129.58V146h2V129.86a27.19,27.19,0,0,0,2.73.14h5a27.11,27.11,0,0,0,3.23-.2V146h2V129.49A27,27,0,0,0,122.77,103V84h1.48a5.5,5.5,0,0,0,0-11ZM110.5,51.5a3,3,0,0,1,6,0V73h-6ZM71,51a3,3,0,0,1,6,0V73H71Zm48.77,52a24,24,0,0,1-24,24h-5a24,24,0,0,1-24-24V84h53Zm4.48-22h-62a2.5,2.5,0,0,1,0-5h62a2.5,2.5,0,0,1,0,5Zm-33,40.08a.5.5,0,0,1,.59-.39,19.32,19.32,0,0,0,22.82-15c.81-5.59-.17-17.48-.18-17.6a.5.5,0,0,1,1-.08c0,.49,1,12.12.16,17.86a20.31,20.31,0,0,1-24,15.85A.5.5,0,0,1,91.27,121.08ZM92,184a92,92,0,1,1,92-92A92.1,92.1,0,0,1,92,184ZM92,4a88,88,0,1,0,88,88A88.1,88.1,0,0,0,92,4Z"/></g></g></svg>