<svg xmlns="http://www.w3.org/2000/svg" viewBox="0 0 61 96.5"><defs><style>.cls-1,.cls-2{fill:none;stroke:#fff;stroke-miterlimit:10;}.cls-1{stroke-width:3px;}</style></defs><title>icon_secure</title><g id="Layer_2" data-name="Layer 2"><g id="Layer_1-2" data-name="Layer 1"><rect class="cls-1" x="1.5" y="43.5" width="58" height="51.5" rx="5.72" ry="5.72"/><path class="cls-1" d="M56.37,43.39V28.6C56.37,13.7,46,1.5,33.23,1.5H27.77C15,1.5,4.63,13.7,4.63,28.6V43.39Z"/><path class="cls-2" d="M12.38,44.07V28.81c0-10.44,7.29-19,16.21-19h3.83c8.92,0,16.21,8.55,16.21,19V38"/></g><g id="Layer_6" data-name="Layer 6"><path class="cls-2" d="M33.59,69.87V61.27A1.28,1.28,0,0,0,32.32,60H28.68a1.28,1.28,0,0,0-1.27,1.27v8.59a6,6,0,1,0,6.18,0Z"/></g></g></svg>