<svg xmlns="http://www.w3.org/2000/svg" viewBox="0 0 184 184"><defs><style>.cls-1{fill:#00a0ad;}</style></defs><title>icon_garage</title><g id="Layer_2" data-name="Layer 2"><g id="круги"><path class="cls-1" d="M92,184a92,92,0,1,1,92-92A92.1,92.1,0,0,1,92,184ZM92,4a88,88,0,1,0,88,88A88.1,88.1,0,0,0,92,4Zm36.26,70.08-.06,0c-10.44-5.31-34.75-17.66-35-17.76a2.23,2.23,0,0,0-2.08,0L57,74.08a4,4,0,0,0-2,3.41v54a4,4,0,0,0,4,4h67.27a4,4,0,0,0,4-4v-54A4,4,0,0,0,128.26,74.08ZM69.1,124.48h47.35V132a.76.76,0,0,1-.75.75H69.85a.76.76,0,0,1-.75-.75Zm47.35-1H69.1v-9h47.35Zm0-10H69.1v-8.07h47.35ZM69.1,104.42V96.35h47.35v8.07Zm47.35-9.07H69.1V87a.76.76,0,0,1,.75-.75H115.7a.76.76,0,0,1,.75.75Zm11.27,36.17a1.46,1.46,0,0,1-1.46,1.46h-7.48a3.21,3.21,0,0,0,.17-1V87a3.25,3.25,0,0,0-3.25-3.25H69.85A3.25,3.25,0,0,0,66.6,87v45a3.21,3.21,0,0,0,.17,1H59a1.46,1.46,0,0,1-1.46-1.46v-54a1.42,1.42,0,0,1,.68-1.22l34-17.69L127,76.25a1.44,1.44,0,0,1,.7,1.24Zm19-57.33c-8.86-4.5-53.08-27-53.44-27.13a2.72,2.72,0,0,0-2.6,0L38.57,74.2a1.25,1.25,0,0,0,1.15,2.22L91.8,49.32c.17-.09.17-.09.4,0,.84.41,52.83,26.82,53.36,27.09a1.25,1.25,0,1,0,1.13-2.23Z"/></g></g></svg>