<?xml version="1.0" encoding="utf-8"?>
<!-- Generator: Adobe Illustrator 21.0.2, SVG Export Plug-In . SVG Version: 6.00 Build 0)  -->
<svg version="1.1" xmlns="http://www.w3.org/2000/svg" xmlns:xlink="http://www.w3.org/1999/xlink" x="0px" y="0px"
	 viewBox="0 0 61 96.5" style="enable-background:new 0 0 61 96.5;" xml:space="preserve">
<style type="text/css">
	.st0{fill:#FFFFFF;}
</style>
<g id="Layer_3">
</g>
<g id="Layer_1">
</g>
<g id="Layer_6">
	<path class="st0" d="M57.9,43.3V28.6C57.9,12.8,46.8,0,33.2,0h-5.5C14.2,0,3.1,12.8,3.1,28.6v14.7C1.2,44.6,0,46.8,0,49.2v40.1
		c0,4,3.2,7.2,7.2,7.2h46.6c4,0,7.2-3.2,7.2-7.2V49.2C61,46.8,59.8,44.6,57.9,43.3z M6.1,28.6C6.1,14.5,15.8,3,27.8,3h5.5
		c11.9,0,21.6,11.5,21.6,25.6v13.3h-42V28.8c0-10.2,7-18.5,15.7-18.5h3.8c8.7,0,15.7,8.3,15.7,18.5V38h1v-9.2
		c0-10.7-7.5-19.5-16.7-19.5h-3.8c-9.2,0-16.7,8.7-16.7,19.5v13.1H6.1V28.6z M58,89.3c0,2.3-1.9,4.2-4.2,4.2H7.2
		c-2.3,0-4.2-1.9-4.2-4.2V49.2C3,46.9,4.9,45,7.2,45h46.6c2.3,0,4.2,1.9,4.2,4.2V89.3z M30.5,81.5c-3.6,0-6.5-2.9-6.5-6.5
		c0-2.2,1.1-4.2,2.9-5.4v-8.3c0-1,0.8-1.8,1.8-1.8h3.6c1,0,1.8,0.8,1.8,1.8v8.3c1.8,1.2,2.9,3.2,2.9,5.4
		C37,78.6,34.1,81.5,30.5,81.5z M28.7,60.5c-0.4,0-0.8,0.3-0.8,0.8v8.9l-0.2,0.1C26,71.3,25,73.1,25,75c0,3,2.5,5.5,5.5,5.5
		S36,78,36,75c0-1.9-1-3.7-2.7-4.7l-0.2-0.1v-8.9c0-0.4-0.3-0.8-0.8-0.8H28.7z"/>
</g>
</svg>
