<svg xmlns="http://www.w3.org/2000/svg" viewBox="0 0 56 25.25"><defs><style>.cls-1{fill:#fff;}</style></defs><title>icon_wireless</title><g id="Layer_2" data-name="Layer 2"><g id="Layer_1-2" data-name="Layer 1"><path class="cls-1" d="M55,12.55l1-1a39.71,39.71,0,0,0-56,0l1,1A38.2,38.2,0,0,1,55,12.55Z"/><path class="cls-1" d="M45.7,17.85a25,25,0,0,0-35.4,0l1,1a23.66,23.66,0,0,1,33.4,0Z"/><path class="cls-1" d="M20.7,24.15l1,1.1a9.54,9.54,0,0,1,6.4-2.7,8.69,8.69,0,0,1,6.4,2.7l1-1a10.29,10.29,0,0,0-14.6-.1Z"/></g></g></svg>