<svg xmlns="http://www.w3.org/2000/svg" viewBox="0 0 184 184"><defs><style>.cls-1{fill:#00a0ad;}</style></defs><title>icon_temperature</title><g id="Layer_2" data-name="Layer 2"><g id="круги"><path class="cls-1" d="M106.3,100.79V58.47a8.81,8.81,0,0,0-8.8-8.8H94.3a8.81,8.81,0,0,0-8.8,8.8v42.33a20.83,20.83,0,1,0,20.8,0ZM95.9,136.67A17.83,17.83,0,0,1,87.69,103l.81-.42V58.47a5.81,5.81,0,0,1,5.8-5.8h3.2a5.81,5.81,0,0,1,5.8,5.8v44.13l.81.42a17.83,17.83,0,0,1-8.21,33.65ZM97,110,96.7,62.5h-1L96,110a9,9,0,1,0,1,0Zm-.8,17a8,8,0,1,1,8-8A8,8,0,0,1,96.2,127ZM80,63H51V62H80ZM64,70V69H80v1Zm16,7H51V76H80ZM64,84V83H80v1Zm16,8H51V91H80Zm12,92a92,92,0,1,1,92-92A92.1,92.1,0,0,1,92,184ZM92,4a88,88,0,1,0,88,88A88.1,88.1,0,0,0,92,4Z"/></g></g></svg>