<svg xmlns="http://www.w3.org/2000/svg" viewBox="0 0 164.63 164.63"><defs><style>.cls-1{fill:#8b8b8b;}</style></defs><title>icon_security</title><g id="Layer_2" data-name="Layer 2"><g id="Layer_1-2" data-name="Layer 1"><path class="cls-1" d="M82.31,164.63a82.31,82.31,0,1,1,82.31-82.31A82.41,82.41,0,0,1,82.31,164.63ZM82.31,1a81.31,81.31,0,1,0,81.31,81.31A81.41,81.41,0,0,0,82.31,1Zm23.6,56.26A1.25,1.25,0,1,0,107,55c-9.94-5-33.08-16.8-33.3-16.9a2.17,2.17,0,0,0-2,0L39.29,55l1.15,2.22L72.77,40.43Zm23.43,29.09a1.25,1.25,0,0,0-.9-.44,10.15,10.15,0,0,1-9.73-10.05,1.25,1.25,0,0,0-1.25-1.24l-13.56,0h-3.3V61A3.23,3.23,0,0,0,99,58.19L73.73,45.39a2,2,0,0,0-1.81,0l-24.6,12.8A3.21,3.21,0,0,0,45.73,61V99.92a3.21,3.21,0,0,0,3.2,3.2h33c3.57,9.49,10,18.85,21.45,24.69a1.25,1.25,0,0,0,1.14,0c9.94-5.07,22.38-16.22,25.16-40.51A1.25,1.25,0,0,0,129.34,86.35Zm-47,10a67.57,67.57,0,0,1-1.54-8A12.63,12.63,0,0,0,91.54,77.12l11.12,0v19H82.37Zm-3.89-9.88a1.26,1.26,0,0,0-.29,1v.08h-14a.71.71,0,0,1-.7-.7V69.64a.71.71,0,0,1,.7-.7H81.31a.71.71,0,0,1,.7.7V85.52a10.21,10.21,0,0,1-2.64.47A1.26,1.26,0,0,0,78.48,86.43ZM48.93,100.62a.7.7,0,0,1-.7-.7V61a.68.68,0,0,1,.3-.57L72.87,47.75,97.76,60.38a.69.69,0,0,1,.35.6V74.61H90.35a1.25,1.25,0,0,0-1.25,1.25,10.12,10.12,0,0,1-4.58,8.46V69.64a3.21,3.21,0,0,0-3.2-3.2H64.19a3.21,3.21,0,0,0-3.2,3.2V86.76a3.21,3.21,0,0,0,3.2,3.2H78.53A66.83,66.83,0,0,0,81,100.62H48.93ZM83,98.56h19.66v26C91.62,118.27,85.9,108.25,83,98.56Zm22.16,26v-26h19.66C121.92,108.25,116.19,118.27,105.16,124.6Zm20.35-28.54H105.16v-19l11.13,0A12.66,12.66,0,0,0,127,88.28,67.84,67.84,0,0,1,125.51,96.06Z"/></g></g></svg>