<svg xmlns="http://www.w3.org/2000/svg" viewBox="0 0 184 184"><defs><style>.cls-1{fill:#00a0ad;}</style></defs><title>icon_smarthub</title><g id="Layer_2" data-name="Layer 2"><g id="Layer_1-2" data-name="Layer 1"><g id="Layer_2-2" data-name="Layer 2"><g id="Layer_1-2-2" data-name="Layer 1-2"><g id="Layer_3" data-name="Layer 3"><path class="cls-1" d="M92,184a92,92,0,1,1,92-92A92,92,0,0,1,92,184ZM92,4a88,88,0,1,0,88,88A88,88,0,0,0,92,4Zm37.6,99.5H123v-36a6.5,6.5,0,0,0-13,0v36H55.4c-6.1,0-10.9,3-10.9,6.8v15.3c0,3.8,4.8,6.8,10.9,6.8h74.1c6.1,0,10.9-3,10.9-6.8V110.3C140.5,106.5,135.7,103.5,129.6,103.5ZM113,67.5a3.5,3.5,0,0,1,7,0v36h-7Zm24.5,58.1c0,1.8-3.4,3.8-7.9,3.8H55.5c-4.5,0-7.9-2-7.9-3.8V110.3c0-1.8,3.4-3.8,7.9-3.8h74.1c4.5,0,7.9,2,7.9,3.8ZM98.5,84a.6.6,0,0,0,.4-.1.48.48,0,0,0,0-.68l0,0a23.66,23.66,0,0,1,0-33.4.49.49,0,0,0-.7-.7h0a24.75,24.75,0,0,0,0,34.9Zm34.6-.1c.1.1.2.1.4.1s.3,0,.4-.1a24.75,24.75,0,0,0,0-34.9.49.49,0,0,0-.7.7h0a23.66,23.66,0,0,1,0,33.4C132.9,83.4,132.9,83.7,133.1,83.9Zm-5-10.2c.1.1.2.1.4.1s.3,0,.4-.1a11.83,11.83,0,0,0,0-16.6.49.49,0,0,0-.7.7,10.66,10.66,0,0,1,3.1,7.6,10.83,10.83,0,0,1-3.1,7.6.43.43,0,0,0-.1.7Zm-24.4.2a.6.6,0,0,0,.4-.1.48.48,0,0,0,0-.68l0,0a10.62,10.62,0,0,1-.08-15l.08-.08a.49.49,0,0,0-.7-.7h0a11.71,11.71,0,0,0,0,16.56l0,0C103.5,73.8,103.6,73.9,103.7,73.9ZM63.6,115a4,4,0,0,0-1.3,7.9h.6a4.15,4.15,0,0,0,4-3.4,3.93,3.93,0,0,0-3.27-4.5Zm2.4,4.5a3,3,0,0,1-5.9-.9,2.93,2.93,0,0,1,3-2.5h.5A3,3,0,0,1,66,119.5Zm9.6-3.7a4,4,0,0,0-.7,5.6,4.18,4.18,0,0,0,3.2,1.6,4,4,0,1,0-2.5-7.2Zm4.2,5.6a3,3,0,1,1,.4-4.22l.1.12a2.81,2.81,0,0,1-.32,4Z"/></g></g></g></g></g></svg>