<svg xmlns="http://www.w3.org/2000/svg" viewBox="0 0 184 184"><defs><style>.cls-1{fill:#00a0ad;}</style></defs><title>icon_camera</title><g id="Layer_2" data-name="Layer 2"><g id="круги"><path class="cls-1" d="M141,105.5a1.5,1.5,0,0,0-1.5,1.5v19.75h-20c-2.87,0-4.7-.51-5.78-1.59-1.58-1.59-1.54-4.63-1.49-8.46,0-.7,0-1.44,0-2.19V100.71a9,9,0,0,0,6.1-12l17.74-9.16h0a6.2,6.2,0,0,0,2.77-8.31l-11.6-22.46a6,6,0,0,0-3.64-3,6.33,6.33,0,0,0-4.74.45L52.77,80.34a6.32,6.32,0,0,0-3.11,3.6A6,6,0,0,0,50,88.65l.56,1.08L38.92,89a5.31,5.31,0,0,0-5.11,7.65l10.92,22.15a5.26,5.26,0,0,0,4.41,2.95h.56a5.24,5.24,0,0,0,4.21-2.36l6.74-10.08.95,1.84a6,6,0,0,0,3.64,3,6.3,6.3,0,0,0,1.81.27,6.38,6.38,0,0,0,2.93-.72l32.49-16.77A9,9,0,0,0,110,101c.24,0,.49,0,.73,0V114.5c0,.75,0,1.48,0,2.18-.05,4.19-.09,7.5,1.92,9.54,1.37,1.39,3.55,2,6.84,2h20V139a1.5,1.5,0,0,0,3,0V107A1.5,1.5,0,0,0,141,105.5ZM51.42,117.69a2.27,2.27,0,0,1-1.82,1h-.25a2.26,2.26,0,0,1-1.92-1.28L36.5,95.28A2.31,2.31,0,0,1,38.72,92l13.44.88,6.92,13.39ZM68.6,111a3.34,3.34,0,0,1-2.5.24,3,3,0,0,1-1.84-1.5L52.66,87.27a3,3,0,0,1-.16-2.37A3.34,3.34,0,0,1,54.15,83l66.12-34.14a3.39,3.39,0,0,1,1.56-.38,3.29,3.29,0,0,1,.95.14,3,3,0,0,1,1.84,1.5l11.6,22.46a3.2,3.2,0,0,1-1.49,4.27Zm34.75-14.56,14.11-7.29a8,8,0,0,1-14.11,7.29ZM92,184a92,92,0,1,1,92-92A92.1,92.1,0,0,1,92,184ZM92,4a88,88,0,1,0,88,88A88.1,88.1,0,0,0,92,4Z"/></g></g></svg>