<svg xmlns="http://www.w3.org/2000/svg" viewBox="0 0 184 184"><defs><style>.cls-1{fill:#00a0ad;}</style></defs><title>icon_sensor</title><g id="Layer_2" data-name="Layer 2"><g id="круги"><path class="cls-1" d="M120.84,90.55a28.09,28.09,0,0,1-4.37,15.08.56.56,0,1,1-.94-.6,27.06,27.06,0,1,0-45.72,0,.56.56,0,0,1-.94.6,28.18,28.18,0,1,1,52-15.08ZM92.67,42C67.92,42,47,63.42,47,88.77a45.62,45.62,0,0,0,11.21,30,.56.56,0,1,0,.84-.73A44.51,44.51,0,0,1,48.13,88.77c0-24.75,20.39-45.65,44.53-45.65S137.2,64,137.2,88.77A44.51,44.51,0,0,1,126.26,118a.56.56,0,1,0,.84.73,45.62,45.62,0,0,0,11.21-30C138.32,63.42,117.41,42,92.67,42Zm13.42,54.24v37.68c0,4.24-3.3,7.08-8.2,7.08H87.45c-4.91,0-8.2-2.85-8.2-7.08V96.24a8.21,8.21,0,0,1,8.2-8.2H97.88A8.21,8.21,0,0,1,106.09,96.24Zm-3.35,0a4.85,4.85,0,0,0-4.85-4.85H87.45a4.85,4.85,0,0,0-4.85,4.85v37.68c0,3.46,3.71,3.73,4.85,3.73H97.88c1.14,0,4.85-.27,4.85-3.73ZM184,92a92,92,0,1,0-92,92A92.1,92.1,0,0,0,184,92Zm-4,0A88,88,0,1,1,92,4,88.1,88.1,0,0,1,180,92Z"/></g></g></svg>