<?xml version="1.0" encoding="utf-8"?>
<!-- Generator: Adobe Illustrator 21.0.2, SVG Export Plug-In . SVG Version: 6.00 Build 0)  -->
<svg version="1.1" id="Layer_1" xmlns="http://www.w3.org/2000/svg" xmlns:xlink="http://www.w3.org/1999/xlink" x="0px" y="0px"
	 viewBox="0 0 164.6 164.6" style="enable-background:new 0 0 164.6 164.6;" xml:space="preserve">
<style type="text/css">
	.st0{fill:none;stroke:#8B8B8B;stroke-miterlimit:10;}
	.st1{fill:#8B8B8B;}
</style>
<circle class="st0" cx="82.3" cy="82.3" r="81.8"/>
<path d="M136.7,78.2c-0.5-0.5-1.3-0.5-1.8,0c-2.7,2.6-5.2,3.3-7.1,3.3c0,0,0,0,0,0c1.4-2.2,2-4.7,1.4-7.1
	c-0.8-3.7-3.5-4.7-5.6-4.5c-2.7,0.3-5.5,3-5.3,6.8c0.1,2.3,2,4.7,4.6,6.1c-2.1,1.3-4.4,1.4-6.3,0.5c-1.1-9.9-8.5-18.7-19.6-23.2
	c3.2-2.5,5.3-6.4,5.3-10.7c0-7.5-6.1-13.6-13.6-13.6c-7.5,0-13.6,6.1-13.6,13.6c0,2.9,0.9,5.6,2.5,7.8c-2.1,0.1-4.1,0.4-6.1,0.8
	c-2.2-2.6-7.7-5.5-13.2-6.8l-1-0.2l-0.4,0.9c-0.7,1.5-1.5,5.6-1.8,8.8c-0.9-0.1-1.8-0.2-2.8-0.2h-1l-0.2,1c-0.4,2.1-0.9,5.2-0.8,8.7
	c-1.6,2.2-3.3,5.2-4.2,7.6l-4.9-0.1c-1.2,0-2.2,1-2.2,2.2v14c0,1.2,1,2.2,2.2,2.2l5.9,0c0,0,0.1,0,0.1,0.2c3.5,6.3,8.1,10.8,14,13.9
	c-0.9,1.7-3.1,6-4.6,8.8l-0.1,0.3v0.3c0,1.2,1,2.2,2.2,2.2h9.3c1.2,0,2.1-0.9,2.2-2.1c0.5-1.9,1.2-4.6,1.6-5.9
	c6.5,1.3,13.5,1.1,19.9-0.6c0.4,1.5,1.5,5.4,1.8,6.5c0.1,1.1,1.1,2,2.2,2h9.3c0.5,0,1.5,0,2-0.8c0.2-0.4,0.5-1,0.2-1.9l-4.7-10.2
	l-0.1-0.1c0,0,0-0.1-0.1-0.1l0.1-0.1c8.9-5.5,14-13.8,14-22.7c0.8,0.2,1.6,0.4,2.4,0.4c1.9,0,3.9-0.6,5.7-1.9
	c0.3-0.2,0.6-0.4,0.8-0.7c3.6,0.7,7.5-0.6,10.9-3.8C137.1,79.5,137.1,78.7,136.7,78.2z M88.8,38.2c6.1,0,11.1,5,11.1,11.1
	s-5,11.1-11.1,11.1s-11.1-5-11.1-11.1S82.7,38.2,88.8,38.2z M58.9,53.8c4.4,1.2,8,3.2,9.9,4.8c-3,0.9-5.9,2.1-8.6,3.6
	c-0.8-0.4-1.7-0.7-2.5-1C57.8,58.6,58.4,55.5,58.9,53.8z M101.4,106.6c-0.3,0.2-1,0.6-1.2,1.5c-0.2,0.6,0,1.3,0.4,2l4.2,9.2h-8.6
	l0-0.1c-0.7-2.5-1.8-6.5-1.9-7c-0.1-0.7-0.5-1.1-0.8-1.3c-0.6-0.4-1.2-0.3-1.4-0.3l-0.1,0c-3.6,1-7.4,1.5-11.2,1.5
	c-3,0-5.9-0.3-8.7-0.9c-0.8-0.2-1.8,0.1-2.2,1.1c-0.1,0.4-1.4,5.4-1.8,6.9l0,0.1h-8.6c1.2-2.2,4.3-8.2,4.5-8.7
	c0.1-0.2,0.2-0.5,0.2-0.7c0,0,0,0,0,0c0,0,0,0,0-0.1c0-0.5-0.2-1.1-0.7-1.4c-0.1-0.1-0.2-0.1-0.3-0.2l0,0
	c-5.8-2.8-10.3-7.1-13.6-13.1c-0.7-1.3-1.8-1.5-2.3-1.5h-5.6V80.1l4.9,0.1c1,0.1,1.6-0.4,2-1.4l0-0.1c0.5-1.4,1.3-3.1,2.2-4.6
	c0.4,2.2,1,4.5,2,6.7c0.2,0.5,0.7,0.7,1.1,0.7c0.2,0,0.4,0,0.5-0.1c0.6-0.3,0.9-1,0.6-1.7c-2.8-6.1-2.3-12.8-1.6-16.8
	c6.3,0.5,11.9,5,14.2,8.2c0.4,0.6,1.2,0.7,1.7,0.3c0.6-0.4,0.7-1.2,0.3-1.7c-1.4-1.9-3.8-4.2-6.8-6.1c5.1-2.5,10.8-4,16.9-4.1
	c1.1,1,2.4,1.8,3.8,2.4c-2.9-0.2-5.7,0.1-8,1.1c-0.6,0.3-0.9,1-0.7,1.6c0.3,0.6,1,0.9,1.6,0.7c6.2-2.6,17.9,0.6,21.2,5.8
	c0.2,0.4,0.6,0.6,1.1,0.6c0.2,0,0.5-0.1,0.7-0.2c0.6-0.4,0.8-1.1,0.4-1.7c-1.9-3-6-5.4-10.4-6.8c1.8-0.1,3.5-0.5,5.1-1.2
	c12.1,4.3,19.9,13.7,19.9,24.1C114.3,93.9,109.6,101.5,101.4,106.6z M125,80.9c-0.1,0-0.1,0-0.2-0.1c-2.4-1-4-3-4.1-4.4
	c-0.1-2.4,1.5-4,3.1-4.2c0.1,0,0.2,0,0.3,0c1.2,0,2.1,0.9,2.5,2.5C127.2,76.9,126.6,79.2,125,80.9z"/>
</svg>
