<svg xmlns="http://www.w3.org/2000/svg" viewBox="0 0 164.63 164.63"><defs><style>.cls-1{fill:#8b8b8b;}</style></defs><title>icon_comfort</title><g id="Layer_2" data-name="Layer 2"><g id="Layer_1-2" data-name="Layer 1"><path class="cls-1" d="M82.31,164.63a82.31,82.31,0,1,1,82.31-82.31A82.41,82.41,0,0,1,82.31,164.63ZM82.31,1a81.31,81.31,0,1,0,81.31,81.31A81.41,81.41,0,0,0,82.31,1ZM69.47,56.16a2,2,0,1,0-2-2A2,2,0,0,0,69.47,56.16Zm27.15-.22a2,2,0,1,0-.9-2.75A2,2,0,0,0,96.62,55.94Zm-14.15-.27a2,2,0,1,0-.9-2.75A2,2,0,0,0,82.47,55.67Zm34,10.17a10.53,10.53,0,0,0-2.54.32V52.68A16.49,16.49,0,0,0,97.42,36.21H67.5A16.49,16.49,0,0,0,51,52.68V66.16A10.57,10.57,0,0,0,45,86.37l.12,0c0,.17,0,.43,0,.53v23.56a7.2,7.2,0,0,0,7.19,7.2h1.45a.94.94,0,0,0,0,.11v1.78a3.74,3.74,0,0,0,7.49,0v-1.89h43v1.71a3.74,3.74,0,0,0,7.49,0v-1.71h1a7.2,7.2,0,0,0,7.18-7.19V86.95c0-.1,0-.36,0-.53l.12,0a10.57,10.57,0,0,0-3.52-20.54Zm-62.9,1.25V52.68a14,14,0,0,1,14-14H97.42a14,14,0,0,1,14,14V67.12a10.58,10.58,0,0,0-5.53,9.29c0,.56-.06,5.82-.13,12.19a9.31,9.31,0,0,0-6.9-3.06H92.24a159,159,0,0,0-3.38-16l-.27-1.1a4.91,4.91,0,0,0-2.64-3.26c-4.2-2.14-12.15,0-16.49,1.7-1.09-.31-2.19-.63-3.26-1a8.16,8.16,0,0,0-9.49,3.88,10.64,10.64,0,0,0-3.24-2.69Zm5.62,48.12a5.09,5.09,0,0,0,.32-1.86c0-.09,0-2.5-.07-6h46.1l-.07,6.05a5,5,0,0,0,.32,1.84Zm-.1-38.8a10.51,10.51,0,0,0-.81-4c1.5-4.19,5.1-4.75,7.19-4.09,1.46.46,3,.89,4.42,1.3,4.67,1.32,10,2.81,10,4.88s-1.66,5.11-3,7.59a37.23,37.23,0,0,0-1.74,3.5H66a9.31,9.31,0,0,0-6.84,3C59.11,82.19,59.05,77,59.05,76.41Zm14.58-8.35c4.34-1.28,8.9-1.84,11.18-.68A2.39,2.39,0,0,1,86.16,69l.27,1.1c.9,3.61,2.68,10.75,3.29,15.42H77.84c.34-.7.76-1.49,1.2-2.31,1.54-2.86,3.29-6.1,3.29-8.77C82.33,71.16,78.55,69.54,73.63,68.06Zm31.9,36.75H59.38c0-3.23-.08-7-.13-10.81A6.85,6.85,0,0,1,66,88h32.8a6.84,6.84,0,0,1,6.83,6.59C105.61,98.19,105.57,101.76,105.53,104.81Zm-57.95,5.7V86.95c0-1,0-2.28-1.77-2.92a8,8,0,0,1-5.41-7.62,8.08,8.08,0,0,1,16.15,0c0,.73.09,8.94.19,17.44a9.38,9.38,0,0,0-.06,1h.07c.1,8.89.21,17.77.22,18.49a1.81,1.81,0,0,1-.35,1.28c-.53.53-2,.55-3.52.56h-.82A4.7,4.7,0,0,1,47.59,110.51ZM59.2,119.6a1.74,1.74,0,0,1-3.49,0v-1.78a.94.94,0,0,0,0-.11H59.2Zm48.74,1.56a1.75,1.75,0,0,1-1.74-1.74v-1.71h3.49v1.71A1.75,1.75,0,0,1,107.94,121.16ZM119.09,84c-1.77.65-1.77,1.91-1.77,2.92v23.56a4.7,4.7,0,0,1-4.69,4.7h-.87c-1.54,0-2.94,0-3.47-.56a1.79,1.79,0,0,1-.35-1.27c0-.72.11-9.62.22-18.5h0c0-.08,0-.17,0-.25.1-8.77.2-17.46.2-18.22a8.08,8.08,0,0,1,16.15,0A8,8,0,0,1,119.09,84Z"/></g></g></svg>