<svg xmlns="http://www.w3.org/2000/svg" viewBox="0 0 74.83 105.7"><defs><style>.cls-1{fill:#fff;stroke:#2fa0a9;stroke-width:4px;}.cls-1,.cls-3{stroke-miterlimit:10;}.cls-2{fill:#00a0ad;}.cls-3{fill:#2fa0a9;stroke:#00a0ad;}</style></defs><title>loc_pointer</title><g id="Layer_2" data-name="Layer 2"><g id="Слой_1" data-name="Слой 1"><path class="cls-1" d="M72.62,37.2a35.2,35.2,0,1,0-70.4,0s-5,21.5,33,65.2c0,0,1.3,1.3,2.2,1.3s2.2-1.3,2.2-1.3C77.62,58.7,72.62,37.2,72.62,37.2Z"/><g id="Layer_1-2" data-name="Layer 1"><path class="cls-2" d="M37.42,50a11.83,11.83,0,0,1-8.2-3.3,12.11,12.11,0,0,1-3.8-8s1.4.3,1.4.5a10.73,10.73,0,0,0,10.6,9.3,10.61,10.61,0,0,0,9.8-6.5l1.3.5A12,12,0,0,1,37.42,50Z"/><path class="cls-2" d="M47.52,34.4a10.71,10.71,0,0,0-10.1-7.1,11.48,11.48,0,0,0-8.9,4.8c-.1.2-1.2-.6-1.2-.6a12,12,0,0,1,21.8,3.3A6.18,6.18,0,0,1,47.52,34.4Z"/><path class="cls-3" d="M38.32,59.7h-1a21.74,21.74,0,0,1-21.7-20.6,25.94,25.94,0,0,1,.4-5.5l.5-2.6,1.4,2.2c.3.5.8,1,1.2,1.6l.3.4-.1.5a17.74,17.74,0,0,0-.2,3.2h0A17.84,17.84,0,0,0,25,51.4a18.34,18.34,0,0,0,13,4.7,17.49,17.49,0,0,0,6.8-1.7,16.9,16.9,0,0,0,5.7-4.2,6.94,6.94,0,0,0,1.8-3.5,4.81,4.81,0,0,0-.4-2.9,7.59,7.59,0,0,0-4.6-3.2,32.49,32.49,0,0,0-9.7-1.3,31,31,0,0,1-11.3-1.9c-3.2-1.3-5.4-3.3-6.4-5.7a7.68,7.68,0,0,1,1.6-8.9c3.2-3.5,9.2-6.1,14.6-6.3a21.6,21.6,0,0,1,15.7,5.6,22.18,22.18,0,0,1,5,6.7,21.65,21.65,0,0,1,2.1,8.3,19.1,19.1,0,0,1-.2,4.1l-.3,1.2-1-1.9a16,16,0,0,0-2.2-2.8v-.5a18,18,0,0,0-18-17.1h-.9a18.19,18.19,0,0,0-12.2,5.5,4,4,0,0,0-.8,4.5A7.88,7.88,0,0,0,28,34a26.5,26.5,0,0,0,9.6,1.5c9.2,0,15.5,2.3,17.7,6.5a9,9,0,0,1,.9,4.7,9.6,9.6,0,0,1-3,6.1,21.46,21.46,0,0,1-6.7,4.9,23,23,0,0,1-8.2,2Z"/></g></g></g></svg>