<svg xmlns="http://www.w3.org/2000/svg" viewBox="0 0 49.12 53.5"><defs><style>.cls-1{fill:#fff;stroke:#fff;stroke-miterlimit:10;stroke-width:0.7px;}</style></defs><title>icon_modularity</title><g id="Layer_2" data-name="Layer 2"><g id="Layer_1-2" data-name="Layer 1"><path class="cls-1" d="M22,28,3.67,17.35a2,2,0,0,0-1.1-.3,2,2,0,0,0-1.6.7,1.91,1.91,0,0,0-.6,1.6v21.1a2.14,2.14,0,0,0,1.1,1.9l18.2,10.5a2,2,0,0,0,1.1.3A2.22,2.22,0,0,0,23,51V29.85A1.89,1.89,0,0,0,22,28Zm.5,23a1.58,1.58,0,0,1-1.6,1.6,1.88,1.88,0,0,1-.8-.2L1.77,41.75a1.6,1.6,0,0,1-.8-1.4V19.25a2.08,2.08,0,0,1,.5-1.2,1.66,1.66,0,0,1,1.2-.5,1.88,1.88,0,0,1,.8.2l18.3,10.6a1.6,1.6,0,0,1,.8,1.4Z"/><path class="cls-1" d="M48.77,19.25a2.22,2.22,0,0,0-2.2-2.2h0a2,2,0,0,0-1.1.3l-18.3,10.5a2.14,2.14,0,0,0-1.1,1.9v21.1a2.27,2.27,0,0,0,.6,1.6,2.36,2.36,0,0,0,1.6.7,2,2,0,0,0,1.1-.3l18.3-10.5a2.14,2.14,0,0,0,1.1-1.9Zm-1.4,22.5-18.3,10.6a1.88,1.88,0,0,1-.8.2,1.85,1.85,0,0,1-1.2-.5,1.66,1.66,0,0,1-.5-1.2V29.75a1.6,1.6,0,0,1,.8-1.4l18.2-10.5a1.88,1.88,0,0,1,.8-.2,1.58,1.58,0,0,1,1.6,1.6v21.1A1.16,1.16,0,0,1,47.37,41.75Z"/><path class="cls-1" d="M44,15a2.17,2.17,0,0,0,.8-3,3,3,0,0,0-.8-.8L25.67.65a2.17,2.17,0,0,0-2.2,0L5.17,11.15a2.17,2.17,0,0,0-.8,3,3,3,0,0,0,.8.8l18.3,10.6a2.17,2.17,0,0,0,2.2,0Zm-19.4,10.3a1.88,1.88,0,0,1-.8-.2L5.47,14.55a1.53,1.53,0,0,1-.6-2.2,1.17,1.17,0,0,1,.6-.6l18.2-10.6a1.53,1.53,0,0,1,1.6,0l18.4,10.6a1.53,1.53,0,0,1,.6,2.2,1.17,1.17,0,0,1-.6.6L25.37,25A1.14,1.14,0,0,1,24.57,25.35Z"/></g></g></svg>