<?xml version="1.0" encoding="utf-8"?>
<!-- Generator: Adobe Illustrator 21.0.2, SVG Export Plug-In . SVG Version: 6.00 Build 0)  -->
<svg version="1.1" id="Layer_1" xmlns="http://www.w3.org/2000/svg" xmlns:xlink="http://www.w3.org/1999/xlink" x="0px" y="0px"
	 viewBox="0 0 9.4 9.4" style="enable-background:new 0 0 9.4 9.4;" xml:space="preserve">
<g>
	<path d="M9.4,7.4c0,0.1,0,0.3-0.1,0.5c0,0.2-0.1,0.3-0.1,0.5C9.1,8.6,8.9,8.8,8.4,9.1C8,9.3,7.6,9.4,7.2,9.4c-0.1,0-0.2,0-0.4,0
		c-0.1,0-0.2,0-0.4-0.1c-0.1,0-0.2-0.1-0.3-0.1C6,9.2,5.9,9.2,5.7,9.1C5.6,9,5.4,9,5.4,9C5,8.8,4.6,8.6,4.2,8.4
		C3.7,8.1,3.1,7.6,2.5,7C1.9,6.4,1.4,5.8,1,5.2C0.8,4.9,0.6,4.5,0.5,4c0,0-0.1-0.2-0.1-0.3C0.3,3.5,0.2,3.4,0.2,3.3S0.1,3.2,0.1,3
		C0.1,2.9,0,2.7,0,2.6c0-0.1,0-0.2,0-0.4C0,1.9,0.1,1.4,0.3,1c0.2-0.5,0.5-0.7,0.7-0.8c0.1,0,0.3-0.1,0.5-0.1C1.7,0,1.9,0,2,0
		C2,0,2.1,0,2.1,0c0.1,0,0.2,0.2,0.4,0.5c0,0.1,0.1,0.2,0.2,0.4C2.8,1,2.8,1.2,2.9,1.3C3,1.4,3.1,1.6,3.1,1.7c0,0,0.1,0.1,0.1,0.2
		C3.3,1.9,3.4,2,3.4,2.1c0,0.1,0,0.1,0,0.2c0,0.1-0.1,0.2-0.2,0.3C3.1,2.7,3,2.9,2.8,3C2.7,3.1,2.5,3.2,2.4,3.3
		C2.3,3.5,2.2,3.6,2.2,3.6c0,0,0,0.1,0,0.2s0,0.1,0.1,0.1c0,0,0,0.1,0.1,0.2s0.1,0.1,0.1,0.1c0.3,0.6,0.7,1.1,1.2,1.6
		c0.4,0.4,1,0.8,1.6,1.2c0,0,0.1,0,0.1,0.1c0.1,0,0.1,0.1,0.2,0.1c0,0,0.1,0,0.1,0.1c0.1,0,0.1,0,0.2,0C5.9,7.2,6,7.1,6.1,7
		s0.2-0.3,0.4-0.4c0.1-0.1,0.2-0.3,0.4-0.4S7.1,6,7.2,6c0.1,0,0.1,0,0.2,0c0.1,0,0.1,0.1,0.2,0.1s0.1,0.1,0.2,0.1
		C7.9,6.4,8,6.4,8.1,6.5c0.1,0.1,0.3,0.2,0.4,0.2C8.7,6.8,8.8,6.9,8.9,7c0.3,0.2,0.5,0.3,0.5,0.4C9.4,7.3,9.4,7.4,9.4,7.4z"/>
</g>
</svg>
