<?xml version="1.0" encoding="utf-8"?>
<!-- Generator: Adobe Illustrator 21.0.2, SVG Export Plug-In . SVG Version: 6.00 Build 0)  -->
<svg version="1.1" id="Layer_1" xmlns="http://www.w3.org/2000/svg" xmlns:xlink="http://www.w3.org/1999/xlink" x="0px" y="0px"
	 viewBox="0 0 49.6 64.1" style="enable-background:new 0 0 49.6 64.1;" xml:space="preserve">
<path d="M24.2,40.8c-9.1,0-16.5-7.4-16.5-16.5S15.2,7.8,24.2,7.8s16.5,7.4,16.5,16.5S33.3,40.8,24.2,40.8z M24.2,8.8
	c-8.5,0-15.5,7-15.5,15.5s7,15.5,15.5,15.5s15.5-7,15.5-15.5S32.8,8.8,24.2,8.8z M48.9,56.6L43,45.8c-0.8-1.4-2.1-2.4-3.6-2.7
	c5.5-4.4,9.1-11.3,9.1-18.9C48.5,10.9,37.6,0,24.2,0S0,10.9,0,24.2s10.9,24.2,24.2,24.2c3.4,0,6.7-0.7,9.6-2
	c-0.4,1.3-0.3,2.8,0.5,4.1l5.9,10.8c1.4,2.5,4.4,3.5,6.8,2.2S50.3,59.2,48.9,56.6z M2.5,24.2c0-12,9.8-21.8,21.8-21.8
	S46,12.3,46,24.2S36.2,46,24.2,46S2.5,36.2,2.5,24.2z"/>
</svg>
