<svg xmlns="http://www.w3.org/2000/svg" viewBox="0 0 432.32 111.18"><defs><style>.cls-1,.cls-2{fill:#00a0ad;}.cls-2{stroke:#00a0ad;stroke-miterlimit:10;}</style></defs><title>site_logo</title><g id="Layer_2" data-name="Layer 2"><g id="Layer_1-2" data-name="Layer 1"><path class="cls-1" d="M139.92,48.46c0,3.06,1.34,6.7,8.23,8.86l8.23,2.61c4.72,1.47,10.14,5.29,10.14,11.48s-5.42,11.8-14.6,11.8c-8.1,0-13.33-4.4-15.43-8.61l1.66-.57c1.72,3.63,6.31,7.71,13.77,7.71,8.16,0,12.94-4.91,12.94-10.33s-4.78-8.74-9-10l-8.23-2.61c-7.84-2.49-9.37-6.76-9.37-10.27,0-7.14,6.38-11.35,13.65-11.35,6.7,0,11.8,3.51,13.2,8.61l-1.53.51c-1.08-4.4-5.68-7.65-11.73-7.65C145.46,38.64,139.92,42.28,139.92,48.46Z"/><path class="cls-1" d="M151.9,84.46c-8.77,0-14.3-4.8-16.55-9.3l-.64-1.27,4.06-1.41.48,1c1.53,3.23,5.76,7,12.64,7,7.68,0,11.69-4.57,11.69-9.08,0-4.69-4.19-7.63-8.1-8.81L147.25,60C140.46,57.83,137,54,137,48.52c0-7.3,6.26-12.6,14.9-12.6,7.16,0,12.81,3.74,14.4,9.53l.31,1.14-3.94,1.31-.32-1.32c-1-4-5.21-6.7-10.52-6.7-5.14,0-10.67,2.68-10.67,8.57,0,2.3.76,5.6,7.35,7.67l8.23,2.62c5.08,1.58,11,5.84,11,12.67C167.76,77.9,162.31,84.46,151.9,84.46Z"/><path class="cls-1" d="M190.38,82.51h-1.59V63.83l-16.58-26h2l15.43,24.29L205,37.88h2l-16.64,26Z"/><polygon class="cls-1" points="191.63 83.76 187.54 83.76 187.54 64.19 169.93 36.63 174.87 36.63 189.62 59.84 204.36 36.63 209.31 36.63 191.63 64.19 191.63 83.76"/><path class="cls-1" d="M219.74,40.43V82.51h-1.59V37.88h1.59l30.86,42v-42h1.59V82.51h-1.59Z"/><polygon class="cls-1" points="253.45 83.76 249.97 83.76 220.99 44.24 220.99 83.76 216.9 83.76 216.9 36.63 220.38 36.63 249.35 76.08 249.35 36.63 253.45 36.63 253.45 83.76"/><path class="cls-1" d="M268.62,82.51V37.88H295v1.47H270.21v20.6h21.68v1.47H270.21V81H295v1.47Z"/><polygon class="cls-1" points="296.27 83.76 267.37 83.76 267.37 36.63 296.27 36.63 296.27 40.59 271.46 40.59 271.46 58.69 293.14 58.69 293.14 62.66 271.46 62.66 271.46 79.8 296.27 79.8 296.27 83.76"/><path class="cls-1" d="M343.25,81.68A10,10,0,0,1,338,83.21c-9.95,0-13.14-13.2-13.52-19.45H309.58V82.51H308V37.88h17.6C333.37,37.88,338,44,338,50.95S333.49,63.57,326,63.76c.32,5.8,3.25,17.92,12,17.92a8.47,8.47,0,0,0,4.4-1.28ZM325.59,62.3c6.7,0,10.71-5.16,10.71-11.35s-4-11.61-10.71-11.61h-16v23Z"/><path class="cls-1" d="M338,84.46c-10.12,0-13.93-12.11-14.67-19.45H310.83V83.76h-4.09V36.63h18.85c8.94,0,13.62,7.2,13.62,14.32,0,7.62-4.8,13.19-11.82,14C328,70.18,330.6,80.43,338,80.43a7.27,7.27,0,0,0,3.71-1.07l1.05-.7L345,82l-1,.69A11.31,11.31,0,0,1,338,84.46ZM310.83,61h14.75c5.57,0,9.46-4.15,9.46-10.1,0-5-3-10.36-9.46-10.36H310.83Z"/><path class="cls-1" d="M386.89,63.7H373.25V62.11h15.24V77.86c-5,4.46-11.22,5.36-15.81,5.36-14,0-23.85-10.52-23.85-23.08a23.12,23.12,0,0,1,22.64-23c5.8,0,11,.57,15.69,3.7l-.7,1.34c-4.46-3.06-9.5-3.57-15-3.57-10.78,0-21,9.25-21,21.49,0,11.73,9.18,21.62,22.19,21.62,4.08,0,9.63-.76,14.22-4.53Z"/><path class="cls-1" d="M372.67,84.46c-14.07,0-25.1-10.69-25.1-24.33,0-13.12,10.94-24.21,23.89-24.21,5.48,0,11.26.47,16.38,3.91l.93.63L386.9,44l-1.16-.8c-4.06-2.78-8.64-3.35-14.28-3.35a20.26,20.26,0,0,0-19.73,20.24c0,11.61,9,20.37,20.94,20.37,5.23,0,9.59-1.31,13-3.88V65H372V60.86h17.74V78.42l-.42.37C385.07,82.55,379.47,84.46,372.67,84.46Z"/><path class="cls-1" d="M413.39,82.51h-1.59V63.83l-16.58-26h2l15.43,24.29,15.43-24.29h2l-16.64,26Z"/><polygon class="cls-1" points="414.64 83.76 410.54 83.76 410.54 64.19 392.93 36.63 397.88 36.63 412.62 59.84 427.37 36.63 432.32 36.63 414.64 64.19 414.64 83.76"/><g id="Layer_1-3" data-name="Layer 1"><path class="cls-1" d="M55.6,86.2A30.6,30.6,0,0,1,25.06,57.7s3.59.79,3.66,1.29a27.1,27.1,0,0,0,51.83,7.17l3.24,1.37A30.58,30.58,0,0,1,55.6,86.2Z"/><path class="cls-1" d="M81.14,46.53a27.13,27.13,0,0,0-25.54-18c-8.75,0-17.56,5.05-22.67,12.1-.3.41-3.12-1.53-3.12-1.53a30.61,30.61,0,0,1,55.34,8.59A23.07,23.07,0,0,1,81.14,46.53Z"/><path class="cls-2" d="M58,110.68H55.53a55.07,55.07,0,0,1-55-52.41,59.54,59.54,0,0,1,1-13.91l1.27-6.6,3.58,5.69a37.5,37.5,0,0,0,3.17,4.1l.79.92-.18,1.2a39.22,39.22,0,0,0-.39,8.08v0A45.85,45.85,0,0,0,75.17,97,45,45,0,0,0,89.54,86.32a17.86,17.86,0,0,0,4.53-8.88A11.47,11.47,0,0,0,93,70.2c-1.76-3.42-5.83-6.27-11.8-8.24-6.45-2.13-14.76-3.21-24.69-3.21-11.13,0-21.08-1.71-28.74-4.93-8-3.36-13.6-8.42-16.13-14.57-3.61-8-2.2-15.68,4.17-22.67C23.81,7.79,39.1,1.2,53,.56A55.12,55.12,0,0,1,110.66,53a58.21,58.21,0,0,1-.42,10.51l-.83,3-2.47-4.74a35.78,35.78,0,0,0-5.71-7l.11-1.37A45.63,45.63,0,0,0,55.69,9.86H53.34a46.37,46.37,0,0,0-31.07,14c-3,3.56-3.8,7.54-2.15,11.48S25.92,42.91,32,45.32c6.41,2.57,14.83,3.93,24.38,3.93,23.34,0,39.24,5.86,44.81,16.52a21.9,21.9,0,0,1,2.22,11.82c-.49,5.72-3.08,11-7.7,15.59A54.59,54.59,0,0,1,58,110.68Z"/></g></g></g></svg>