<svg class="b-icons__svg" xmlns="http://www.w3.org/2000/svg" xmlns:xlink="http://www.w3.org/1999/xlink"><symbol viewBox="0 0 128 40" id="appstore_badge"><defs><style>.cls-1{fill:#fff}</style></defs><title>appstore_badge</title><g id="aLayer_2" data-name="Layer 2"><g id="aBadges"><path d="M124 40H4a4 4 0 0 1-4-4V4a4 4 0 0 1 4-4h120a4 4 0 0 1 4 4v32a4 4 0 0 1-4 4z"/><path class="cls-1" d="M27 19.8a5.8 5.8 0 0 1 2.7-4.7 6.23 6.23 0 0 0-4.5-2.5c-1.9-.2-3.8 1.1-4.7 1.1s-2.5-1.1-4.1-1.1a5.94 5.94 0 0 0-5.1 3.1c-2.2 3.8-.6 9.4 1.5 12.5 1.1 1.5 2.3 3.2 3.9 3.1s2.2-1 4.1-1 2.4 1 4.1 1 2.8-1.5 3.8-3a11.46 11.46 0 0 0 1.7-3.5 5.53 5.53 0 0 1-3.4-5zM23.9 10.6a6.2 6.2 0 0 0 1.3-4 5.36 5.36 0 0 0-3.6 1.9 5.06 5.06 0 0 0-1.3 3.8 4.75 4.75 0 0 0 3.6-1.7zM49.8 31.1h-2.2l-1.2-3.8h-4.2l-1.1 3.8H39l4.2-12.9h2.6zM46 25.7l-1.1-3.4c-.1-.3-.3-1.2-.7-2.4-.1.5-.3 1.4-.6 2.4l-1.1 3.4zM60.5 26.4a5.32 5.32 0 0 1-1.3 3.8 3.85 3.85 0 0 1-2.9 1.2 2.72 2.72 0 0 1-2.6-1.3V35h-2.1V25c0-1 0-2-.1-3.1h1.8l.1 1.5a3.45 3.45 0 0 1 3.1-1.7 3.23 3.23 0 0 1 2.7 1.3 4.24 4.24 0 0 1 1.3 3.4zm-2.1 0a3.59 3.59 0 0 0-.6-2.2 2 2 0 0 0-1.8-.9 2.39 2.39 0 0 0-1.4.5 2.22 2.22 0 0 0-.8 1.3 1.76 1.76 0 0 0-.1.6v1.6a2.52 2.52 0 0 0 .6 1.7 2 2 0 0 0 1.6.7 2 2 0 0 0 1.8-.9 3.61 3.61 0 0 0 .7-2.4zM71.2 26.4a5.32 5.32 0 0 1-1.3 3.8 3.85 3.85 0 0 1-2.9 1.2 2.72 2.72 0 0 1-2.6-1.3V35h-2.1V25c0-1 0-2-.1-3.1H64l.1 1.5a3.45 3.45 0 0 1 3.1-1.7 3.23 3.23 0 0 1 2.7 1.3 4.24 4.24 0 0 1 1.3 3.4zm-2.1 0a3.59 3.59 0 0 0-.6-2.2 2 2 0 0 0-1.8-.9 2.39 2.39 0 0 0-1.4.5 2.22 2.22 0 0 0-.8 1.3 1.76 1.76 0 0 0-.1.6v1.6A2.52 2.52 0 0 0 65 29a2 2 0 0 0 1.6.7 2 2 0 0 0 1.8-.9 3.61 3.61 0 0 0 .7-2.4zM83.2 27.5a3.69 3.69 0 0 1-1.1 2.7 4.76 4.76 0 0 1-3.5 1.1 6.18 6.18 0 0 1-3.3-.8l.5-1.7a6.11 6.11 0 0 0 3 .8 3 3 0 0 0 1.8-.5 1.82 1.82 0 0 0 .6-1.4 1.9 1.9 0 0 0-.5-1.3 5 5 0 0 0-1.8-1c-2.3-.8-3.4-2.1-3.4-3.7a3.22 3.22 0 0 1 1.2-2.6 4.55 4.55 0 0 1 3.2-1 6.24 6.24 0 0 1 2.9.6l-.5 1.7a4.87 4.87 0 0 0-2.5-.6 2.86 2.86 0 0 0-1.7.5 1.66 1.66 0 0 0-.5 1.2 1.76 1.76 0 0 0 .6 1.3 7.76 7.76 0 0 0 1.9 1 6.75 6.75 0 0 1 2.5 1.6 4 4 0 0 1 .6 2.1zM90 23.4h-2.3v4.5c0 1.1.4 1.7 1.2 1.7a2.22 2.22 0 0 0 .9-.1l.1 1.6a3.66 3.66 0 0 1-1.6.2 2.35 2.35 0 0 1-1.9-.7 3.4 3.4 0 0 1-.7-2.5v-4.7h-1.4v-1.6h1.4v-1.7l2-.6v2.3H90zM100.3 26.4a5.13 5.13 0 0 1-1.2 3.5 4.6 4.6 0 0 1-3.4 1.4 4.22 4.22 0 0 1-3.3-1.4 4.87 4.87 0 0 1-1.2-3.4 4.75 4.75 0 0 1 1.3-3.5 4.44 4.44 0 0 1 3.4-1.4 4.22 4.22 0 0 1 3.3 1.4 5.33 5.33 0 0 1 1.1 3.4zm-2.2.1a3.8 3.8 0 0 0-.6-2.2 2.19 2.19 0 0 0-3.8 0 4 4 0 0 0-.6 2.2 3.8 3.8 0 0 0 .6 2.2 2.14 2.14 0 0 0 1.9 1.1 2.26 2.26 0 0 0 1.9-1.1 4 4 0 0 0 .6-2.2zM107 23.6c-.2 0-.4-.1-.7-.1a2.14 2.14 0 0 0-1.7.8 3.45 3.45 0 0 0-.5 1.8V31H102v-6.4a26.22 26.22 0 0 0-.1-2.9h1.8l.1 1.8h.1a4 4 0 0 1 1-1.5 3 3 0 0 1 1.5-.5h.5v2.1zM116.2 26a2.22 2.22 0 0 1-.1.9h-6.2a2.58 2.58 0 0 0 .9 2.1 3.22 3.22 0 0 0 2 .7 6.57 6.57 0 0 0 2.5-.4l.3 1.4a7.45 7.45 0 0 1-3.1.6 4.38 4.38 0 0 1-3.4-1.3 4.7 4.7 0 0 1-1.2-3.4 5.62 5.62 0 0 1 1.1-3.5 4 4 0 0 1 3.3-1.5 3.33 3.33 0 0 1 3 1.5 4.2 4.2 0 0 1 .9 2.9zm-1.9-.5a2.93 2.93 0 0 0-.4-1.6 1.8 1.8 0 0 0-1.6-.9 1.94 1.94 0 0 0-1.6.8 3.82 3.82 0 0 0-.6 1.6h4.2zM45.4 10.3a3.25 3.25 0 0 1-1 2.6 4.14 4.14 0 0 1-2.7.8 6.62 6.62 0 0 1-1.5-.1V7.4a9.72 9.72 0 0 1 1.8-.1 3.73 3.73 0 0 1 2.5.7 3.24 3.24 0 0 1 .9 2.3zm-1.1 0a2.35 2.35 0 0 0-.6-1.7A2.35 2.35 0 0 0 42 8a2 2 0 0 0-.8.1v4.7h.7a2.44 2.44 0 0 0 1.8-.6 2.71 2.71 0 0 0 .6-1.9zM51 11.3a2.35 2.35 0 0 1-.6 1.7 2.06 2.06 0 0 1-1.7.7 1.86 1.86 0 0 1-1.6-.7 2.35 2.35 0 0 1-.6-1.7 2.35 2.35 0 0 1 .6-1.7 2.06 2.06 0 0 1 1.7-.7 1.86 1.86 0 0 1 1.6.7 2.35 2.35 0 0 1 .6 1.7zm-1 0a2 2 0 0 0-.3-1.1.87.87 0 0 0-.9-.5 1.05 1.05 0 0 0-.9.5 2.17 2.17 0 0 0 0 2.2.87.87 0 0 0 .9.5 1 1 0 0 0 .9-.6 1.49 1.49 0 0 0 .3-1zM58.7 9l-1.4 4.6h-.9l-.6-2a8.33 8.33 0 0 1-.4-1.5 8.33 8.33 0 0 1-.4 1.5l-.6 2h-.9L52 9h1l.5 2.2.3 1.5c.1-.4.2-.9.4-1.5l.6-2.2h.8l.6 2.1a8.33 8.33 0 0 1 .4 1.5l.3-1.5.6-2.1zM63.9 13.6h-1V11q0-1.2-.9-1.2a.91.91 0 0 0-.7.3 1.14 1.14 0 0 0-.3.8v2.7h-1V9h.9v.7a2.65 2.65 0 0 1 .5-.6 1.61 1.61 0 0 1 .9-.3 1.5 1.5 0 0 1 1.1.4 1.72 1.72 0 0 1 .5 1.5zM66.7 13.6h-1V6.9h1zM72.7 11.3a2.35 2.35 0 0 1-.6 1.7 2.06 2.06 0 0 1-1.7.7 1.86 1.86 0 0 1-1.6-.7 2.35 2.35 0 0 1-.6-1.7 2.35 2.35 0 0 1 .6-1.7 2.41 2.41 0 0 1 1.7-.7 1.86 1.86 0 0 1 1.6.7 2.35 2.35 0 0 1 .6 1.7zm-1 0a2 2 0 0 0-.3-1.1.87.87 0 0 0-.9-.5 1.05 1.05 0 0 0-.9.5 2.17 2.17 0 0 0 0 2.2.87.87 0 0 0 .9.5 1 1 0 0 0 .9-.6 1.49 1.49 0 0 0 .3-1zM77.6 13.6h-.9l-.1-.5a1.61 1.61 0 0 1-1.3.6 1.16 1.16 0 0 1-1-.4 1.8 1.8 0 0 1-.4-.9 1.36 1.36 0 0 1 .7-1.3 3.74 3.74 0 0 1 2-.4v-.1a.8.8 0 0 0-.9-.9 2.38 2.38 0 0 0-1.2.3l-.2-.7a2.54 2.54 0 0 1 1.6-.4c1.2 0 1.8.6 1.8 1.9v1.7a4.91 4.91 0 0 0-.1 1.1zm-1-1.6v-.7c-1.1 0-1.7.3-1.7.9a.68.68 0 0 0 .7.7 1.42 1.42 0 0 0 .6-.2 1 1 0 0 0 .4-.5zM83.4 13.6h-.9v-.7a1.48 1.48 0 0 1-1.5.8 1.82 1.82 0 0 1-1.4-.6 2.31 2.31 0 0 1-.5-1.7 2.79 2.79 0 0 1 .6-1.8 2 2 0 0 1 1.4-.6 1.49 1.49 0 0 1 1.3.6V7h1v6.6zm-1-1.9v-1.1a2.09 2.09 0 0 0-.4-.6.84.84 0 0 0-.7-.2 1.05 1.05 0 0 0-.9.5 2.13 2.13 0 0 0-.3 1.2 1.8 1.8 0 0 0 .3 1.1 1.05 1.05 0 0 0 .9.5.91.91 0 0 0 .8-.4 2.24 2.24 0 0 0 .3-1zM92.1 11.3a2.35 2.35 0 0 1-.6 1.7 2.06 2.06 0 0 1-1.7.7 1.86 1.86 0 0 1-1.6-.7 2.35 2.35 0 0 1-.6-1.7 2.35 2.35 0 0 1 .6-1.7 2.06 2.06 0 0 1 1.7-.7 1.86 1.86 0 0 1 1.6.7 2.35 2.35 0 0 1 .6 1.7zm-1.1 0a2 2 0 0 0-.3-1.1.87.87 0 0 0-.9-.5 1.05 1.05 0 0 0-.9.5 2.17 2.17 0 0 0 0 2.2.87.87 0 0 0 .9.5 1 1 0 0 0 .9-.6 1.49 1.49 0 0 0 .3-1zM97.6 13.6h-1V11q0-1.2-.9-1.2a.91.91 0 0 0-.7.3 1.14 1.14 0 0 0-.3.8v2.7h-1V9h.9v.7a2.65 2.65 0 0 1 .5-.6 1.61 1.61 0 0 1 .9-.3 1.5 1.5 0 0 1 1.1.4 1.72 1.72 0 0 1 .5 1.5zM104.4 9.8h-1.1V12c0 .6.2.8.6.8h.5v.8a2 2 0 0 1-.8.1 1 1 0 0 1-.9-.4 1.92 1.92 0 0 1-.3-1.2V9.8h-.7V9h.7v-.8l1-.3V9h1.1v.8zM109.8 13.6h-1V11q0-1.2-.9-1.2a1 1 0 0 0-1 .7v3.1h-1V6.9h1v2.8a1.6 1.6 0 0 1 1.4-.8 1.16 1.16 0 0 1 1 .4 2.25 2.25 0 0 1 .5 1.5zM115.3 11.1v.5h-3a1.33 1.33 0 0 0 .4 1 1.69 1.69 0 0 0 1 .3 3.73 3.73 0 0 0 1.2-.2l.2.7a3.34 3.34 0 0 1-1.5.3 2.35 2.35 0 0 1-1.7-.6 2.35 2.35 0 0 1-.6-1.7 2.35 2.35 0 0 1 .6-1.7 1.86 1.86 0 0 1 1.6-.7 1.58 1.58 0 0 1 1.5.7 2.65 2.65 0 0 1 .3 1.4zm-.9-.3a1.88 1.88 0 0 0-.2-.8.81.81 0 0 0-.8-.4.91.91 0 0 0-.8.4 1.14 1.14 0 0 0-.3.8z"/></g></g></symbol><symbol viewBox="0 0 128 40" id="google_badge"><defs><style>.cls-1{fill:url(#blinear-gradient)}.cls-2{fill:url(#blinear-gradient-2)}.cls-3{fill:url(#blinear-gradient-3)}.cls-4{fill:url(#blinear-gradient-4)}.cls-5{fill:#fff}</style><linearGradient id="blinear-gradient" x1="16.26" y1="35.42" x2="21.86" y2="12.43" gradientTransform="matrix(1 0 0 -1 0 42)" gradientUnits="userSpaceOnUse"><stop offset="0" stop-color="#006884"/><stop offset="1" stop-color="#8ad1d0"/></linearGradient><linearGradient id="blinear-gradient-2" x1="9.43" y1="32.13" x2="24.68" y2="23.88" gradientTransform="matrix(1 0 0 -1 0 42)" gradientUnits="userSpaceOnUse"><stop offset="0" stop-color="#24bbb6"/><stop offset="1" stop-color="#dbe692"/></linearGradient><linearGradient id="blinear-gradient-3" x1="27" y1="18.38" x2="27" y2="26.33" gradientTransform="matrix(1 0 0 -1 0 42)" gradientUnits="userSpaceOnUse"><stop offset="0" stop-color="#fcc072"/><stop offset="1" stop-color="#f58a5b"/></linearGradient><linearGradient id="blinear-gradient-4" x1="12.37" y1="8.76" x2="24.42" y2="21.03" gradientTransform="matrix(1 0 0 -1 0 42)" gradientUnits="userSpaceOnUse"><stop offset="0" stop-color="#712b8f"/><stop offset="1" stop-color="#ea1d27"/></linearGradient></defs><title>google_badge</title><g id="bLayer_2" data-name="Layer 2"><g id="bBadges"><path d="M124 40H4a4 4 0 0 1-4-4V4a4 4 0 0 1 4-4h120a4 4 0 0 1 4 4v32a4 4 0 0 1-4 4z"/><path class="cls-1" d="M9.8 19.6V9.1a1.1 1.1 0 0 1 1-1.1 1.49 1.49 0 0 1 1 .3l19.3 10.6a.83.83 0 0 1 0 1.6L11.8 31.1a2 2 0 0 1-1 .3 1.1 1.1 0 0 1-1-1.1z"/><path class="cls-2" d="M22.3 19.7L10.6 8h.2a1.49 1.49 0 0 1 1 .3L26 16.1z"/><path class="cls-3" d="M25.9 23.2l-3.6-3.6 3.7-3.7 5.1 2.8a.83.83 0 0 1 0 1.6z"/><path class="cls-4" d="M10.7 31.2l11.6-11.6 3.6 3.6-14.1 7.7a1.61 1.61 0 0 1-1.1.3z"/><path class="cls-5" d="M71.1 33.9a4.79 4.79 0 0 1-1.1-1.5l1.6-.7a9.22 9.22 0 0 0 .5.8 2.47 2.47 0 0 0 1.6.8 2.29 2.29 0 0 0 1.7-.8 3.1 3.1 0 0 0 .5-1.7v-.6c-1.2 1.5-3.7 1.3-5.1-.3a4.43 4.43 0 0 1 0-5.9c1.5-1.5 3.7-1.7 5-.3V23h1.7v7.5a4.33 4.33 0 0 1-1.6 3.7 3.69 3.69 0 0 1-2.3.7 4.59 4.59 0 0 1-2.5-1zm41.9.4l1.7-4-3-6.9h1.7l2.1 4.9 2.1-4.9h1.7l-4.6 10.9H113zm-8.1-3.8a2.64 2.64 0 0 1-.7-1.9 2.27 2.27 0 0 1 .6-1.6 3.86 3.86 0 0 1 2.8-1 3.42 3.42 0 0 1 1.8.4 1.7 1.7 0 0 0-1.8-1.7 1.85 1.85 0 0 0-1.7 1.1l-1.5-.6a3.18 3.18 0 0 1 3.1-2 3.39 3.39 0 0 1 2.6 1 3.69 3.69 0 0 1 .8 2.6V31h-1.7v-.7a3.11 3.11 0 0 1-.9.7 3.19 3.19 0 0 1-1.4.3 3.86 3.86 0 0 1-2-.8zm-53.3-3.6a4.15 4.15 0 0 1 4.2-4.2 4.22 4.22 0 0 1 4.2 4.2 4.2 4.2 0 1 1-8.4 0zm9 0a4.15 4.15 0 0 1 4.2-4.2 4.22 4.22 0 0 1 4.2 4.2 4.15 4.15 0 0 1-4.2 4.2 4.22 4.22 0 0 1-4.2-4.2zm-20.3 2.2a6.58 6.58 0 0 1 .1-9.2A6.35 6.35 0 0 1 45 18a6.2 6.2 0 0 1 4.4 1.8l-1.2 1.3a4.47 4.47 0 0 0-6.4.1 4.83 4.83 0 0 0 0 6.7 4.53 4.53 0 0 0 6.6.1 3.6 3.6 0 0 0 .9-2.2h-4.2V24H51a6.15 6.15 0 0 1 .1 1.4 5.76 5.76 0 0 1-1.6 4 6.13 6.13 0 0 1-4.3 1.7 7.43 7.43 0 0 1-4.9-2zm42.3.7a4.56 4.56 0 0 1 0-6 3.64 3.64 0 0 1 5.4 0 5.93 5.93 0 0 1 1.1 1.9L83.6 28a2.13 2.13 0 0 0 2 1.3 2.26 2.26 0 0 0 2.1-1.2l1.5 1a2.65 2.65 0 0 0-.5.6 4.38 4.38 0 0 1-6.1.1zM93 31V19.9h3.6a3.59 3.59 0 0 1 3.8 3.3 3.35 3.35 0 0 1-3.4 3.3h-2.2v4.4H93zm8.4 0V19.9h1.7V31zm-22.6-.2V18.4h1.8v12.4h-1.8zm30.5-3.1a2.73 2.73 0 0 0-1.6-.4c-1.2 0-1.9.6-1.9 1.3a1.26 1.26 0 0 0 1.4 1.1 2.09 2.09 0 0 0 2.1-2zm-51.2-.8a2.31 2.31 0 1 0-4.6 0 2.37 2.37 0 0 0 2.3 2.5 2.43 2.43 0 0 0 2.3-2.5zm9 0a2.31 2.31 0 1 0-4.6 0 2.31 2.31 0 1 0 4.6 0zm8.9.7a.37.37 0 0 1 .1-.3v-.9c0-.1-.1-.3-.1-.4a2.32 2.32 0 0 0-2.1-1.7 2.43 2.43 0 0 0-2.2 2.5 2.38 2.38 0 0 0 2.3 2.5c.8.1 1.6-.6 2-1.7zm7.3-.9l3.7-1.6a1.67 1.67 0 0 0-1.5-.9 2.42 2.42 0 0 0-2.2 2.5zm15.3-3.4a1.74 1.74 0 0 0-1.9-1.7h-2v3.5h2.1a1.79 1.79 0 0 0 1.8-1.8z"/><path class="cls-5" d="M114.3 32.3h-.1v-.1h.1-.1v.1h.1zM114.3 32.3zm0-.1zM114.3 32.3v-.1.1zM114.3 32.3zm0-.1zM114.3 32.2v.1-.1zM114.3 32.3v-.1.1zM114.3 32.3zm0 0zM114.4 32.3zm0-.1zm0 .1zM114.4 32.2v.1-.1zM114.4 32.3v-.1.1zM114.4 32.3zm0-.1zM114.5 32.3zm0-.1c0 .1-.1.1 0 0zM114.5 32.3v-.1.1-.1.1-.1.1zM114.5 32.3zm0-.1zM114.6 32.2h-.1.1v.1-.1zM114.6 32.3v-.1.1zM114.6 32.3zm0-.1zM38.9 10.1a2.78 2.78 0 0 1 2.9-2.9 2.66 2.66 0 0 1 2.3 1.2l-.8.5a1.81 1.81 0 0 0-1.5-.7 1.87 1.87 0 0 0-1.9 2 1.87 1.87 0 0 0 1.9 2 2 2 0 0 0 1.3-.5v-.9h-1.6v-.9h2.7V12a2.93 2.93 0 0 1-2.3 1 2.86 2.86 0 0 1-3-2.9zM45.4 12.9V7.3h3.8v.9h-2.9v1.4h2.8v.9h-2.8v1.6h2.9v.9l-3.8-.1zM52 12.9V8.2h-1.7v-.9h4.4v.9H53v4.7zM58.1 12.9V7.3h1v5.6zM61.8 12.9V8.2h-1.7v-.9h4.4v.9h-1.7v4.7zM67.7 10.1a2.9 2.9 0 0 1 5.8 0 2.78 2.78 0 0 1-2.9 2.9 2.84 2.84 0 0 1-2.9-2.9zm4.7 0a1.81 1.81 0 0 0-1.9-2 1.92 1.92 0 0 0-1.9 2 1.81 1.81 0 0 0 1.9 2 1.86 1.86 0 0 0 1.9-2zM78.5 12.9l-2.9-4v4h-1V7.3h1l2.9 3.9V7.3h1v5.6z"/></g></g></symbol><symbol viewBox="0 0 184 184" id="icon_camera"><defs><style>.cls-1{fill:#00a0ad}</style></defs><title>icon_camera</title><g id="cLayer_2" data-name="Layer 2"><path class="cls-1" d="M141 105.5a1.5 1.5 0 0 0-1.5 1.5v19.75h-20c-2.87 0-4.7-.51-5.78-1.59-1.58-1.59-1.54-4.63-1.49-8.46v-15.99a9 9 0 0 0 6.1-12l17.74-9.16a6.2 6.2 0 0 0 2.77-8.31l-11.6-22.46a6 6 0 0 0-3.64-3 6.33 6.33 0 0 0-4.74.45L52.77 80.34a6.32 6.32 0 0 0-3.11 3.6 6 6 0 0 0 .34 4.71l.56 1.08L38.92 89a5.31 5.31 0 0 0-5.11 7.65l10.92 22.15a5.26 5.26 0 0 0 4.41 2.95h.56a5.24 5.24 0 0 0 4.21-2.36l6.74-10.08.95 1.84a6 6 0 0 0 3.64 3 6.3 6.3 0 0 0 1.81.27 6.38 6.38 0 0 0 2.93-.72l32.49-16.77A9 9 0 0 0 110 101h.73v15.68c-.05 4.19-.09 7.5 1.92 9.54 1.37 1.39 3.55 2 6.84 2h20V139a1.5 1.5 0 0 0 3 0v-32a1.5 1.5 0 0 0-1.49-1.5zm-89.58 12.19a2.27 2.27 0 0 1-1.82 1h-.25a2.26 2.26 0 0 1-1.92-1.28L36.5 95.28A2.31 2.31 0 0 1 38.72 92l13.44.88 6.92 13.39zM68.6 111a3.34 3.34 0 0 1-2.5.24 3 3 0 0 1-1.84-1.5l-11.6-22.47a3 3 0 0 1-.16-2.37 3.34 3.34 0 0 1 1.65-1.9l66.12-34.14a3.39 3.39 0 0 1 1.56-.38 3.29 3.29 0 0 1 .95.14 3 3 0 0 1 1.84 1.5l11.6 22.46a3.2 3.2 0 0 1-1.49 4.27zm34.75-14.56l14.11-7.29a8 8 0 0 1-14.11 7.29zM92 184a92 92 0 1 1 92-92 92.1 92.1 0 0 1-92 92zM92 4a88 88 0 1 0 88 88A88.1 88.1 0 0 0 92 4z" id="cкруги"/></g></symbol><symbol viewBox="0 0 44.89 32.12" id="icon_cart"><defs><style>.cls-1{fill:#969696}.cls-2{fill:#00a1ae}.cls-3{fill:#fff}</style></defs><title>icon_cart</title><g id="dLayer_2" data-name="Layer 2"><g id="dLayer_1-2" data-name="Layer 1"><path class="cls-1" d="M34.14 10.47a.75.75 0 0 0-.92.51L30 21.46a3.4 3.4 0 0 1-3 2.1H11.4l-4-12.73-.67-2.1A3.77 3.77 0 0 0 5.56 7a3.48 3.48 0 0 0-2.21-.67H.75a.75.75 0 1 0 0 1.5h2.59a2.06 2.06 0 0 1 1.28.34 1.89 1.89 0 0 1 .6.86l4.65 14.7c.28.93.67 1.36 1.31 1.36H27a4.67 4.67 0 0 0 4.46-3.15l3.23-10.53a.76.76 0 0 0-.55-.94zM12.83 26.87a2.62 2.62 0 1 0 2.62 2.62 2.66 2.66 0 0 0-2.62-2.62zm0 3.75a1.12 1.12 0 1 1 1.12-1.12 1.1 1.1 0 0 1-1.12 1.12zM27.75 26.87a2.62 2.62 0 1 0 2.62 2.62 2.66 2.66 0 0 0-2.62-2.62zm0 3.75a1.12 1.12 0 1 1 1.12-1.12 1.1 1.1 0 0 1-1.12 1.12z"/><circle id="dCircle_cart_count_copy" data-name="Circle cart count copy" class="cls-2" cx="36.39" cy="8.5" r="8.5"/><path id="d_1_copy" data-name="1 copy" class="cls-3" d="M37.68 4.22h-.19l-3.32 1.23v1.2l2.09-.71v6.85h1.42V4.22z"/></g></g></symbol><symbol viewBox="0 0 164.63 164.63" id="icon_comfort"><defs><style>.cls-1{fill:#8b8b8b}</style></defs><title>icon_comfort</title><g id="eLayer_2" data-name="Layer 2"><path class="cls-1" d="M82.31 164.63a82.31 82.31 0 1 1 82.31-82.31 82.41 82.41 0 0 1-82.31 82.31zM82.31 1a81.31 81.31 0 1 0 81.31 81.31A81.41 81.41 0 0 0 82.31 1zM69.47 56.16a2 2 0 1 0-2-2 2 2 0 0 0 2 2zm27.15-.22a2 2 0 1 0-.9-2.75 2 2 0 0 0 .9 2.75zm-14.15-.27a2 2 0 1 0-.9-2.75 2 2 0 0 0 .9 2.75zm34 10.17a10.53 10.53 0 0 0-2.54.32V52.68a16.49 16.49 0 0 0-16.51-16.47H67.5A16.49 16.49 0 0 0 51 52.68v13.48a10.57 10.57 0 0 0-6 20.21h.12v24.09a7.2 7.2 0 0 0 7.19 7.2h1.45a.94.94 0 0 0 0 .11v1.78a3.74 3.74 0 0 0 7.49 0v-1.89h43v1.71a3.74 3.74 0 0 0 7.49 0v-1.71h1a7.2 7.2 0 0 0 7.18-7.19V86.95v-.53h.12a10.57 10.57 0 0 0-3.52-20.54zm-62.9 1.25V52.68a14 14 0 0 1 14-14h29.85a14 14 0 0 1 14 14v14.44a10.58 10.58 0 0 0-5.53 9.29c0 .56-.06 5.82-.13 12.19a9.31 9.31 0 0 0-6.9-3.06h-6.62a159 159 0 0 0-3.38-16l-.27-1.1a4.91 4.91 0 0 0-2.64-3.26c-4.2-2.14-12.15 0-16.49 1.7-1.09-.31-2.19-.63-3.26-1a8.16 8.16 0 0 0-9.49 3.88 10.64 10.64 0 0 0-3.24-2.69zm5.62 48.12a5.09 5.09 0 0 0 .32-1.86c0-.09 0-2.5-.07-6h46.1l-.07 6.05a5 5 0 0 0 .32 1.84zm-.1-38.8a10.51 10.51 0 0 0-.81-4c1.5-4.19 5.1-4.75 7.19-4.09 1.46.46 3 .89 4.42 1.3 4.67 1.32 10 2.81 10 4.88s-1.66 5.11-3 7.59a37.23 37.23 0 0 0-1.74 3.5H66a9.31 9.31 0 0 0-6.84 3c-.05-6.4-.11-11.59-.11-12.18zm14.58-8.35c4.34-1.28 8.9-1.84 11.18-.68A2.39 2.39 0 0 1 86.16 69l.27 1.1c.9 3.61 2.68 10.75 3.29 15.42H77.84c.34-.7.76-1.49 1.2-2.31 1.54-2.86 3.29-6.1 3.29-8.77 0-3.28-3.78-4.9-8.7-6.38zm31.9 36.75H59.38c0-3.23-.08-7-.13-10.81A6.85 6.85 0 0 1 66 88h32.8a6.84 6.84 0 0 1 6.83 6.59c-.02 3.6-.06 7.17-.1 10.22zm-57.95 5.7V86.95c0-1 0-2.28-1.77-2.92a8 8 0 0 1-5.41-7.62 8.08 8.08 0 0 1 16.15 0c0 .73.09 8.94.19 17.44a9.38 9.38 0 0 0-.06 1h.07c.1 8.89.21 17.77.22 18.49a1.81 1.81 0 0 1-.35 1.28c-.53.53-2 .55-3.52.56h-.82a4.7 4.7 0 0 1-4.73-4.67zm11.58 9.09a1.74 1.74 0 0 1-3.49 0v-1.78a.94.94 0 0 0 0-.11h3.49zm48.74 1.56a1.75 1.75 0 0 1-1.74-1.74v-1.71h3.49v1.71a1.75 1.75 0 0 1-1.75 1.74zM119.09 84c-1.77.65-1.77 1.91-1.77 2.92v23.56a4.7 4.7 0 0 1-4.69 4.7h-.87c-1.54 0-2.94 0-3.47-.56a1.79 1.79 0 0 1-.35-1.27c0-.72.11-9.62.22-18.5v-.25c.1-8.77.2-17.46.2-18.22a8.08 8.08 0 0 1 16.15 0 8 8 0 0 1-5.42 7.62z" id="eLayer_1-2" data-name="Layer 1"/></g></symbol><symbol viewBox="0 0 164.63 164.63" id="icon_economy"><defs><style>.cls-1{fill:#8b8b8b}</style></defs><title>icon_economy</title><g id="fLayer_2" data-name="Layer 2"><path class="cls-1" d="M82.31 164.63a82.31 82.31 0 1 1 82.31-82.31 82.41 82.41 0 0 1-82.31 82.31zM82.31 1a81.31 81.31 0 1 0 81.31 81.31A81.41 81.41 0 0 0 82.31 1zm17 70.4a1.25 1.25 0 0 0 .39-1.72c-4-6.26-16.87-9.86-24.25-6.76a1.25 1.25 0 0 0 1 2.31c6.21-2.61 17.89.59 21.17 5.79a1.25 1.25 0 0 0 1.72.39zM105.29 121.81h-9.36a2.25 2.25 0 0 1-2.24-2c-.31-1.13-1.38-5-1.77-6.5a44.83 44.83 0 0 1-19.87.56c-.34 1.28-1.06 4-1.55 5.93a2.25 2.25 0 0 1-2.24 2.06h-9.33a2.25 2.25 0 0 1-2.25-2.25v-.31l.14-.27c1.47-2.8 3.69-7.08 4.57-8.83a32.75 32.75 0 0 1-14-13.86.63.63 0 0 0-.13-.19h-5.92a2.25 2.25 0 0 1-2.25-2.25v-14a2.25 2.25 0 0 1 2.25-2.25l4.85.07a32.22 32.22 0 0 1 4.29-7.84l2 1.51a29.81 29.81 0 0 0-4 7.31v.11a1.78 1.78 0 0 1-2 1.41l-4.91-.07v13.48h5.65a2.49 2.49 0 0 1 2.34 1.46 30.35 30.35 0 0 0 13.61 13.16 1.68 1.68 0 0 1 .94 2c-.11.34-1.67 3.4-4.64 9.08H68v-.06c.39-1.52 1.69-6.51 1.83-6.92a1.75 1.75 0 0 1 2.17-1.08 42.14 42.14 0 0 0 8.73.91 41.62 41.62 0 0 0 11.17-1.51h.1a1.92 1.92 0 0 1 1.39.29 2 2 0 0 1 .81 1.29c.09.48 1.21 4.55 1.89 7v.08h8.61l-4.25-9.23a2.63 2.63 0 0 1-.39-2 2.43 2.43 0 0 1 1.25-1.49c8.24-5.09 12.92-12.65 12.92-20.8 0-10.44-7.78-19.85-19.87-24.1a13.52 13.52 0 0 1-14.75-2.26 39.2 39.2 0 0 0-19.21 5.4l-1.29-2.14a41.8 41.8 0 0 1 21-5.79h.52l.37.36a11 11 0 0 0 12.74 2l.47-.24.5.17c13.4 4.52 22.06 15 22.06 26.64 0 9-5.12 17.37-14 22.89l-.11.07.05.09.07.13 4.68 10.18a2 2 0 0 1-.16 1.87 2.29 2.29 0 0 1-2.04.73zm-33.85-8.11zM54.36 81.37a1.25 1.25 0 0 0 .6-1.66c-2.84-6.08-2.31-12.8-1.57-16.82 6.35.46 11.88 5 14.16 8.18a1.25 1.25 0 1 0 2-1.47c-2.69-3.72-9.5-9.25-17.2-9.25h-1l-.21 1c-.88 4.13-1.86 12.14 1.55 19.43a1.25 1.25 0 0 0 1.66.6zm4.5-27.61C64.62 55.33 69 58.31 70 59.9l2.16-1.26c-1.66-2.83-7.71-6.16-13.77-7.58l-1-.23-.43.93a37.3 37.3 0 0 0-1.87 9.94l2.5.12a41.57 41.57 0 0 1 1.27-8.06zm60.37 32.55a8.28 8.28 0 0 1-4.34-1.21 1.25 1.25 0 0 1 1.3-2.13 6.34 6.34 0 0 0 6.73-.25c-2.65-1.41-4.53-3.85-4.62-6.11a6.44 6.44 0 0 1 5.31-6.78c2.06-.26 4.77.75 5.6 4.47a9.34 9.34 0 0 1-1.43 7.14c1.95 0 4.43-.73 7.12-3.3a1.25 1.25 0 1 1 1.73 1.81c-3.35 3.21-7.23 4.53-10.88 3.8-.26.23-.54.45-.83.65a9.81 9.81 0 0 1-5.69 1.91zm5-14h-.34a3.92 3.92 0 0 0-3.13 4.21c0 1.32 1.62 3.36 4.06 4.35l.17.07a7.05 7.05 0 0 0 1.74-6.1c-.32-1.64-1.22-2.55-2.45-2.55zm-35.47-9.47a13.57 13.57 0 1 1 13.57-13.57 13.58 13.58 0 0 1-13.57 13.57zm0-24.63a11.07 11.07 0 1 0 11.07 11.06 11.08 11.08 0 0 0-11.07-11.06zM59 120.14L56.82 119c1.59-3 4.62-8.82 4.91-9.41l-.29-.78 1.69-.56a1.81 1.81 0 0 1 .85 2.43c-.28.57-4.75 9.1-4.98 9.46zm2.7-10.57a.71.71 0 0 0 .29.89z" id="fLayer_1-2" data-name="Layer 1"/></g></symbol><symbol viewBox="0 0 184 184" id="icon_garage"><defs><style>.cls-1{fill:#00a0ad}</style></defs><title>icon_garage</title><g id="gLayer_2" data-name="Layer 2"><path class="cls-1" d="M92 184a92 92 0 1 1 92-92 92.1 92.1 0 0 1-92 92zM92 4a88 88 0 1 0 88 88A88.1 88.1 0 0 0 92 4zm36.26 70.08h-.06c-10.44-5.31-34.75-17.66-35-17.76a2.23 2.23 0 0 0-2.08 0L57 74.08a4 4 0 0 0-2 3.41v54a4 4 0 0 0 4 4h67.27a4 4 0 0 0 4-4v-54a4 4 0 0 0-2.01-3.41zm-59.16 50.4h47.35V132a.76.76 0 0 1-.75.75H69.85a.76.76 0 0 1-.75-.75zm47.35-1H69.1v-9h47.35zm0-10H69.1v-8.07h47.35zm-47.35-9.06v-8.07h47.35v8.07zm47.35-9.07H69.1V87a.76.76 0 0 1 .75-.75h45.85a.76.76 0 0 1 .75.75zm11.27 36.17a1.46 1.46 0 0 1-1.46 1.46h-7.48a3.21 3.21 0 0 0 .17-1V87a3.25 3.25 0 0 0-3.25-3.25H69.85A3.25 3.25 0 0 0 66.6 87v45a3.21 3.21 0 0 0 .17 1H59a1.46 1.46 0 0 1-1.46-1.46v-54a1.42 1.42 0 0 1 .68-1.22l34-17.69L127 76.25a1.44 1.44 0 0 1 .7 1.24zm19-57.33c-8.86-4.5-53.08-27-53.44-27.13a2.72 2.72 0 0 0-2.6 0L38.57 74.2a1.25 1.25 0 0 0 1.15 2.22l52.08-27.1c.17-.09.17-.09.4 0 .84.41 52.83 26.82 53.36 27.09a1.25 1.25 0 1 0 1.13-2.23z" id="gкруги"/></g></symbol><symbol viewBox="0 0 184 184" id="icon_lamp"><defs><style>.cls-1{fill:#00a0ad}</style></defs><title>icon_lamp</title><g id="hLayer_2" data-name="Layer 2"><path class="cls-1" d="M92.58 45a4.17 4.17 0 0 0-.66 0 34.46 34.46 0 0 0-33.7 34.29c0 10.67 7.74 20.56 11.9 25.88.66.85 1.25 1.59 1.7 2.21 2.88 3.94 1.92 11.16 1.91 11.24v.23a4.68 4.68 0 0 0 1.66 3.56v10.8a15.48 15.48 0 0 0 6.27 12.43 15.4 15.4 0 0 0 9.21 3.06h2.74a15.52 15.52 0 0 0 15.51-15.51v-10.8a4.68 4.68 0 0 0 1.66-3.56v-.23c-.28-2-.49-7.95 1.91-11.23.45-.62 1-1.37 1.7-2.21 4.16-5.32 11.9-15.21 11.9-25.88A34.46 34.46 0 0 0 92.58 45zM80 138.79l25.76-10.3v4.74a12.18 12.18 0 0 1-.22 2.29l-21.25 8a12.26 12.26 0 0 1-4.29-4.73zm25.76-11.49l-26.17 10.48a12.11 12.11 0 0 1-.89-4.56v-2.06l19-7.41h8.1zm-11.15-3.54l-16 6.22v-6.22zm-1 21.66h-2.73a12.09 12.09 0 0 1-5.28-1.22l19.66-7.37a12.21 12.21 0 0 1-11.64 8.58zm18.15-42.27c-.69.88-1.29 1.66-1.77 2.3-3.46 4.74-2.68 12.33-2.54 13.51a1.39 1.39 0 0 1-1.39 1.3h-13v-26A.54.54 0 0 0 93 94l6.77-5.42a.55.55 0 1 0-.69-.86L92.53 93 86 87.73a.55.55 0 0 0-.69.86L92 94a.54.54 0 0 0-.06.24v26H78.42A1.39 1.39 0 0 1 77 119c.15-1.18.92-8.77-2.54-13.51-.47-.65-1.08-1.42-1.77-2.3C68.5 97.84 61.5 88.88 61.5 79.36A31.12 31.12 0 0 1 92 48.33h.5a31.12 31.12 0 0 1 30.46 31c.04 9.5-6.96 18.46-11.19 23.81zm3.91-26.45a.55.55 0 0 1-.55.56.55.55 0 0 1-.55-.55A20.08 20.08 0 0 0 94.2 56.93a.53.53 0 0 1-.56-.55.55.55 0 0 1 .55-.56h.31a21.21 21.21 0 0 1 21.18 20.87zM92 184a92 92 0 1 1 92-92 92.1 92.1 0 0 1-92 92zM92 4a88 88 0 1 0 88 88A88.1 88.1 0 0 0 92 4z" id="hкруги"/></g></symbol><symbol viewBox="0 0 184 184" id="icon_lick"><defs><style>.cls-1{fill:#00a0ad}</style></defs><title>icon_lick</title><g id="iLayer_2" data-name="Layer 2"><path class="cls-1" d="M122.13 47.5h-17.26c-3.05 0-4.92 4.48-4.92 6.93v6.15a4.93 4.93 0 0 0 4.05 4.83V89.5c0 8.79-1.07 11.59-2 12.39-.43.38-1 .36-2.11.22a13.1 13.1 0 0 0-2.47-.07c-1.46.09-2.4.09-3.2-.66-1-1-2.24-3.63-2.24-10.89 0-26-15.49-27.17-28.58-27.44a4.92 4.92 0 0 0-4.84-4.11h-6.13a4.93 4.93 0 0 0-4.93 4.92v17.27a4.93 4.93 0 0 0 4.93 4.92h6.15a4.93 4.93 0 0 0 4.83-4c2.92.09 6 .35 7.51 1.19 1 .59 2.09 1.19 2.09 7.25 0 19.26 7.65 25.59 15 28.5-3.48 5.57-6.51 11.43-6.51 14.92 0 8.22 7.63 14.91 17 14.91s17-6.69 17-14.91c0-3.49-2.81-9.38-6-15a19 19 0 0 0 6.37-4.9c4.84-5.68 7.14-10.8 7.14-24.54V65.41a4.93 4.93 0 0 0 4.05-4.84v-6.14c-.01-2.43-1.88-6.93-4.93-6.93zM58.57 83.05h-6.14a1.93 1.93 0 0 1-1.93-1.92V63.87a1.93 1.93 0 0 1 1.93-1.92h6.15a1.93 1.93 0 0 1 1.93 1.92v17.26a1.93 1.93 0 0 1-1.94 1.92zM76 90.5c0-5.9-.87-8.3-3.6-9.86-2-1.15-5.38-1.47-8.9-1.58v-13C76.29 66.33 89 67.44 89 90.5c0 6.88 1 11 3.19 13.08a6.21 6.21 0 0 0 4.9 1.5c-1.32 1.83-4.26 6-6.85 10.46l-.59.89C82.71 113.84 76 108.37 76 90.5zm22.5 55.33c-7.72 0-14-5.34-14-11.91 0-2.87 3-8.4 6.43-13.9l.21.07.6-1.09c.29-.53.59-1.07.9-1.6 2.32-3.5 4.7-6.8 6.48-9.18.77 1.12 1.67 2.45 2.61 3.9 1.27 2.12 2.65 4.55 3.84 6.93l.58 1.17.48-.16c3.18 5.48 5.86 11 5.86 13.87.01 6.55-6.27 11.9-13.99 11.9zM120 89.5c0 12.87-2 17.37-6.43 22.59a16 16 0 0 1-5.62 4.24c-1.3-2.16-2.6-4.2-3.75-6-1.34-2.23-2.54-4.09-3.26-5.18a4.51 4.51 0 0 0 3.08-1.07c2.09-1.85 3-6.23 3-14.63V66h13zm4.05-28.93a1.93 1.93 0 0 1-1.92 1.93h-17.26a1.93 1.93 0 0 1-1.92-1.93v-6.14c0-1.6 1.35-3.93 1.92-3.93h17.25c.57 0 1.92 2.32 1.92 3.93zm-15.26 73.8a.5.5 0 1 1 1 .28c-1.35 4.6-6.13 7.67-11.34 7.67a13.31 13.31 0 0 1-2.86-.31.5.5 0 1 1 .21-1c5.7 1.29 11.54-1.7 12.99-6.64zM92 184a92 92 0 1 1 92-92 92.1 92.1 0 0 1-92 92zM92 4a88 88 0 1 0 88 88A88.1 88.1 0 0 0 92 4z" id="iLayer_3" data-name="Layer 3"/></g></symbol><symbol viewBox="0 0 184 184" id="icon_lock"><defs><style>.cls-1{fill:#00a0ad}</style></defs><title>icon_lock</title><g id="jLayer_2" data-name="Layer 2"><path class="cls-1" d="M119.37 84.77V70.1c0-15.77-11.05-28.6-24.64-28.6h-5.46c-13.58 0-24.64 12.83-24.64 28.6v14.67a7.21 7.21 0 0 0-3.13 5.94v40.06a7.23 7.23 0 0 0 7.22 7.23h46.56a7.23 7.23 0 0 0 7.22-7.22V90.72a7.21 7.21 0 0 0-3.13-5.95zM67.63 70.1c0-14.12 9.71-25.6 21.64-25.6h5.46c11.93 0 21.64 11.49 21.64 25.6v13.29h-42V70.31c0-10.2 7-18.49 15.71-18.49h3.83c8.66 0 15.71 8.29 15.71 18.49v9.19h1v-9.19c0-10.75-7.5-19.49-16.71-19.49h-3.83c-9.21 0-16.71 8.74-16.71 19.49v13.08h-5.74zm51.87 60.68a4.22 4.22 0 0 1-4.22 4.22H68.72a4.22 4.22 0 0 1-4.22-4.22V90.72a4.22 4.22 0 0 1 4.22-4.22h46.56a4.22 4.22 0 0 1 4.22 4.22zm-23.91-19.69v-8.32a1.78 1.78 0 0 0-1.77-1.77h-3.64a1.78 1.78 0 0 0-1.77 1.77v8.32a6.48 6.48 0 1 0 7.18 0zM92 122a5.48 5.48 0 0 1-2.83-10.17l.24-.15v-8.87a.77.77 0 0 1 .77-.77h3.63a.77.77 0 0 1 .77.77v8.88l.24.15A5.48 5.48 0 0 1 92 122zm0 62a92 92 0 1 1 92-92 92.1 92.1 0 0 1-92 92zM92 4a88 88 0 1 0 88 88A88.1 88.1 0 0 0 92 4z" id="jкруги"/></g></symbol><symbol viewBox="0 0 212.65 41.04" id="icon_partners_dropcam"><defs><style>.cls-1{fill:#a09f9f}</style></defs><title>icon_partners_dropcam</title><g id="kLayer_2" data-name="Layer 2"><g id="kLayer_1-2" data-name="Layer 1"><path class="cls-1" d="M177.62 21.08a11.62 11.62 0 1 0-5 10.09 2.43 2.43 0 0 0 2.26 1.83h2.76V21.08zM166 28.29a6.63 6.63 0 1 1 6.63-6.63 6.64 6.64 0 0 1-6.63 6.63M93.44 10.06A11.6 11.6 0 1 0 105 21.66a11.61 11.61 0 0 0-11.6-11.6m0 18.27a6.67 6.67 0 1 1 6.67-6.67 6.68 6.68 0 0 1-6.67 6.67M204.49 10.07a8.46 8.46 0 0 0-6.62 3 7.46 7.46 0 0 0-6.22-3 6.07 6.07 0 0 0-5.09 2.79l-.09-2.39h-4.88V33h5V19.73c0-2.87 1.78-4.95 4.25-4.95s3.84 1.68 3.84 4.61V33h4.94V19.62c0-3.34 2.11-4.84 4.21-4.84 3.38 0 3.88 2.94 3.88 4.69V33h2.49a2.49 2.49 0 0 0 2.49-2.49v-11.7c0-5.31-3.2-8.74-8.15-8.74M79.05 10.06a6.19 6.19 0 0 0-5 2.81l-.09-2.39h-4.91V33h2.48A2.51 2.51 0 0 0 74 30.73v-9.98c0-2.87.72-5.45 3.88-5.9a6.22 6.22 0 0 1 2.56.2l1.66-4.54a7.66 7.66 0 0 0-3.08-.45"/><path class="cls-1" d="M149.6 27.49l-.41.17a5.46 5.46 0 0 1-2.82.62 6.63 6.63 0 1 1 4.14-11.79l3.38-3.49a10.91 10.91 0 0 0-7.53-3 11.6 11.6 0 1 0 0 23.2 11.46 11.46 0 0 0 7.79-3l-1.91-2.13a2.45 2.45 0 0 0-2.64-.61M60.13 4.57v7.58a11.6 11.6 0 1 0-6.63 21.11 10.48 10.48 0 0 0 6.65-2.54l.07 2.28h4.88V2.27h-2.48a2.51 2.51 0 0 0-2.49 2.3M53.5 28.29a6.63 6.63 0 1 1 6.63-6.63 6.64 6.64 0 0 1-6.63 6.63M113.27 38.74v-7.58A11.6 11.6 0 1 0 119.9 10a10.46 10.46 0 0 0-6.65 2.6l-.07-2.17h-4.88V41h2.48a2.5 2.5 0 0 0 2.49-2.3M119.9 15a6.63 6.63 0 1 1-6.63 6.63A6.64 6.64 0 0 1 119.9 15M28.92 5a16.94 16.94 0 0 0-24 24l5.29 5.3a6.2 6.2 0 0 1 1.89-4.69l3.28-3.29-3.89-3.89a7.63 7.63 0 0 1 5.41-13 7.56 7.56 0 0 1 5.39 2.23 7.65 7.65 0 0 1 0 10.81l-5.38 5.4L13.66 31a4.55 4.55 0 0 0-.18 6.4l3.47 3.47 5.41-5.41 6.56-6.59a17 17 0 0 0 0-24"/></g></g></symbol><symbol viewBox="0 0 952.8 192.7" id="icon_partners_ecobee"><defs><style>.cls-1{fill:#9e9e9e}</style></defs><title>icon_partners_ecobee</title><g id="lLayer_2" data-name="Layer 2"><g id="lLogomark"><path class="cls-1" d="M302.7 139.4c14.7 0 25-6 33.7-15.1l9.9 8.9c-10.7 12-23.7 20-44 20-29.3 0-53.3-22.5-53.3-55.8 0-31 21.7-55.8 51.2-55.8 31.6 0 49.8 25.2 49.8 56.6 0 1.4 0 3.1-.2 5.6h-84.7c2.2 22.6 18.8 35.6 37.6 35.6zm31.1-48.3c-1.9-19.4-13-35.9-34.1-35.9-18.4 0-32.4 15.3-34.7 35.9zM366.7 97.9v-.4c0-30.2 23.5-55.8 54.7-55.8 20.2 0 32.8 8.5 42.7 19l-10.5 11.2c-8.5-8.9-18-16.1-32.4-16.1-21.7 0-38.2 18.4-38.2 41.3v.4c0 23.1 16.9 41.5 39.2 41.5 13.6 0 24.2-6.8 32.6-15.9l10.1 9.5c-10.7 12-23.5 20.6-43.5 20.6-31.2 0-54.7-25.4-54.7-55.3zM477.5 97.9v-.4c0-30.2 23.5-55.8 55.8-55.8 32 0 55.6 25.2 55.6 55.3v.4a55.42 55.42 0 0 1-56 55.8c-32.1 0-55.4-25.1-55.4-55.3zm95 0v-.4c0-22.9-17.1-41.7-39.6-41.7-23.1 0-39 18.8-39 41.3v.4c0 22.9 16.9 41.5 39.4 41.5 23.1 0 39.2-18.6 39.2-41.1zM624.1 130.3v20.4h-15.9V0h15.9v65.5c8.7-12.8 21.3-23.7 40.9-23.7 25.6 0 51 20.2 51 55.3v.4c0 34.9-25.2 55.6-51 55.6-19.8-.1-32.6-10.8-40.9-22.8zm75.6-32.6v-.4c0-25.2-17.3-41.3-37.6-41.3-19.8 0-38.6 16.7-38.6 41.1v.4c0 24.8 18.8 41.3 38.6 41.3 20.6 0 37.6-15.3 37.6-41.1zM787.8 139.4c14.7 0 25-6 33.7-15.1l9.9 8.9c-10.7 12-23.7 20-44 20-29.3 0-53.3-22.5-53.3-55.8 0-31 21.7-55.8 51.2-55.8 31.6 0 49.8 25.2 49.8 56.6 0 1.4 0 3.1-.2 5.6h-84.7c2.2 22.6 18.8 35.6 37.6 35.6zm31.1-48.3c-1.9-19.4-13-35.9-34.1-35.9-18.4 0-32.4 15.3-34.7 35.9zM905.5 139.4c14.7 0 25-6 33.7-15.1l9.9 8.9c-10.7 12-23.7 20-44 20-29.3 0-53.3-22.5-53.3-55.8 0-31 21.7-55.8 51.2-55.8 31.6 0 49.8 25.2 49.8 56.6 0 1.4 0 3.1-.2 5.6h-84.7c2.3 22.6 18.8 35.6 37.6 35.6zm31.2-48.3c-1.9-19.4-13-35.9-34.1-35.9-18.4 0-32.4 15.3-34.7 35.9zM76.4 180.8a33.7 33.7 0 0 1-17-5.8l-4.4 6.5 4.4-6.5a32.68 32.68 0 0 1-11.7-13.7c-1.4-2.1-1.7 0-1.7 0-4.8 18.5 3.4 26.6 4.1 27.2v.1c.8.4 11.3 5.1 26.8-6.1.1-.1 2-1.2-.5-1.7zm38.5-20.8s-17.1.7-36.7-12.6S53 117.8 53 117.8c-.4-1.3-.9-.5-.9-.5-5.3 7.7-6.9 12.2-3.9 24.5 2.9 11.9 17.2 22 18.2 22.7 1 .7 15.7 10.3 27.8 8.6 12.5-1.8 16.1-4.8 21.4-12.6.1.1.7-.6-.7-.5zm86.4-26.9c-3.2-26.7-17.5-48-23.1-54.1 0 0-.5-.2-.1-1.3s1.4-4.3 1.4-4.3 0-.3.6-.5a21.6 21.6 0 0 0 12.4-9.1c5.1-7.5 8.5-23.2-9.1-35.2 0 0-.1-.1-.2-.8s-3-13.6-10.7-18.8c-7.8-5.3-20.7-3.2-21.4-3s-.9.1-.9.1c-17.5-11.9-30.9-3.1-36.1 4.4a21.81 21.81 0 0 0-3.9 14.9c0 .7-.3.8-.3.8s-2.6 2.1-3.5 2.9-1.2.4-1.2.4c-7.7-2.9-32.8-8.4-58.8-1.6S10.1 44.3 4.5 52.7-4.4 77.8 13.4 90s43.2 11 43.2 11c.8-.1.9.5.9.5 6.2 21.9 26.6 34.7 28 35.6s20.8 15.3 43.4 13a.73.73 0 0 1 .8.6s8.2 24 26.1 36.1 32.3 3 38-5.3c5.5-8.7 10.7-21.8 7.5-48.4zm-21.9-92.5a11.66 11.66 0 1 1-16.2 3.1 11.71 11.71 0 0 1 16.2-3.1zm-38.8-26.4a11.66 11.66 0 1 1-16.2 3.1 11.71 11.71 0 0 1 16.2-3.1zM17.2 67.7s-3.7-21 43-27.8c51.3-7.5 53.7 17.5 53.7 17.5s3.6 19-40.5 27.4S15.7 70 17.2 67.7zm83.9 46.4c-.1-.1-.2-.1-.2-.2h-.1C88 105.4 83.4 97.7 83.4 97.7c10.9-1.6 23.7-8.3 23.7-8.3l7.1 5 .1.1h.1l7.2 4.8s-1.6 14.4.9 25.1c0 0-8.8-1.5-21.4-10.3zm73.5 60.4c-1.6 2.3-27.9-1.8-36.2-45.6S149 81.5 149 81.5s23.9-6.9 35.6 43.2c10.7 45.6-10 49.8-10 49.8z"/></g></g></symbol><symbol viewBox="0 0 2500 1140.9" id="icon_partners_nest"><defs><style>.cls-1{fill:#9e9e9e}</style></defs><title>icon_partners_nest</title><g id="mLayer_2" data-name="Layer 2"><path class="cls-1" d="M1868.2 767.1c48.2 20.8 77 60 77 104.6 0 59.1-45 94.3-120.5 94.3-80.1 0-117.3-71.2-126.8-93l-11.7-26.9h-150l-.2-.1h-139c-38 63.9-114.4 122.8-203.3 122.8-160.4 0-240.5-126.5-250.7-251.4h655.7V690c0-51.8-5.3-100.5-15.3-145.8 18.8 58.1 61.6 118.3 151.3 160.9 32.5 15.8 82 39.3 133.5 62m-684-396.9c134.2 0 199.9 93.4 219 188.6H956.5c23.3-95.4 106.1-188.6 227.7-188.6m1315.8 2.7V202h-139.4V0h-171.1v202h-344.7c-159.2.1-274.7 108.1-274.7 257a292.48 292.48 0 0 0 4.6 51.1C1520.4 320.5 1377.4 202 1185.4 202 950.6 202 771 386.6 756 636.6v-53.2C756 373.1 586.4 202 378 202S0 373.1 0 583.4v546.9h173.2V583.4c0-113.9 91.8-206.6 204.8-206.6s204.8 92.7 204.8 206.6v546.9H756V704.8c15.1 250.9 197 436.1 434.9 436.1 145.2 0 273.3-85.1 345.9-183.7 54.1 116.8 159.9 183.7 290.6 183.7 151.5 0 304.7-97.6 304.7-284.3 0-111.7-64.3-203-181.1-257.2-12.9-5.9-25.7-12-38.5-18.2l-1.6-.8c-13.7-6.6-27.5-13-41.3-19.4-76.3-34.6-112.6-59.9-112.6-110.4 0-44.4 39.4-77.8 88-77.8h344.5v487c0 155 124.9 281.1 278.5 281.1V968.2c-59.2 0-107.4-48.6-107.4-108.3v-487c68.5.1 121.2 0 139.4 0" id="mLayer_1-2" data-name="Layer 1"/></g></symbol><symbol viewBox="0 0 184 184" id="icon_plug"><defs><style>.cls-1{fill:#00a0ad}</style></defs><title>icon_plug</title><g id="nLayer_2" data-name="Layer 2"><path class="cls-1" d="M124.25 73h-6.75V51.5a4 4 0 0 0-8 0V73H78V51a4 4 0 0 0-8 0v22h-7.75a5.5 5.5 0 0 0 0 11h1.48v19A27 27 0 0 0 86 129.58V146h2v-16.14a27.19 27.19 0 0 0 2.73.14h5a27.11 27.11 0 0 0 3.23-.2V146h2v-16.51A27 27 0 0 0 122.77 103V84h1.48a5.5 5.5 0 0 0 0-11zM110.5 51.5a3 3 0 0 1 6 0V73h-6zM71 51a3 3 0 0 1 6 0v22h-6zm48.77 52a24 24 0 0 1-24 24h-5a24 24 0 0 1-24-24V84h53zm4.48-22h-62a2.5 2.5 0 0 1 0-5h62a2.5 2.5 0 0 1 0 5zm-33 40.08a.5.5 0 0 1 .59-.39 19.32 19.32 0 0 0 22.82-15c.81-5.59-.17-17.48-.18-17.6a.5.5 0 0 1 1-.08c0 .49 1 12.12.16 17.86a20.31 20.31 0 0 1-24 15.85.5.5 0 0 1-.37-.64zM92 184a92 92 0 1 1 92-92 92.1 92.1 0 0 1-92 92zM92 4a88 88 0 1 0 88 88A88.1 88.1 0 0 0 92 4z" id="nкруги"/></g></symbol><symbol viewBox="0 0 61 96.5" id="icon_secure"><defs><style>.cls-1,.cls-2{fill:none;stroke:#fff;stroke-miterlimit:10}.cls-1{stroke-width:3px}</style></defs><title>icon_secure</title><g id="oLayer_2" data-name="Layer 2"><g id="oLayer_1-2" data-name="Layer 1"><rect class="cls-1" x="1.5" y="43.5" width="58" height="51.5" rx="5.72" ry="5.72"/><path class="cls-1" d="M56.37 43.39V28.6C56.37 13.7 46 1.5 33.23 1.5h-5.46C15 1.5 4.63 13.7 4.63 28.6v14.79z"/><path class="cls-2" d="M12.38 44.07V28.81c0-10.44 7.29-19 16.21-19h3.83c8.92 0 16.21 8.55 16.21 19V38"/></g><path class="cls-2" d="M33.59 69.87v-8.6A1.28 1.28 0 0 0 32.32 60h-3.64a1.28 1.28 0 0 0-1.27 1.27v8.59a6 6 0 1 0 6.18 0z" id="oLayer_6" data-name="Layer 6"/></g></symbol><symbol viewBox="0 0 164.63 164.63" id="icon_security"><defs><style>.cls-1{fill:#8b8b8b}</style></defs><title>icon_security</title><g id="pLayer_2" data-name="Layer 2"><path class="cls-1" d="M82.31 164.63a82.31 82.31 0 1 1 82.31-82.31 82.41 82.41 0 0 1-82.31 82.31zM82.31 1a81.31 81.31 0 1 0 81.31 81.31A81.41 81.41 0 0 0 82.31 1zm23.6 56.26A1.25 1.25 0 1 0 107 55c-9.94-5-33.08-16.8-33.3-16.9a2.17 2.17 0 0 0-2 0L39.29 55l1.15 2.22 32.33-16.79zm23.43 29.09a1.25 1.25 0 0 0-.9-.44 10.15 10.15 0 0 1-9.73-10.05 1.25 1.25 0 0 0-1.25-1.24H100.6V61a3.23 3.23 0 0 0-1.6-2.81l-25.27-12.8a2 2 0 0 0-1.81 0l-24.6 12.8A3.21 3.21 0 0 0 45.73 61v38.92a3.21 3.21 0 0 0 3.2 3.2h33c3.57 9.49 10 18.85 21.45 24.69a1.25 1.25 0 0 0 1.14 0c9.94-5.07 22.38-16.22 25.16-40.51a1.25 1.25 0 0 0-.34-.95zm-47 10a67.57 67.57 0 0 1-1.54-8 12.63 12.63 0 0 0 10.74-11.23h11.12v19H82.37zm-3.89-9.88a1.26 1.26 0 0 0-.29 1v.08h-14a.71.71 0 0 1-.7-.7V69.64a.71.71 0 0 1 .7-.7h17.15a.71.71 0 0 1 .7.7v15.88a10.21 10.21 0 0 1-2.64.47 1.26 1.26 0 0 0-.89.44zm-29.52 14.15a.7.7 0 0 1-.7-.7V61a.68.68 0 0 1 .3-.57l24.34-12.68 24.89 12.63a.69.69 0 0 1 .35.6v13.63h-7.76a1.25 1.25 0 0 0-1.25 1.25 10.12 10.12 0 0 1-4.58 8.46V69.64a3.21 3.21 0 0 0-3.2-3.2H64.19a3.21 3.21 0 0 0-3.2 3.2v17.12a3.21 3.21 0 0 0 3.2 3.2h14.34A66.83 66.83 0 0 0 81 100.62H48.93zM83 98.56h19.66v26c-11.04-6.29-16.76-16.31-19.66-26zm22.16 26v-26h19.66c-2.9 9.69-8.63 19.71-19.66 26.04zm20.35-28.54h-20.35v-19h11.13A12.66 12.66 0 0 0 127 88.28a67.84 67.84 0 0 1-1.49 7.78z" id="pLayer_1-2" data-name="Layer 1"/></g></symbol><symbol viewBox="0 0 184 184" id="icon_sensor"><defs><style>.cls-1{fill:#00a0ad}</style></defs><title>icon_sensor</title><g id="qLayer_2" data-name="Layer 2"><path class="cls-1" d="M120.84 90.55a28.09 28.09 0 0 1-4.37 15.08.56.56 0 1 1-.94-.6 27.06 27.06 0 1 0-45.72 0 .56.56 0 0 1-.94.6 28.18 28.18 0 1 1 52-15.08zM92.67 42C67.92 42 47 63.42 47 88.77a45.62 45.62 0 0 0 11.21 30 .56.56 0 1 0 .84-.73 44.51 44.51 0 0 1-10.92-29.27c0-24.75 20.39-45.65 44.53-45.65S137.2 64 137.2 88.77A44.51 44.51 0 0 1 126.26 118a.56.56 0 1 0 .84.73 45.62 45.62 0 0 0 11.21-30C138.32 63.42 117.41 42 92.67 42zm13.42 54.24v37.68c0 4.24-3.3 7.08-8.2 7.08H87.45c-4.91 0-8.2-2.85-8.2-7.08V96.24a8.21 8.21 0 0 1 8.2-8.2h10.43a8.21 8.21 0 0 1 8.21 8.2zm-3.35 0a4.85 4.85 0 0 0-4.85-4.85H87.45a4.85 4.85 0 0 0-4.85 4.85v37.68c0 3.46 3.71 3.73 4.85 3.73h10.43c1.14 0 4.85-.27 4.85-3.73zM184 92a92 92 0 1 0-92 92 92.1 92.1 0 0 0 92-92zm-4 0A88 88 0 1 1 92 4a88.1 88.1 0 0 1 88 88z" id="qкруги"/></g></symbol><symbol viewBox="0 0 184 184" id="icon_smarthub"><defs><style>.cls-1{fill:#00a0ad}</style></defs><title>icon_smarthub</title><g id="rLayer_2" data-name="Layer 2"><g id="rLayer_1-2" data-name="Layer 1"><g id="rLayer_2-2" data-name="Layer 2"><g id="rLayer_1-2-2" data-name="Layer 1-2"><path class="cls-1" d="M92 184a92 92 0 1 1 92-92 92 92 0 0 1-92 92zM92 4a88 88 0 1 0 88 88A88 88 0 0 0 92 4zm37.6 99.5H123v-36a6.5 6.5 0 0 0-13 0v36H55.4c-6.1 0-10.9 3-10.9 6.8v15.3c0 3.8 4.8 6.8 10.9 6.8h74.1c6.1 0 10.9-3 10.9-6.8v-15.3c.1-3.8-4.7-6.8-10.8-6.8zm-16.6-36a3.5 3.5 0 0 1 7 0v36h-7zm24.5 58.1c0 1.8-3.4 3.8-7.9 3.8H55.5c-4.5 0-7.9-2-7.9-3.8v-15.3c0-1.8 3.4-3.8 7.9-3.8h74.1c4.5 0 7.9 2 7.9 3.8zM98.5 84a.6.6 0 0 0 .4-.1.48.48 0 0 0 0-.68 23.66 23.66 0 0 1 0-33.4.49.49 0 0 0-.7-.7 24.75 24.75 0 0 0 0 34.9zm34.6-.1c.1.1.2.1.4.1s.3 0 .4-.1a24.75 24.75 0 0 0 0-34.9.49.49 0 0 0-.7.7 23.66 23.66 0 0 1 0 33.4c-.3.3-.3.6-.1.8zm-5-10.2c.1.1.2.1.4.1s.3 0 .4-.1a11.83 11.83 0 0 0 0-16.6.49.49 0 0 0-.7.7 10.66 10.66 0 0 1 3.1 7.6 10.83 10.83 0 0 1-3.1 7.6.43.43 0 0 0-.1.7zm-24.4.2a.6.6 0 0 0 .4-.1.48.48 0 0 0 0-.68 10.62 10.62 0 0 1-.08-15l.08-.08a.49.49 0 0 0-.7-.7 11.71 11.71 0 0 0 0 16.56c.1-.1.2 0 .3 0zM63.6 115a4 4 0 0 0-1.3 7.9h.6a4.15 4.15 0 0 0 4-3.4 3.93 3.93 0 0 0-3.27-4.5zm2.4 4.5a3 3 0 0 1-5.9-.9 2.93 2.93 0 0 1 3-2.5h.5a3 3 0 0 1 2.4 3.4zm9.6-3.7a4 4 0 0 0-.7 5.6 4.18 4.18 0 0 0 3.2 1.6 4 4 0 1 0-2.5-7.2zm4.2 5.6a3 3 0 1 1 .4-4.22l.1.12a2.81 2.81 0 0 1-.32 4z" id="rLayer_3" data-name="Layer 3"/></g></g></g></g></symbol><symbol viewBox="0 0 184 184" id="icon_tempretature"><defs><style>.cls-1{fill:#00a0ad}</style></defs><title>icon_temperature</title><g id="sLayer_2" data-name="Layer 2"><path class="cls-1" d="M106.3 100.79V58.47a8.81 8.81 0 0 0-8.8-8.8h-3.2a8.81 8.81 0 0 0-8.8 8.8v42.33a20.83 20.83 0 1 0 20.8 0zm-10.4 35.88A17.83 17.83 0 0 1 87.69 103l.81-.42V58.47a5.81 5.81 0 0 1 5.8-5.8h3.2a5.81 5.81 0 0 1 5.8 5.8v44.13l.81.42a17.83 17.83 0 0 1-8.21 33.65zM97 110l-.3-47.5h-1L96 110a9 9 0 1 0 1 0zm-.8 17a8 8 0 1 1 8-8 8 8 0 0 1-8 8zM80 63H51v-1h29zm-16 7v-1h16v1zm16 7H51v-1h29zm-16 7v-1h16v1zm16 8H51v-1h29zm12 92a92 92 0 1 1 92-92 92.1 92.1 0 0 1-92 92zM92 4a88 88 0 1 0 88 88A88.1 88.1 0 0 0 92 4z" id="sкруги"/></g></symbol><symbol viewBox="0 0 56 25.25" id="icon_wireless"><defs><style>.cls-1{fill:#fff}</style></defs><title>icon_wireless</title><g id="tLayer_2" data-name="Layer 2"><g id="tLayer_1-2" data-name="Layer 1"><path class="cls-1" d="M55 12.55l1-1a39.71 39.71 0 0 0-56 0l1 1a38.2 38.2 0 0 1 54 0z"/><path class="cls-1" d="M45.7 17.85a25 25 0 0 0-35.4 0l1 1a23.66 23.66 0 0 1 33.4 0zM20.7 24.15l1 1.1a9.54 9.54 0 0 1 6.4-2.7 8.69 8.69 0 0 1 6.4 2.7l1-1a10.29 10.29 0 0 0-14.6-.1z"/></g></g></symbol><symbol viewBox="0 0 74.83 105.7" id="loc_pointer"><defs><style>.cls-1{fill:#fff;stroke:#2fa0a9;stroke-width:4px}.cls-1,.cls-3{stroke-miterlimit:10}.cls-2{fill:#00a0ad}.cls-3{fill:#2fa0a9;stroke:#00a0ad}</style></defs><title>loc_pointer</title><g id="uLayer_2" data-name="Layer 2"><g id="uСлой_1" data-name="Слой 1"><path class="cls-1" d="M72.62 37.2a35.2 35.2 0 1 0-70.4 0s-5 21.5 33 65.2c0 0 1.3 1.3 2.2 1.3s2.2-1.3 2.2-1.3c38-43.7 33-65.2 33-65.2z"/><g id="uLayer_1-2" data-name="Layer 1"><path class="cls-2" d="M37.42 50a11.83 11.83 0 0 1-8.2-3.3 12.11 12.11 0 0 1-3.8-8s1.4.3 1.4.5a10.73 10.73 0 0 0 10.6 9.3 10.61 10.61 0 0 0 9.8-6.5l1.3.5a12 12 0 0 1-11.1 7.5zM47.52 34.4a10.71 10.71 0 0 0-10.1-7.1 11.48 11.48 0 0 0-8.9 4.8c-.1.2-1.2-.6-1.2-.6a12 12 0 0 1 21.8 3.3 6.18 6.18 0 0 1-1.6-.4z"/><path class="cls-3" d="M38.32 59.7h-1a21.74 21.74 0 0 1-21.7-20.6 25.94 25.94 0 0 1 .4-5.5l.5-2.6 1.4 2.2c.3.5.8 1 1.2 1.6l.3.4-.1.5a17.74 17.74 0 0 0-.2 3.2A17.84 17.84 0 0 0 25 51.4a18.34 18.34 0 0 0 13 4.7 17.49 17.49 0 0 0 6.8-1.7 16.9 16.9 0 0 0 5.7-4.2 6.94 6.94 0 0 0 1.8-3.5 4.81 4.81 0 0 0-.4-2.9 7.59 7.59 0 0 0-4.6-3.2 32.49 32.49 0 0 0-9.7-1.3 31 31 0 0 1-11.3-1.9c-3.2-1.3-5.4-3.3-6.4-5.7a7.68 7.68 0 0 1 1.6-8.9c3.2-3.5 9.2-6.1 14.6-6.3a21.6 21.6 0 0 1 15.7 5.6 22.18 22.18 0 0 1 5 6.7 21.65 21.65 0 0 1 2.1 8.3 19.1 19.1 0 0 1-.2 4.1l-.3 1.2-1-1.9a16 16 0 0 0-2.2-2.8v-.5a18 18 0 0 0-18-17.1h-.9a18.19 18.19 0 0 0-12.2 5.5 4 4 0 0 0-.8 4.5A7.88 7.88 0 0 0 28 34a26.5 26.5 0 0 0 9.6 1.5c9.2 0 15.5 2.3 17.7 6.5a9 9 0 0 1 .9 4.7 9.6 9.6 0 0 1-3 6.1 21.46 21.46 0 0 1-6.7 4.9 23 23 0 0 1-8.2 2z"/></g></g></g></symbol><symbol viewBox="0 0 49.12 53.5" id="modularity"><defs><style>.cls-1{fill:#fff;stroke:#fff;stroke-miterlimit:10;stroke-width:.7px}</style></defs><title>icon_modularity</title><g id="vLayer_2" data-name="Layer 2"><g id="vLayer_1-2" data-name="Layer 1"><path class="cls-1" d="M22 28L3.67 17.35a2 2 0 0 0-1.1-.3 2 2 0 0 0-1.6.7 1.91 1.91 0 0 0-.6 1.6v21.1a2.14 2.14 0 0 0 1.1 1.9l18.2 10.5a2 2 0 0 0 1.1.3A2.22 2.22 0 0 0 23 51V29.85A1.89 1.89 0 0 0 22 28zm.5 23a1.58 1.58 0 0 1-1.6 1.6 1.88 1.88 0 0 1-.8-.2L1.77 41.75a1.6 1.6 0 0 1-.8-1.4v-21.1a2.08 2.08 0 0 1 .5-1.2 1.66 1.66 0 0 1 1.2-.5 1.88 1.88 0 0 1 .8.2l18.3 10.6a1.6 1.6 0 0 1 .8 1.4zM48.77 19.25a2.22 2.22 0 0 0-2.2-2.2 2 2 0 0 0-1.1.3l-18.3 10.5a2.14 2.14 0 0 0-1.1 1.9v21.1a2.27 2.27 0 0 0 .6 1.6 2.36 2.36 0 0 0 1.6.7 2 2 0 0 0 1.1-.3l18.3-10.5a2.14 2.14 0 0 0 1.1-1.9zm-1.4 22.5l-18.3 10.6a1.88 1.88 0 0 1-.8.2 1.85 1.85 0 0 1-1.2-.5 1.66 1.66 0 0 1-.5-1.2v-21.1a1.6 1.6 0 0 1 .8-1.4l18.2-10.5a1.88 1.88 0 0 1 .8-.2 1.58 1.58 0 0 1 1.6 1.6v21.1a1.16 1.16 0 0 1-.6 1.4zM44 15a2.17 2.17 0 0 0 .8-3 3 3 0 0 0-.8-.8L25.67.65a2.17 2.17 0 0 0-2.2 0l-18.3 10.5a2.17 2.17 0 0 0-.8 3 3 3 0 0 0 .8.8l18.3 10.6a2.17 2.17 0 0 0 2.2 0zM24.6 25.3a1.88 1.88 0 0 1-.8-.2L5.47 14.55a1.53 1.53 0 0 1-.6-2.2 1.17 1.17 0 0 1 .6-.6l18.2-10.6a1.53 1.53 0 0 1 1.6 0l18.4 10.6a1.53 1.53 0 0 1 .6 2.2 1.17 1.17 0 0 1-.6.6L25.37 25a1.14 1.14 0 0 1-.8.35z"/></g></g></symbol><symbol viewBox="0 0 432.32 111.18" id="site_logo"><defs><style>.cls-1,.cls-2{fill:#00a0ad}.cls-2{stroke:#00a0ad;stroke-miterlimit:10}</style></defs><title>site_logo</title><g id="wLayer_2" data-name="Layer 2"><g id="wLayer_1-2" data-name="Layer 1"><path class="cls-1" d="M139.92 48.46c0 3.06 1.34 6.7 8.23 8.86l8.23 2.61c4.72 1.47 10.14 5.29 10.14 11.48s-5.42 11.8-14.6 11.8c-8.1 0-13.33-4.4-15.43-8.61l1.66-.57c1.72 3.63 6.31 7.71 13.77 7.71 8.16 0 12.94-4.91 12.94-10.33s-4.78-8.74-9-10l-8.23-2.61c-7.84-2.49-9.37-6.76-9.37-10.27 0-7.14 6.38-11.35 13.65-11.35 6.7 0 11.8 3.51 13.2 8.61l-1.53.51c-1.08-4.4-5.68-7.65-11.73-7.65-6.39-.01-11.93 3.63-11.93 9.81z"/><path class="cls-1" d="M151.9 84.46c-8.77 0-14.3-4.8-16.55-9.3l-.64-1.27 4.06-1.41.48 1c1.53 3.23 5.76 7 12.64 7 7.68 0 11.69-4.57 11.69-9.08 0-4.69-4.19-7.63-8.1-8.81L147.25 60C140.46 57.83 137 54 137 48.52c0-7.3 6.26-12.6 14.9-12.6 7.16 0 12.81 3.74 14.4 9.53l.31 1.14-3.94 1.31-.32-1.32c-1-4-5.21-6.7-10.52-6.7-5.14 0-10.67 2.68-10.67 8.57 0 2.3.76 5.6 7.35 7.67l8.23 2.62c5.08 1.58 11 5.84 11 12.67.02 6.49-5.43 13.05-15.84 13.05zM190.38 82.51h-1.59V63.83l-16.58-26h2l15.43 24.29L205 37.88h2l-16.64 26z"/><path class="cls-1" d="M191.63 83.76h-4.09V64.19l-17.61-27.56h4.94l14.75 23.21 14.74-23.21h4.95l-17.68 27.56v19.57zM219.74 40.43v42.08h-1.59V37.88h1.59l30.86 42v-42h1.59v44.63h-1.59z"/><path class="cls-1" d="M253.45 83.76h-3.48l-28.98-39.52v39.52h-4.09V36.63h3.48l28.97 39.45V36.63h4.1v47.13zM268.62 82.51V37.88H295v1.47h-24.79v20.6h21.68v1.47h-21.68V81H295v1.47z"/><path class="cls-1" d="M296.27 83.76h-28.9V36.63h28.9v3.96h-24.81v18.1h21.68v3.97h-21.68V79.8h24.81v3.96zM343.25 81.68a10 10 0 0 1-5.25 1.53c-9.95 0-13.14-13.2-13.52-19.45h-14.9v18.75H308V37.88h17.6c7.77 0 12.4 6.12 12.4 13.07s-4.51 12.62-12 12.81c.32 5.8 3.25 17.92 12 17.92a8.47 8.47 0 0 0 4.4-1.28zM325.59 62.3c6.7 0 10.71-5.16 10.71-11.35s-4-11.61-10.71-11.61h-16v23z"/><path class="cls-1" d="M338 84.46c-10.12 0-13.93-12.11-14.67-19.45h-12.5v18.75h-4.09V36.63h18.85c8.94 0 13.62 7.2 13.62 14.32 0 7.62-4.8 13.19-11.82 14 .61 5.23 3.21 15.48 10.61 15.48a7.27 7.27 0 0 0 3.71-1.07l1.05-.7L345 82l-1 .69a11.31 11.31 0 0 1-6 1.77zM310.83 61h14.75c5.57 0 9.46-4.15 9.46-10.1 0-5-3-10.36-9.46-10.36h-14.75zM386.89 63.7h-13.64v-1.59h15.24v15.75c-5 4.46-11.22 5.36-15.81 5.36-14 0-23.85-10.52-23.85-23.08a23.12 23.12 0 0 1 22.64-23c5.8 0 11 .57 15.69 3.7l-.7 1.34c-4.46-3.06-9.5-3.57-15-3.57-10.78 0-21 9.25-21 21.49 0 11.73 9.18 21.62 22.19 21.62 4.08 0 9.63-.76 14.22-4.53z"/><path class="cls-1" d="M372.67 84.46c-14.07 0-25.1-10.69-25.1-24.33 0-13.12 10.94-24.21 23.89-24.21 5.48 0 11.26.47 16.38 3.91l.93.63L386.9 44l-1.16-.8c-4.06-2.78-8.64-3.35-14.28-3.35a20.26 20.26 0 0 0-19.73 20.24c0 11.61 9 20.37 20.94 20.37 5.23 0 9.59-1.31 13-3.88V65H372v-4.14h17.74v17.56l-.42.37c-4.25 3.76-9.85 5.67-16.65 5.67zM413.39 82.51h-1.59V63.83l-16.58-26h2l15.43 24.29 15.43-24.29h2l-16.64 26z"/><path class="cls-1" d="M414.64 83.76h-4.1V64.19l-17.61-27.56h4.95l14.74 23.21 14.75-23.21h4.95l-17.68 27.56v19.57z"/><g id="wLayer_1-3" data-name="Layer 1"><path class="cls-1" d="M55.6 86.2a30.6 30.6 0 0 1-30.54-28.5s3.59.79 3.66 1.29a27.1 27.1 0 0 0 51.83 7.17l3.24 1.37A30.58 30.58 0 0 1 55.6 86.2zM81.14 46.53a27.13 27.13 0 0 0-25.54-18c-8.75 0-17.56 5.05-22.67 12.1-.3.41-3.12-1.53-3.12-1.53a30.61 30.61 0 0 1 55.34 8.59 23.07 23.07 0 0 1-4.01-1.16z"/><path class="cls-2" d="M58 110.68h-2.47a55.07 55.07 0 0 1-55-52.41 59.54 59.54 0 0 1 1-13.91l1.27-6.6 3.58 5.69a37.5 37.5 0 0 0 3.17 4.1l.79.92-.18 1.2a39.22 39.22 0 0 0-.39 8.08A45.85 45.85 0 0 0 75.17 97a45 45 0 0 0 14.37-10.68 17.86 17.86 0 0 0 4.53-8.88A11.47 11.47 0 0 0 93 70.2c-1.76-3.42-5.83-6.27-11.8-8.24-6.45-2.13-14.76-3.21-24.69-3.21-11.13 0-21.08-1.71-28.74-4.93-8-3.36-13.6-8.42-16.13-14.57-3.61-8-2.2-15.68 4.17-22.67C23.81 7.79 39.1 1.2 53 .56A55.12 55.12 0 0 1 110.66 53a58.21 58.21 0 0 1-.42 10.51l-.83 3-2.47-4.74a35.78 35.78 0 0 0-5.71-7l.11-1.37A45.63 45.63 0 0 0 55.69 9.86h-2.35a46.37 46.37 0 0 0-31.07 14c-3 3.56-3.8 7.54-2.15 11.48s5.8 7.57 11.88 9.98c6.41 2.57 14.83 3.93 24.38 3.93 23.34 0 39.24 5.86 44.81 16.52a21.9 21.9 0 0 1 2.22 11.82c-.49 5.72-3.08 11-7.7 15.59A54.59 54.59 0 0 1 58 110.68z"/></g></g></g></symbol><symbol viewBox="0 0 128 40" id="win_badge"><defs><style>.cls-1{fill:#fff}</style></defs><title>win_badge</title><g id="xLayer_2" data-name="Layer 2"><g id="xBadges"><path d="M124 40H4a4 4 0 0 1-4-4V4a4 4 0 0 1 4-4h120a4 4 0 0 1 4 4v32a4 4 0 0 1-4 4z"/><path class="cls-1" d="M18.2 29.3l-9-1.3v-7.6h9zm0-9.6h-9v-7.2l9-1.3zM30.5 31l-11.6-1.7v-8.9h11.6zm0-11.3H18.9v-8.5l11.6-1.7z" id="xbag"/><path class="cls-1" d="M46 15.2a5.92 5.92 0 0 1-2.3.4 3.86 3.86 0 0 1-2.8-1 4 4 0 0 1-1-2.8 3.75 3.75 0 0 1 4-3.9 6.77 6.77 0 0 1 1.9.3l-.2.8a3.51 3.51 0 0 0-1.6-.3 2.78 2.78 0 0 0-3 3 2.71 2.71 0 0 0 2.9 3 3.47 3.47 0 0 0 1.3-.2v-2.2h-1.5v-.8h2.4v3.7zM48 13a1.76 1.76 0 0 0 1.8 1.9 3.06 3.06 0 0 0 1.5-.3l.2.7a3.61 3.61 0 0 1-1.8.3 2.49 2.49 0 0 1-2.6-2.7c0-1.6.9-2.9 2.5-2.9a2.26 2.26 0 0 1 2.2 2.5v.5zm2.9-.7c0-.6-.3-1.6-1.3-1.6s-1.4.9-1.5 1.6zM54.2 8.6v1.5h1.4v.7h-1.4v2.9c0 .7.2 1 .7 1a1.08 1.08 0 0 0 .6-.1v.7a2.22 2.22 0 0 1-.9.1 1.05 1.05 0 0 1-1-.4 2 2 0 0 1-.4-1.4v-2.9h-.8V10h.8V8.7zM60.1 8.6a.58.58 0 0 1-.6.6.65.65 0 0 1-.6-.6.6.6 0 0 1 1.2 0zM59 15.5v-5.4h1v5.4zM62.7 8.6v1.5h1.4v.7h-1.4v2.9c0 .7.2 1 .7 1a1.08 1.08 0 0 0 .6-.1v.7a2.22 2.22 0 0 1-.9.1 1.05 1.05 0 0 1-1-.4 2 2 0 0 1-.4-1.4v-2.9h-.8V10h.8V8.7zM72.3 12.8a2.68 2.68 0 0 1-2.7 2.9 2.63 2.63 0 0 1-2.6-2.8 2.66 2.66 0 0 1 2.6-2.9 2.55 2.55 0 0 1 2.7 2.8zm-4.2 0c0 1.2.7 2.1 1.6 2.1s1.6-.9 1.6-2.1c0-.9-.5-2.1-1.6-2.1s-1.6 1.1-1.6 2.1zM73.5 11.6v-1.5h.9l.1.9a2.06 2.06 0 0 1 1.8-1c.7 0 1.9.4 1.9 2.3v3.2h-1v-3.1c0-.9-.3-1.6-1.2-1.6a1.52 1.52 0 0 0-1.3 1 4.33 4.33 0 0 0-.1.5v3.2h-1v-3.9zM42.5 31.7l-2.7-10.9h1.5l1.3 5.5c.3 1.4.6 2.7.8 3.8.2-1.1.5-2.4.9-3.8l1.4-5.5h1.5l1.3 5.5c.3 1.3.6 2.6.8 3.7a34.18 34.18 0 0 1 .9-3.8l1.4-5.5H53l-3.1 10.9h-1.5L47 25.9a32.12 32.12 0 0 1-.7-3.6c-.2 1.1-.4 2.1-.8 3.6L44 31.6h-1.5zM55.5 21.6a.84.84 0 0 1-.9.9.9.9 0 0 1 0-1.8q.9.15.9.9zm-1.6 10.1v-7.8h1.4v7.8zM57.1 26a13.42 13.42 0 0 0-.1-2.1h1.3l.1 1.3a3 3 0 0 1 2.6-1.5c1.1 0 2.7.6 2.7 3.3v4.7h-1.4v-4.5c0-1.3-.5-2.3-1.8-2.3a2 2 0 0 0-1.9 1.5 1.48 1.48 0 0 0-.1.7v4.7h-1.4V26zM72.6 20.2v9.5a12.12 12.12 0 0 0 .1 2h-1.3l-.1-1.4a2.76 2.76 0 0 1-2.6 1.5c-1.9 0-3.3-1.6-3.3-4 0-2.6 1.6-4.2 3.5-4.2a2.5 2.5 0 0 1 2.3 1.2v-4.7h1.4zM71.2 27a1.27 1.27 0 0 0-.1-.6 2 2 0 0 0-2-1.6c-1.5 0-2.3 1.3-2.3 3s.8 2.9 2.3 2.9a2.2 2.2 0 0 0 2.1-1.7c0-.2.1-.4.1-.6V27zM81.5 27.7a3.86 3.86 0 0 1-3.9 4.2 3.71 3.71 0 0 1-3.7-4 3.87 3.87 0 0 1 3.9-4.2c2.2 0 3.7 1.6 3.7 4zm-6.1.1c0 1.7 1 3 2.4 3s2.4-1.3 2.4-3c0-1.3-.7-3-2.3-3-1.8-.1-2.5 1.5-2.5 3zM83.3 23.8l1 4c.2.9.4 1.7.6 2.5.2-.8.4-1.6.7-2.5l1.3-4h1.2l1.2 3.9c.3.9.5 1.8.7 2.6a12.88 12.88 0 0 1 .6-2.5l1.1-3.9h1.4l-2.5 7.8h-1.3L88.1 28a19.74 19.74 0 0 1-.7-2.6 25 25 0 0 1-.7 2.6l-1.3 3.7h-1.2l-2.3-7.8h1.4zM94.2 30.2a3.57 3.57 0 0 0 1.9.6c1 0 1.5-.5 1.5-1.2s-.4-1.1-1.4-1.4c-1.4-.5-2.1-1.3-2.1-2.2 0-1.3 1-2.3 2.7-2.3a3.31 3.31 0 0 1 1.9.5l-.4 1a3 3 0 0 0-1.6-.5 1.17 1.17 0 0 0-1.3 1.1c0 .6.5.9 1.5 1.3 1.3.5 2 1.2 2 2.4 0 1.4-1.1 2.3-2.9 2.3a4.77 4.77 0 0 1-2.2-.5zM105.5 22.5l-1.8 1-.3-1.1 2.3-1.2h1.2v10.5h-1.4v-9.2zM116.7 26.3c0 3.6-1.3 5.5-3.6 5.5-2 0-3.4-1.9-3.5-5.4s1.5-5.5 3.6-5.5c2.3.1 3.5 2.1 3.5 5.4zm-5.7.2c0 2.7.8 4.3 2.1 4.3s2.1-1.7 2.1-4.4-.7-4.3-2.1-4.3c-1.2 0-2.1 1.5-2.1 4.4z"/></g></g></symbol></svg>