<svg xmlns="http://www.w3.org/2000/svg" viewBox="0 0 2500 1140.9"><defs><style>.cls-1{fill:#9e9e9e;}</style></defs><title>icon_partners_nest</title><g id="Layer_2" data-name="Layer 2"><g id="Layer_1-2" data-name="Layer 1"><path class="cls-1" d="M1868.2,767.1c48.2,20.8,77,60,77,104.6,0,59.1-45,94.3-120.5,94.3-80.1,0-117.3-71.2-126.8-93l-11.7-26.9h-150l-.2-.1H1397c-38,63.9-114.4,122.8-203.3,122.8-160.4,0-240.5-126.5-250.7-251.4h655.7V690c0-51.8-5.3-100.5-15.3-145.8,18.8,58.1,61.6,118.3,151.3,160.9,32.5,15.8,82,39.3,133.5,62m-684-396.9c134.2,0,199.9,93.4,219,188.6H956.5c23.3-95.4,106.1-188.6,227.7-188.6M2500,372.9V202H2360.6V0H2189.5V202H1844.8c-159.2.1-274.7,108.1-274.7,257a292.48,292.48,0,0,0,4.6,51.1C1520.4,320.5,1377.4,202,1185.4,202,950.6,202,771,386.6,756,636.6V583.4C756,373.1,586.4,202,378,202S0,373.1,0,583.4v546.9H173.2V583.4c0-113.9,91.8-206.6,204.8-206.6s204.8,92.7,204.8,206.6v546.9H756V704.8c15.1,250.9,197,436.1,434.9,436.1,145.2,0,273.3-85.1,345.9-183.7,54.1,116.8,159.9,183.7,290.6,183.7,151.5,0,304.7-97.6,304.7-284.3,0-111.7-64.3-203-181.1-257.2-12.9-5.9-25.7-12-38.5-18.2l-1.6-.8c-13.7-6.6-27.5-13-41.3-19.4-76.3-34.6-112.6-59.9-112.6-110.4,0-44.4,39.4-77.8,88-77.8h344.5v487c0,155,124.9,281.1,278.5,281.1V968.2c-59.2,0-107.4-48.6-107.4-108.3v-487c68.5.1,121.2,0,139.4,0"/></g></g></svg>