<svg xmlns="http://www.w3.org/2000/svg" viewBox="0 0 212.65 41.04"><defs><style>.cls-1{fill:#a09f9f;}</style></defs><title>icon_partners_dropcam</title><g id="Layer_2" data-name="Layer 2"><g id="Layer_1-2" data-name="Layer 1"><path class="cls-1" d="M177.62,21.08a11.62,11.62,0,1,0-5,10.09h0A2.43,2.43,0,0,0,174.88,33h2.76V21.08ZM166,28.29a6.63,6.63,0,1,1,6.63-6.63A6.64,6.64,0,0,1,166,28.29"/><path class="cls-1" d="M93.44,10.06A11.6,11.6,0,1,0,105,21.66a11.61,11.61,0,0,0-11.6-11.6m0,18.27a6.67,6.67,0,1,1,6.67-6.67,6.68,6.68,0,0,1-6.67,6.67"/><path class="cls-1" d="M204.49,10.07a8.46,8.46,0,0,0-6.62,3,7.46,7.46,0,0,0-6.22-3,6.07,6.07,0,0,0-5.09,2.79l-.09-2.39h-4.88V33h5V19.73c0-2.87,1.78-4.95,4.25-4.95s3.84,1.68,3.84,4.61V33h4.94V19.62c0-3.34,2.11-4.84,4.21-4.84,3.38,0,3.88,2.94,3.88,4.69V33h2.49a2.49,2.49,0,0,0,2.49-2.49V18.81c0-5.31-3.2-8.74-8.15-8.74"/><path class="cls-1" d="M79.05,10.06a6.19,6.19,0,0,0-5,2.81l-.09-2.39H69.05V33h2.48A2.51,2.51,0,0,0,74,30.73V22.65h0v-1.9c0-2.87.72-5.45,3.88-5.9a6.22,6.22,0,0,1,2.56.2l1.66-4.54a7.66,7.66,0,0,0-3.08-.45"/><path class="cls-1" d="M149.6,27.49l-.41.17a5.46,5.46,0,0,1-2.82.62,6.63,6.63,0,1,1,4.14-11.79L153.89,13a10.91,10.91,0,0,0-7.53-3,11.6,11.6,0,1,0,0,23.2,11.46,11.46,0,0,0,7.79-3l-1.91-2.13a2.45,2.45,0,0,0-2.64-.61"/><path class="cls-1" d="M60.13,4.57v7.58A11.6,11.6,0,1,0,53.5,33.26a10.48,10.48,0,0,0,6.65-2.54L60.22,33H65.1V2.27H62.62a2.51,2.51,0,0,0-2.49,2.3M53.5,28.29a6.63,6.63,0,1,1,6.63-6.63,6.64,6.64,0,0,1-6.63,6.63"/><path class="cls-1" d="M113.27,38.74V31.16A11.6,11.6,0,1,0,119.9,10a10.46,10.46,0,0,0-6.65,2.6l-.07-2.17H108.3V41h2.48a2.5,2.5,0,0,0,2.49-2.3M119.9,15a6.63,6.63,0,1,1-6.63,6.63A6.64,6.64,0,0,1,119.9,15"/><path class="cls-1" d="M28.92,5a16.94,16.94,0,0,0-24,24l5.29,5.3a6.2,6.2,0,0,1,1.89-4.69l3.28-3.29-3.89-3.89a7.63,7.63,0,0,1,5.41-13,7.56,7.56,0,0,1,5.39,2.23,7.65,7.65,0,0,1,0,10.81l-5.38,5.4h0L13.66,31a4.55,4.55,0,0,0-.18,6.4l3.47,3.47,5.41-5.41h0l6.56-6.59a17,17,0,0,0,0-24"/></g></g></svg>