<svg xmlns="http://www.w3.org/2000/svg" viewBox="0 0 230 92"><defs><style>.cls-1{fill:#9e9e9e;}.cls-2{fill:none;}</style></defs><title>partnerecobeeAsset 7</title><g id="Layer_2" data-name="Layer 2"><g id="Layer_1-2" data-name="Layer 1"><g id="Layer_2-2" data-name="Layer 2"><g id="Logomark"><path class="cls-1" d="M74.83,58.15a10.08,10.08,0,0,0,7.68-3.44l2.26,2a12.51,12.51,0,0,1-10,4.56c-6.68,0-12.15-5.13-12.15-12.72,0-7.07,4.95-12.72,11.67-12.72,7.2,0,11.35,5.74,11.35,12.9,0,.32,0,.71,0,1.28H66.26A8.5,8.5,0,0,0,74.83,58.15Zm7.09-11C81.48,42.72,79,39,74.14,39c-4.19,0-7.38,3.49-7.91,8.18Z"/><path class="cls-1" d="M89.41,48.69V48.6a12.66,12.66,0,0,1,22.2-8.39l-2.39,2.55c-1.94-2-4.1-3.67-7.38-3.67-4.95,0-8.71,4.19-8.71,9.41v.09c0,5.27,3.85,9.46,8.93,9.46a10,10,0,0,0,7.43-3.62l2.3,2.17a12.58,12.58,0,0,1-22.38-7.91Z"/><path class="cls-1" d="M114.67,48.69V48.6a12.7,12.7,0,0,1,25.39-.11v.09a12.63,12.63,0,0,1-12.54,12.72h-.22A12.45,12.45,0,0,1,114.67,48.69Zm21.65,0V48.6a9.2,9.2,0,0,0-9-9.5c-5.27,0-8.89,4.28-8.89,9.41v.09c0,5.22,3.85,9.46,9,9.46S136.32,53.82,136.32,48.69Z"/><path class="cls-1" d="M148.08,56.07v4.65h-3.62V26.37h3.62V41.3c2-2.92,4.85-5.4,9.32-5.4,5.83,0,11.62,4.6,11.62,12.6v.09c0,8-5.74,12.67-11.62,12.67A11.06,11.06,0,0,1,148.08,56.07Zm17.23-7.43v-.09c0-5.74-3.94-9.41-8.57-9.41a9.07,9.07,0,0,0-8.8,9.37v.09a9.05,9.05,0,0,0,8.8,9.41c4.7,0,8.57-3.49,8.57-9.37Z"/><path class="cls-1" d="M185.39,58.15a10.08,10.08,0,0,0,7.68-3.44l2.26,2a12.51,12.51,0,0,1-10,4.56c-6.68,0-12.15-5.13-12.15-12.72,0-7.07,4.95-12.72,11.67-12.72,7.2,0,11.35,5.74,11.35,12.9,0,.32,0,.71,0,1.28H176.82A8.5,8.5,0,0,0,185.39,58.15Zm7.09-11c-.43-4.42-3-8.18-7.77-8.18-4.19,0-7.38,3.49-7.91,8.18Z"/><path class="cls-1" d="M212.22,58.15a10.08,10.08,0,0,0,7.68-3.44l2.26,2a12.51,12.51,0,0,1-10,4.56c-6.68,0-12.15-5.13-12.15-12.72,0-7.07,4.95-12.72,11.67-12.72,7.2,0,11.35,5.74,11.35,12.9,0,.32,0,.71,0,1.28H203.65C204.17,55.18,207.93,58.15,212.22,58.15Zm7.11-11c-.43-4.42-3-8.18-7.77-8.18-4.19,0-7.38,3.49-7.91,8.18Z"/><path class="cls-1" d="M23.25,67.58a7.68,7.68,0,0,1-3.87-1.32l-1,1.48,1-1.48a7.45,7.45,0,0,1-2.67-3.12c-.32-.48-.39,0-.39,0-1.09,4.22.77,6.06.93,6.2h0v0h0c.18.09,2.58,1.16,6.11-1.39C23.38,67.95,23.82,67.7,23.25,67.58ZM32,62.84A15.21,15.21,0,0,1,23.66,60a15.08,15.08,0,0,1-5.74-6.75c-.09-.3-.21-.11-.21-.11-1.21,1.76-1.57,2.78-.89,5.58s3.92,5,4.15,5.17h0c.23.16,3.58,2.35,6.34,2S31,64.73,32.18,63C32.21,63,32.34,62.82,32,62.84Zm19.69-6.13a24.68,24.68,0,0,0-5.27-12.33s-.11,0,0-.3.32-1,.32-1,0-.07.14-.11a4.92,4.92,0,0,0,2.83-2.07c1.16-1.71,1.94-5.29-2.07-8,0,0,0,0,0-.18s-.68-3.1-2.44-4.28h0c-1.78-1.21-4.72-.73-4.88-.68s-.21,0-.21,0c-4-2.71-7-.71-8.23,1a5,5,0,0,0-.89,3.4c0,.16-.07.18-.07.18s-.59.48-.8.66-.27.09-.27.09a24.91,24.91,0,0,0-13.4-.36c-5.93,1.55-8.27,3.74-9.55,5.65s-2,5.72,2,8.5,9.85,2.51,9.85,2.51c.18,0,.21.11.21.11,1.41,5,6.06,7.91,6.38,8.11s4.74,3.49,9.89,3a.17.17,0,0,1,.18.14s1.87,5.47,5.95,8.23,7.36.68,8.66-1.21S52.45,62.77,51.72,56.71Zm-5-21.08a2.66,2.66,0,1,1-3.69.71A2.66,2.66,0,0,1,46.72,35.63Zm-8.84-6a2.66,2.66,0,1,1-3.69.71A2.66,2.66,0,0,1,37.88,29.61ZM9.76,41.8s-.84-4.79,9.8-6.34c11.69-1.71,12.24,4,12.24,4s.82,4.33-9.23,6.25S9.41,42.33,9.76,41.8ZM28.88,52.38h0s0,0,0,0h0a13.41,13.41,0,0,1-4-3.69,20.61,20.61,0,0,0,5.4-1.89l1.62,1.14h0l0,0h0L33.55,49a20.42,20.42,0,0,0,.21,5.72A13.56,13.56,0,0,1,28.88,52.38ZM45.63,66.15c-.36.52-6.36-.41-8.25-10.39s2.42-10.8,2.42-10.8,5.45-1.57,8.11,9.85C50.35,65.19,45.63,66.15,45.63,66.15Z"/></g></g><rect class="cls-2" width="230" height="92"/></g></g></svg>