<svg xmlns="http://www.w3.org/2000/svg" viewBox="0 0 230 92"><defs><style>.cls-1{fill:#a09f9f;}.cls-2{fill:none;}</style></defs><title>PartnerdropcamAsset 5</title><g id="Layer_2" data-name="Layer 2"><g id="Layer_1-2" data-name="Layer 1"><g id="Layer_2-2" data-name="Layer 2"><g id="Layer_1-2-2" data-name="Layer 1-2"><path class="cls-1" d="M186.25,49.07a11.4,11.4,0,1,0-4.9,9.9h0a2.38,2.38,0,0,0,2.22,1.79h2.71V49.07Zm-11.4,7.07a6.5,6.5,0,1,1,6.5-6.5,6.5,6.5,0,0,1-6.5,6.5"/><path class="cls-1" d="M103.69,38.26A11.38,11.38,0,1,0,115,49.68v0a11.39,11.39,0,0,0-11.38-11.38m0,17.92a6.54,6.54,0,1,1,6.54-6.54h0a6.55,6.55,0,0,1-6.54,6.54"/><path class="cls-1" d="M212.6,38.27a8.3,8.3,0,0,0-6.49,2.94,7.32,7.32,0,0,0-6.1-2.94A6,6,0,0,0,195,41l-.09-2.34h-4.79v22.1H195v-13c0-2.81,1.75-4.85,4.17-4.85S203,44.54,203,47.41V60.76h4.84V47.64c0-3.28,2.07-4.75,4.13-4.75,3.31,0,3.81,2.88,3.81,4.6V60.76h2.44a2.44,2.44,0,0,0,2.44-2.44h0V46.84c0-5.21-3.14-8.57-8-8.57"/><path class="cls-1" d="M89.58,38.26A6.07,6.07,0,0,0,84.67,41l-.09-2.34H79.77V60.76H82.2a2.46,2.46,0,0,0,2.42-2.23V50.61h0V48.75c0-2.81.71-5.34,3.81-5.79a6.1,6.1,0,0,1,2.51.2l1.63-4.45a7.51,7.51,0,0,0-3-.44"/><path class="cls-1" d="M158.77,55.36l-.4.17a5.35,5.35,0,0,1-2.77.61,6.5,6.5,0,1,1,4.06-11.56L163,41.14a10.7,10.7,0,0,0-7.38-2.94,11.38,11.38,0,0,0,0,22.75h0A11.24,11.24,0,0,0,163.23,58l-1.87-2.09a2.4,2.4,0,0,0-2.59-.6"/><path class="cls-1" d="M71,32.88v7.43A11.38,11.38,0,1,0,64.52,61,10.28,10.28,0,0,0,71,58.52l.07,2.24h4.79V30.62H73.46A2.46,2.46,0,0,0,71,32.88m-6.5,23.26a6.5,6.5,0,1,1,6.5-6.5,6.5,6.5,0,0,1-6.5,6.5"/><path class="cls-1" d="M123.14,66.39V59a11.38,11.38,0,1,0,6.5-20.75,10.26,10.26,0,0,0-6.52,2.55L123,38.62h-4.79v30h2.43a2.45,2.45,0,0,0,2.44-2.26m6.5-23.24a6.5,6.5,0,1,1-6.5,6.5h0a6.51,6.51,0,0,1,6.5-6.5"/><path class="cls-1" d="M40.41,33.3A16.64,16.64,0,0,0,16.87,56.84L22.06,62a6.08,6.08,0,0,1,1.85-4.6l3.22-3.23-3.82-3.82a7.48,7.48,0,1,1,10.59,0l-5.28,5.3h0L25.45,58.8a4.46,4.46,0,0,0-.18,6.28l3.4,3.4L34,63.17h0l6.43-6.46a16.67,16.67,0,0,0,0-23.54"/></g></g><rect class="cls-2" width="230" height="92"/></g></g></svg>