<svg xmlns="http://www.w3.org/2000/svg" viewBox="0 0 230 92"><defs><style>.cls-1{fill:#9e9e9e;}.cls-2{fill:none;}</style></defs><title>partnerNestAsset 6</title><g id="Layer_2" data-name="Layer 2"><g id="Layer_1-2" data-name="Layer 1"><g id="Layer_2-2" data-name="Layer 2"><g id="Layer_1-2-2" data-name="Layer 1-2"><path class="cls-1" d="M136.28,51.9a3.8,3.8,0,0,1,2.53,3.43c0,1.94-1.48,3.09-4,3.09-2.63,0-3.85-2.34-4.16-3.05l-.38-.88h-9.49a8.1,8.1,0,0,1-6.67,4c-5.26,0-7.89-4.15-8.22-8.25h21.51v-.9a22.17,22.17,0,0,0-.5-4.78,8.82,8.82,0,0,0,5,5.28c1.07.52,2.69,1.29,4.38,2m-22.44-13c4.4,0,6.56,3.06,7.18,6.19H106.37a7.85,7.85,0,0,1,7.47-6.19M157,39V33.36h-4.57V26.74h-5.61v6.63H135.51c-5.22,0-9,3.55-9,8.43a9.59,9.59,0,0,0,.15,1.68c-1.78-6.22-6.47-10.11-12.77-10.11-7.7,0-13.59,6.05-14.08,14.25V45.87a12.4,12.4,0,1,0-24.8,0V63.81h5.68V45.87a6.72,6.72,0,1,1,13.43,0V63.81H99.8v-14c.5,8.23,6.46,14.3,14.26,14.3a14.58,14.58,0,0,0,11.35-6,10.11,10.11,0,0,0,9.53,6c5,0,10-3.2,10-9.33,0-3.66-2.11-6.66-5.94-8.44l-1.26-.6-.05,0-1.35-.64c-2.5-1.13-3.69-2-3.69-3.62A2.7,2.7,0,0,1,135.52,39h11.3v16A9.19,9.19,0,0,0,156,64.16V58.5a3.54,3.54,0,0,1-3.52-3.55V39H157"/></g></g><rect class="cls-2" width="230" height="92"/></g></g></svg>