<?xml version="1.0" encoding="utf-8"?>
<!-- Generator: Adobe Illustrator 21.0.2, SVG Export Plug-In . SVG Version: 6.00 Build 0)  -->
<svg version="1.1" xmlns="http://www.w3.org/2000/svg" xmlns:xlink="http://www.w3.org/1999/xlink" x="0px" y="0px"
	 viewBox="0 0 184 184" style="enable-background:new 0 0 184 184;" xml:space="preserve">
<style type="text/css">
	.st0{fill:none;}
</style>
<g id="background">
	<path class="st0" d="M92,184c-50.8,0-92-41.2-92-92S41.2,0,92,0s92,41.2,92,92C183.9,142.8,142.8,183.9,92,184z"/>
</g>
<g id="icon">
	<path d="M122.1,47.5h-17.3c-3.1,0-4.9,4.5-4.9,6.9v6.2c0,2.4,1.7,4.4,4,4.8v24.1c0,8.8-1.1,11.6-2,12.4c-0.4,0.4-1,0.4-2.1,0.2
		c-0.8-0.1-1.6-0.1-2.5-0.1c-1.5,0.1-2.4,0.1-3.2-0.7c-1-1-2.2-3.6-2.2-10.9c0-26-15.5-27.2-28.6-27.4c-0.4-2.4-2.4-4.1-4.8-4.1
		h-6.1c-2.7,0-4.9,2.2-4.9,4.9v17.3c0,2.7,2.2,4.9,4.9,4.9h6.2c2.4,0,4.4-1.7,4.8-4c2.9,0.1,6,0.3,7.5,1.2c1,0.6,2.1,1.2,2.1,7.2
		c0,19.3,7.7,25.6,15,28.5c-3.5,5.6-6.5,11.4-6.5,14.9c0,8.2,7.6,14.9,17,14.9s17-6.7,17-14.9c0-3.5-2.8-9.4-6-15
		c2.4-1.2,4.6-2.8,6.4-4.9c4.8-5.7,7.1-10.8,7.1-24.5V65.4c2.3-0.4,4-2.5,4.1-4.8v-6.1C127.1,52,125.2,47.5,122.1,47.5z M58.6,83.1
		h-6.1c-1.1,0-1.9-0.9-1.9-1.9V63.9c0-1.1,0.9-1.9,1.9-1.9h6.2c1.1,0,1.9,0.9,1.9,1.9v17.3C60.5,82.2,59.6,83.1,58.6,83.1
		C58.6,83.1,58.6,83.1,58.6,83.1z M76,90.5c0-5.9-0.9-8.3-3.6-9.9c-2-1.2-5.4-1.5-8.9-1.6v-13C76.3,66.3,89,67.4,89,90.5
		c0,6.9,1,11,3.2,13.1c1.3,1.2,3.1,1.7,4.9,1.5c-1.3,1.8-4.3,6-6.8,10.5l-0.6,0.9C82.7,113.8,76,108.4,76,90.5z M98.5,145.8
		c-7.7,0-14-5.3-14-11.9c0-2.9,3-8.4,6.4-13.9l0.2,0.1l0.6-1.1c0.3-0.5,0.6-1.1,0.9-1.6c2.3-3.5,4.7-6.8,6.5-9.2
		c0.8,1.1,1.7,2.4,2.6,3.9c1.3,2.1,2.7,4.6,3.8,6.9l0.6,1.2l0.5-0.2c3.2,5.5,5.9,11,5.9,13.9C112.5,140.5,106.2,145.8,98.5,145.8z
		 M120,89.5c0,12.9-2,17.4-6.4,22.6c-1.5,1.8-3.5,3.3-5.6,4.2c-1.3-2.2-2.6-4.2-3.8-6c-1.3-2.2-2.5-4.1-3.3-5.2
		c1.1,0,2.2-0.3,3.1-1.1c2.1-1.8,3-6.2,3-14.6V66h13L120,89.5z M124.1,60.6c0,1.1-0.9,1.9-1.9,1.9h-17.3c-1.1,0-1.9-0.9-1.9-1.9
		v-6.1c0-1.6,1.3-3.9,1.9-3.9h17.2c0.6,0,1.9,2.3,1.9,3.9L124.1,60.6z M108.8,134.4c0.1-0.3,0.4-0.4,0.6-0.4s0.4,0.4,0.4,0.6
		c-1.3,4.6-6.1,7.7-11.3,7.7c-1,0-1.9-0.1-2.9-0.3c-0.3-0.1-0.5-0.3-0.4-0.6c0.1-0.3,0.3-0.5,0.6-0.4
		C101.5,142.3,107.3,139.3,108.8,134.4z M92,184c-50.8,0-92-41.2-92-92S41.2,0,92,0s92,41.2,92,92C183.9,142.8,142.8,183.9,92,184z
		 M92,4C43.4,4,4,43.4,4,92s39.4,88,88,88s88-39.4,88-88C179.9,43.4,140.6,4.1,92,4z"/>
</g>
</svg>
