<?xml version="1.0" encoding="utf-8"?>
<!-- Generator: Adobe Illustrator 21.0.2, SVG Export Plug-In . SVG Version: 6.00 Build 0)  -->
<svg version="1.1" xmlns="http://www.w3.org/2000/svg" xmlns:xlink="http://www.w3.org/1999/xlink" x="0px" y="0px"
	 viewBox="0 0 184 184" style="enable-background:new 0 0 184 184;" xml:space="preserve">
<style type="text/css">
	.st0{fill:none;}
</style>
<g id="background">
	<path class="st0" d="M92,184c-50.8,0-92-41.2-92-92S41.2,0,92,0s92,41.2,92,92C183.9,142.8,142.8,183.9,92,184z"/>
</g>
<g id="icon">
	<path d="M106.3,100.8V58.5c0-4.9-3.9-8.8-8.8-8.8h-3.2c-4.9,0-8.8,3.9-8.8,8.8v42.3c-10,5.7-13.4,18.5-7.6,28.4
		c5.7,10,18.5,13.4,28.4,7.6s13.4-18.5,7.6-28.4C112.1,105.3,109.5,102.6,106.3,100.8L106.3,100.8z M95.9,136.7
		c-9.8,0-17.8-8-17.9-17.8c0-6.7,3.7-12.8,9.6-15.9l0.8-0.4V58.5c0-3.2,2.6-5.8,5.8-5.8h3.2c3.2,0,5.8,2.6,5.8,5.8v44.1l0.8,0.4
		c8.7,4.5,12.1,15.3,7.6,24C108.6,133,102.5,136.7,95.9,136.7L95.9,136.7z M97,110l-0.3-47.5h-1L96,110c-5,0.3-8.8,4.5-8.5,9.5
		c0.3,5,4.5,8.8,9.5,8.5s8.8-4.5,8.5-9.5C105.2,113.9,101.6,110.3,97,110z M96.2,127c-4.4,0-8-3.6-8-8s3.6-8,8-8s8,3.6,8,8
		S100.6,127,96.2,127z M80,63H51v-1h29V63z M64,70v-1h16v1H64z M80,77H51v-1h29V77z M64,84v-1h16v1H64z M80,92H51v-1h29V92z M92,184
		c-50.8,0-92-41.2-92-92S41.2,0,92,0s92,41.2,92,92C183.9,142.8,142.8,183.9,92,184z M92,4C43.4,4,4,43.4,4,92s39.4,88,88,88
		s88-39.4,88-88C179.9,43.4,140.6,4.1,92,4z"/>
</g>
</svg>
