<?xml version="1.0" encoding="utf-8"?>
<!-- Generator: Adobe Illustrator 21.0.2, SVG Export Plug-In . SVG Version: 6.00 Build 0)  -->
<svg version="1.1" xmlns="http://www.w3.org/2000/svg" xmlns:xlink="http://www.w3.org/1999/xlink" x="0px" y="0px"
	 viewBox="0 0 184 184" style="enable-background:new 0 0 184 184;" xml:space="preserve">
<style type="text/css">
	.st0{fill:none;}
</style>
<g class="background">
	<path class="st0" d="M184,92c0-50.8-41.2-92-92-92S0,41.2,0,92s41.2,92,92,92C142.8,183.9,183.9,142.8,184,92z"/>
</g>
<g id="icon">
	<path d="M120.8,90.6c0,5.3-1.5,10.6-4.4,15.1c-0.1,0.3-0.5,0.4-0.8,0.2c-0.3-0.1-0.4-0.5-0.2-0.8c0,0,0-0.1,0.1-0.1
		c8-12.6,4.2-29.3-8.4-37.3s-29.3-4.2-37.3,8.4c-5.6,8.8-5.6,20.1,0,29c0.1,0.3,0,0.6-0.2,0.8c-0.2,0.1-0.5,0.1-0.7-0.2
		c-8.3-13.2-4.4-30.6,8.8-38.9s30.6-4.4,38.9,8.8C119.4,80,120.9,85.2,120.8,90.6L120.8,90.6z M92.7,42C67.9,42,47,63.4,47,88.8
		c0,11,4,21.7,11.2,30c0.2,0.3,0.5,0.3,0.8,0.1c0.3-0.2,0.3-0.5,0.1-0.8c0,0-0.1-0.1-0.1-0.1c-7.1-8.1-10.9-18.5-10.9-29.3
		c0-24.8,20.4-45.7,44.5-45.7s44.5,20.9,44.5,45.7c0,10.7-3.9,21.1-10.9,29.2c-0.2,0.2-0.2,0.6,0,0.8c0.2,0.2,0.6,0.2,0.8,0
		c0,0,0.1-0.1,0.1-0.1c7.2-8.3,11.2-19,11.2-30C138.3,63.4,117.4,42,92.7,42z M106.1,96.2v37.7c0,4.2-3.3,7.1-8.2,7.1H87.4
		c-4.9,0-8.2-2.9-8.2-7.1V96.2c0-4.5,3.7-8.2,8.2-8.2h10.4C102.4,88,106.1,91.7,106.1,96.2z M102.7,96.2c0-2.7-2.2-4.8-4.8-4.8H87.4
		c-2.7,0-4.8,2.2-4.8,4.8v37.7c0,3.5,3.7,3.7,4.8,3.7h10.4c1.1,0,4.8-0.3,4.8-3.7L102.7,96.2z M184,92c0-50.8-41.2-92-92-92
		S0,41.2,0,92s41.2,92,92,92C142.8,183.9,183.9,142.8,184,92z M180,92c0,48.6-39.4,88-88,88S4,140.6,4,92S43.4,4,92,4
		C140.6,4.1,179.9,43.4,180,92z"/>
</g>
</svg>
