<?xml version="1.0" encoding="utf-8"?>
<!-- Generator: Adobe Illustrator 21.0.2, SVG Export Plug-In . SVG Version: 6.00 Build 0)  -->
<svg version="1.1" xmlns="http://www.w3.org/2000/svg" xmlns:xlink="http://www.w3.org/1999/xlink" x="0px" y="0px"
	 viewBox="0 0 184 184" style="enable-background:new 0 0 184 184;" xml:space="preserve">
<style type="text/css">
	.st0{fill:none;}
</style>
<g id="background">
	<path class="st0" d="M92,184c-50.8,0-92-41.2-92-92S41.2,0,92,0s92,41.2,92,92C183.9,142.8,142.8,183.9,92,184z"/>
</g>
<g id="icon">
	<path d="M119.4,84.8V70.1c0-15.8-11.1-28.6-24.6-28.6h-5.5c-13.6,0-24.6,12.8-24.6,28.6v14.7c-2,1.3-3.1,3.6-3.1,5.9v40.1
		c0,4,3.2,7.2,7.2,7.2h46.6c4,0,7.2-3.2,7.2-7.2V90.7C122.5,88.3,121.3,86.1,119.4,84.8z M67.6,70.1c0-14.1,9.7-25.6,21.6-25.6h5.5
		c11.9,0,21.6,11.5,21.6,25.6v13.3h-42V70.3c0-10.2,7-18.5,15.7-18.5h3.8c8.7,0,15.7,8.3,15.7,18.5v9.2h1v-9.2
		c0-10.8-7.5-19.5-16.7-19.5h-3.8c-9.2,0-16.7,8.7-16.7,19.5v13.1h-5.7V70.1z M119.5,130.8c0,2.3-1.9,4.2-4.2,4.2l0,0H68.7
		c-2.3,0-4.2-1.9-4.2-4.2l0,0V90.7c0-2.3,1.9-4.2,4.2-4.2l0,0h46.6c2.3,0,4.2,1.9,4.2,4.2l0,0V130.8z M95.6,111.1v-8.3
		c0-1-0.8-1.8-1.8-1.8h-3.6c-1,0-1.8,0.8-1.8,1.8v8.3c-3,2-3.8,6-1.8,9c2,3,6,3.8,9,1.8c3-2,3.8-6,1.8-9
		C96.9,112.2,96.3,111.6,95.6,111.1z M92,122c-3,0-5.5-2.5-5.5-5.5c0-1.9,1-3.7,2.6-4.7l0.2-0.2v-8.9c0-0.4,0.3-0.8,0.8-0.8h3.6
		c0.4,0,0.8,0.3,0.8,0.8v8.9l0.2,0.2c2.6,1.6,3.4,4.9,1.8,7.5C95.7,121,93.9,122,92,122z M92,184c-50.8,0-92-41.2-92-92S41.2,0,92,0
		s92,41.2,92,92C183.9,142.8,142.8,183.9,92,184z M92,4C43.4,4,4,43.4,4,92s39.4,88,88,88s88-39.4,88-88C179.9,43.4,140.6,4.1,92,4z
		"/>
</g>
</svg>
