<?xml version="1.0" encoding="utf-8"?>
<!-- Generator: Adobe Illustrator 21.0.2, SVG Export Plug-In . SVG Version: 6.00 Build 0)  -->
<svg version="1.1" xmlns="http://www.w3.org/2000/svg" xmlns:xlink="http://www.w3.org/1999/xlink" x="0px" y="0px"
	 viewBox="0 0 184 184" style="enable-background:new 0 0 184 184;" xml:space="preserve">
<style type="text/css">
	.st0{fill:none;}
</style>
<g class="background">
	<path class="st0" d="M92,184c-50.8,0-92-41.2-92-92S41.2,0,92,0s92,41.2,92,92S142.8,184,92,184z"/>
</g>
<g id="icon">
	<path d="M92,184c-50.8,0-92-41.2-92-92S41.2,0,92,0s92,41.2,92,92S142.8,184,92,184z M92,4C43.4,4,4,43.4,4,92s39.4,88,88,88
		s88-39.4,88-88S140.6,4,92,4z M129.6,103.5H123v-36c0-3.6-2.9-6.5-6.5-6.5s-6.5,2.9-6.5,6.5v36H55.4c-6.1,0-10.9,3-10.9,6.8v15.3
		c0,3.8,4.8,6.8,10.9,6.8h74.1c6.1,0,10.9-3,10.9-6.8v-15.3C140.5,106.5,135.7,103.5,129.6,103.5z M113,67.5c0-1.9,1.6-3.5,3.5-3.5
		s3.5,1.6,3.5,3.5v36h-7V67.5z M137.5,125.6c0,1.8-3.4,3.8-7.9,3.8H55.5c-4.5,0-7.9-2-7.9-3.8v-15.3c0-1.8,3.4-3.8,7.9-3.8h74.1
		c4.5,0,7.9,2,7.9,3.8V125.6z M98.5,84c0.1,0,0.3,0,0.4-0.1c0.2-0.2,0.2-0.5,0-0.7c0,0,0,0,0,0l0,0c-9.2-9.2-9.2-24.2,0-33.4
		c0.2-0.2,0.2-0.5,0-0.7c-0.2-0.2-0.5-0.2-0.7,0l0,0l0,0c-9.6,9.7-9.6,25.2,0,34.9L98.5,84z M133.1,83.9c0.1,0.1,0.2,0.1,0.4,0.1
		s0.3,0,0.4-0.1c9.6-9.7,9.6-25.2,0-34.9c-0.2-0.2-0.5-0.2-0.7,0c-0.2,0.2-0.2,0.5,0,0.7l0,0l0,0c9.2,9.2,9.2,24.2,0,33.4
		C132.9,83.4,132.9,83.7,133.1,83.9z M128.1,73.7c0.1,0.1,0.2,0.1,0.4,0.1s0.3,0,0.4-0.1c4.5-4.6,4.5-12,0-16.6
		c-0.2-0.2-0.5-0.2-0.7,0c-0.2,0.2-0.2,0.5,0,0.7c2,2,3.1,4.8,3.1,7.6c0,2.8-1.1,5.6-3.1,7.6c-0.2,0.1-0.3,0.4-0.2,0.6
		C128,73.6,128.1,73.7,128.1,73.7L128.1,73.7z M103.7,73.9c0.1,0,0.3,0,0.4-0.1c0.2-0.2,0.2-0.5,0-0.7c0,0,0,0,0,0l0,0
		c-4.2-4.1-4.2-10.8-0.1-15l0.1-0.1c0.2-0.2,0.2-0.5,0-0.7c-0.2-0.2-0.5-0.2-0.7,0l0,0l0,0c-4.6,4.6-4.6,12,0,16.6l0,0
		C103.5,73.8,103.6,73.9,103.7,73.9z M63.6,115c-2.2-0.4-4.2,1.1-4.6,3.3c-0.4,2.2,1.1,4.2,3.3,4.6h0.6c2,0,3.6-1.5,4-3.4
		C67.2,117.4,65.8,115.3,63.6,115C63.6,115,63.6,115,63.6,115L63.6,115z M66,119.5c-0.4,1.6-2.1,2.6-3.7,2.1c-1.4-0.4-2.3-1.6-2.2-3
		c0.2-1.5,1.5-2.6,3-2.5h0.5C65.2,116.4,66.2,117.9,66,119.5z M75.6,115.8c-1.7,1.4-2,3.9-0.7,5.6c0.8,1,1.9,1.6,3.2,1.6
		c2.2-0.1,4-1.9,3.9-4.1c-0.1-2.2-1.9-4-4.1-3.9C77.1,115,76.3,115.3,75.6,115.8z M79.8,121.4c-1.3,1.1-3.2,0.9-4.2-0.4
		c-1.1-1.3-0.9-3.2,0.4-4.2c1.3-1.1,3.2-0.9,4.2,0.4c0,0,0,0,0,0l0.1,0.1c1,1.2,0.9,2.9-0.3,4c0,0,0,0,0,0L79.8,121.4z"/>
</g>
</svg>
