<?xml version="1.0" encoding="utf-8"?>
<!-- Generator: Adobe Illustrator 21.0.2, SVG Export Plug-In . SVG Version: 6.00 Build 0)  -->
<svg version="1.1" xmlns="http://www.w3.org/2000/svg" xmlns:xlink="http://www.w3.org/1999/xlink" x="0px" y="0px"
	 viewBox="0 0 184 184" style="enable-background:new 0 0 184 184;" xml:space="preserve">
<style type="text/css">
	.st0{fill:none;}
</style>
<g id="back">
	<path class="st0" d="M92,184c-50.8,0-92-41.2-92-92S41.2,0,92,0s92,41.2,92,92C183.9,142.8,142.8,183.9,92,184z"/>
</g>
<g id="Icon">
	<path d="M92.6,45c-0.2,0-0.4,0-0.7,0c-18.7,0.4-33.6,15.6-33.7,34.3c0,10.7,7.7,20.6,11.9,25.9c0.7,0.8,1.2,1.6,1.7,2.2
		c2.9,3.9,1.9,11.2,1.9,11.2v0.2c0,1.4,0.6,2.7,1.7,3.6v10.8c0,4.9,2.3,9.5,6.3,12.4l0,0l0,0c2.7,2,5.9,3.1,9.2,3.1h2.7
		c8.6,0,15.5-6.9,15.5-15.5v-10.8c1-0.9,1.7-2.2,1.7-3.6v-0.2c-0.3-2-0.5-7.9,1.9-11.2c0.4-0.6,1-1.4,1.7-2.2
		c4.2-5.3,11.9-15.2,11.9-25.9C126.2,60.6,111.2,45.4,92.6,45z M80,138.8l25.8-10.3v4.7c0,0.8-0.1,1.5-0.2,2.3l-21.2,8
		C82.5,142.3,81,140.7,80,138.8z M105.8,127.3l-26.2,10.5c-0.6-1.4-0.9-3-0.9-4.6v-2.1l19-7.4h8.1L105.8,127.3z M94.6,123.8l-16,6.2
		v-6.2H94.6z M93.6,145.4h-2.7c-1.8,0-3.6-0.4-5.3-1.2l19.7-7.4C103.7,141.9,99,145.4,93.6,145.4L93.6,145.4z M111.8,103.1
		c-0.7,0.9-1.3,1.7-1.8,2.3c-3.5,4.7-2.7,12.3-2.5,13.5c0,0.7-0.7,1.3-1.4,1.3h-13v-26c0-0.1,0-0.2-0.1-0.3l6.8-5.4
		c0.2-0.2,0.3-0.5,0.1-0.8s-0.5-0.3-0.8-0.1L92.5,93L86,87.7c-0.2-0.2-0.6-0.2-0.8,0.1s-0.2,0.6,0.1,0.8l0,0L92,94
		c0,0.1-0.1,0.2-0.1,0.2v26H78.4c-0.7,0-1.3-0.5-1.4-1.2c0.2-1.2,0.9-8.8-2.5-13.5c-0.5-0.7-1.1-1.4-1.8-2.3
		c-4.2-5.3-11.2-14.3-11.2-23.8c0-16.9,13.6-30.7,30.5-31h0.5c16.9,0.4,30.4,14.1,30.5,31C123,88.8,116,97.8,111.8,103.1
		L111.8,103.1z M115.7,76.7c0,0.3-0.2,0.6-0.5,0.6c0,0,0,0,0,0l0,0c-0.3,0-0.6-0.2-0.6-0.5v0c-0.2-11.1-9.3-19.9-20.4-19.8
		c-0.3,0-0.5-0.2-0.6-0.5c0,0,0,0,0-0.1c0-0.3,0.2-0.6,0.5-0.6c0,0,0,0,0,0h0.3C106.1,55.8,115.5,65.1,115.7,76.7L115.7,76.7z
		 M92,184c-50.8,0-92-41.2-92-92S41.2,0,92,0s92,41.2,92,92C183.9,142.8,142.8,183.9,92,184z M92,4C43.4,4,4,43.4,4,92
		s39.4,88,88,88s88-39.4,88-88C179.9,43.4,140.6,4.1,92,4z"/>
</g>
</svg>
